%TF.GenerationSoftware,KiCad,Pcbnew,(5.1.10-1-10_14)*%
%TF.CreationDate,2022-03-07T11:53:48+01:00*%
%TF.ProjectId,PongoIR,506f6e67-6f49-4522-9e6b-696361645f70,rev?*%
%TF.SameCoordinates,Original*%
%TF.FileFunction,Legend,Bot*%
%TF.FilePolarity,Positive*%
%FSLAX46Y46*%
G04 Gerber Fmt 4.6, Leading zero omitted, Abs format (unit mm)*
G04 Created by KiCad (PCBNEW (5.1.10-1-10_14)) date 2022-03-07 11:53:48*
%MOMM*%
%LPD*%
G01*
G04 APERTURE LIST*
%ADD10C,0.300000*%
%ADD11C,0.150000*%
%ADD12C,0.010000*%
G04 APERTURE END LIST*
D10*
X183947857Y-99378571D02*
X183947857Y-97878571D01*
X182376428Y-99378571D02*
X182876428Y-98664285D01*
X183233571Y-99378571D02*
X183233571Y-97878571D01*
X182662142Y-97878571D01*
X182519285Y-97950000D01*
X182447857Y-98021428D01*
X182376428Y-98164285D01*
X182376428Y-98378571D01*
X182447857Y-98521428D01*
X182519285Y-98592857D01*
X182662142Y-98664285D01*
X183233571Y-98664285D01*
X180733571Y-97878571D02*
X179805000Y-97878571D01*
X180305000Y-98450000D01*
X180090714Y-98450000D01*
X179947857Y-98521428D01*
X179876428Y-98592857D01*
X179805000Y-98735714D01*
X179805000Y-99092857D01*
X179876428Y-99235714D01*
X179947857Y-99307142D01*
X180090714Y-99378571D01*
X180519285Y-99378571D01*
X180662142Y-99307142D01*
X180733571Y-99235714D01*
X178947857Y-98521428D02*
X179090714Y-98450000D01*
X179162142Y-98378571D01*
X179233571Y-98235714D01*
X179233571Y-98164285D01*
X179162142Y-98021428D01*
X179090714Y-97950000D01*
X178947857Y-97878571D01*
X178662142Y-97878571D01*
X178519285Y-97950000D01*
X178447857Y-98021428D01*
X178376428Y-98164285D01*
X178376428Y-98235714D01*
X178447857Y-98378571D01*
X178519285Y-98450000D01*
X178662142Y-98521428D01*
X178947857Y-98521428D01*
X179090714Y-98592857D01*
X179162142Y-98664285D01*
X179233571Y-98807142D01*
X179233571Y-99092857D01*
X179162142Y-99235714D01*
X179090714Y-99307142D01*
X178947857Y-99378571D01*
X178662142Y-99378571D01*
X178519285Y-99307142D01*
X178447857Y-99235714D01*
X178376428Y-99092857D01*
X178376428Y-98807142D01*
X178447857Y-98664285D01*
X178519285Y-98592857D01*
X178662142Y-98521428D01*
X177733571Y-99378571D02*
X177733571Y-97878571D01*
X177590714Y-98807142D02*
X177162142Y-99378571D01*
X177162142Y-98378571D02*
X177733571Y-98950000D01*
X176519285Y-99378571D02*
X176519285Y-97878571D01*
X176519285Y-98592857D02*
X175662142Y-98592857D01*
X175662142Y-99378571D02*
X175662142Y-97878571D01*
X175090714Y-98378571D02*
X174305000Y-98378571D01*
X175090714Y-99378571D01*
X174305000Y-99378571D01*
X172590714Y-98592857D02*
X172090714Y-98592857D01*
X171876428Y-99378571D02*
X172590714Y-99378571D01*
X172590714Y-97878571D01*
X171876428Y-97878571D01*
X171233571Y-98378571D02*
X171233571Y-99378571D01*
X171233571Y-98521428D02*
X171162142Y-98450000D01*
X171019285Y-98378571D01*
X170805000Y-98378571D01*
X170662142Y-98450000D01*
X170590714Y-98592857D01*
X170590714Y-99378571D01*
X169233571Y-99307142D02*
X169376428Y-99378571D01*
X169662142Y-99378571D01*
X169805000Y-99307142D01*
X169876428Y-99235714D01*
X169947857Y-99092857D01*
X169947857Y-98664285D01*
X169876428Y-98521428D01*
X169805000Y-98450000D01*
X169662142Y-98378571D01*
X169376428Y-98378571D01*
X169233571Y-98450000D01*
X168376428Y-99378571D02*
X168519285Y-99307142D01*
X168590714Y-99235714D01*
X168662142Y-99092857D01*
X168662142Y-98664285D01*
X168590714Y-98521428D01*
X168519285Y-98450000D01*
X168376428Y-98378571D01*
X168162142Y-98378571D01*
X168019285Y-98450000D01*
X167947857Y-98521428D01*
X167876428Y-98664285D01*
X167876428Y-99092857D01*
X167947857Y-99235714D01*
X168019285Y-99307142D01*
X168162142Y-99378571D01*
X168376428Y-99378571D01*
X166590714Y-99378571D02*
X166590714Y-97878571D01*
X166590714Y-99307142D02*
X166733571Y-99378571D01*
X167019285Y-99378571D01*
X167162142Y-99307142D01*
X167233571Y-99235714D01*
X167305000Y-99092857D01*
X167305000Y-98664285D01*
X167233571Y-98521428D01*
X167162142Y-98450000D01*
X167019285Y-98378571D01*
X166733571Y-98378571D01*
X166590714Y-98450000D01*
X165305000Y-99307142D02*
X165447857Y-99378571D01*
X165733571Y-99378571D01*
X165876428Y-99307142D01*
X165947857Y-99164285D01*
X165947857Y-98592857D01*
X165876428Y-98450000D01*
X165733571Y-98378571D01*
X165447857Y-98378571D01*
X165305000Y-98450000D01*
X165233571Y-98592857D01*
X165233571Y-98735714D01*
X165947857Y-98878571D01*
X164590714Y-99378571D02*
X164590714Y-98378571D01*
X164590714Y-98664285D02*
X164519285Y-98521428D01*
X164447857Y-98450000D01*
X164305000Y-98378571D01*
X164162142Y-98378571D01*
X162590714Y-97807142D02*
X163876428Y-99735714D01*
X162090714Y-99378571D02*
X162090714Y-97878571D01*
X161733571Y-97878571D01*
X161519285Y-97950000D01*
X161376428Y-98092857D01*
X161305000Y-98235714D01*
X161233571Y-98521428D01*
X161233571Y-98735714D01*
X161305000Y-99021428D01*
X161376428Y-99164285D01*
X161519285Y-99307142D01*
X161733571Y-99378571D01*
X162090714Y-99378571D01*
X160019285Y-99307142D02*
X160162142Y-99378571D01*
X160447857Y-99378571D01*
X160590714Y-99307142D01*
X160662142Y-99164285D01*
X160662142Y-98592857D01*
X160590714Y-98450000D01*
X160447857Y-98378571D01*
X160162142Y-98378571D01*
X160019285Y-98450000D01*
X159947857Y-98592857D01*
X159947857Y-98735714D01*
X160662142Y-98878571D01*
X158662142Y-99307142D02*
X158805000Y-99378571D01*
X159090714Y-99378571D01*
X159233571Y-99307142D01*
X159305000Y-99235714D01*
X159376428Y-99092857D01*
X159376428Y-98664285D01*
X159305000Y-98521428D01*
X159233571Y-98450000D01*
X159090714Y-98378571D01*
X158805000Y-98378571D01*
X158662142Y-98450000D01*
X157805000Y-99378571D02*
X157947857Y-99307142D01*
X158019285Y-99235714D01*
X158090714Y-99092857D01*
X158090714Y-98664285D01*
X158019285Y-98521428D01*
X157947857Y-98450000D01*
X157805000Y-98378571D01*
X157590714Y-98378571D01*
X157447857Y-98450000D01*
X157376428Y-98521428D01*
X157305000Y-98664285D01*
X157305000Y-99092857D01*
X157376428Y-99235714D01*
X157447857Y-99307142D01*
X157590714Y-99378571D01*
X157805000Y-99378571D01*
X156019285Y-99378571D02*
X156019285Y-97878571D01*
X156019285Y-99307142D02*
X156162142Y-99378571D01*
X156447857Y-99378571D01*
X156590714Y-99307142D01*
X156662142Y-99235714D01*
X156733571Y-99092857D01*
X156733571Y-98664285D01*
X156662142Y-98521428D01*
X156590714Y-98450000D01*
X156447857Y-98378571D01*
X156162142Y-98378571D01*
X156019285Y-98450000D01*
X154733571Y-99307142D02*
X154876428Y-99378571D01*
X155162142Y-99378571D01*
X155305000Y-99307142D01*
X155376428Y-99164285D01*
X155376428Y-98592857D01*
X155305000Y-98450000D01*
X155162142Y-98378571D01*
X154876428Y-98378571D01*
X154733571Y-98450000D01*
X154662142Y-98592857D01*
X154662142Y-98735714D01*
X155376428Y-98878571D01*
X154019285Y-99378571D02*
X154019285Y-98378571D01*
X154019285Y-98664285D02*
X153947857Y-98521428D01*
X153876428Y-98450000D01*
X153733571Y-98378571D01*
X153590714Y-98378571D01*
X183947857Y-101928571D02*
X183947857Y-100928571D01*
X183947857Y-101071428D02*
X183876428Y-101000000D01*
X183733571Y-100928571D01*
X183519285Y-100928571D01*
X183376428Y-101000000D01*
X183305000Y-101142857D01*
X183305000Y-101928571D01*
X183305000Y-101142857D02*
X183233571Y-101000000D01*
X183090714Y-100928571D01*
X182876428Y-100928571D01*
X182733571Y-101000000D01*
X182662142Y-101142857D01*
X182662142Y-101928571D01*
X181947857Y-101928571D02*
X181947857Y-100928571D01*
X181947857Y-100428571D02*
X182019285Y-100500000D01*
X181947857Y-100571428D01*
X181876428Y-100500000D01*
X181947857Y-100428571D01*
X181947857Y-100571428D01*
X181233571Y-100928571D02*
X181233571Y-101928571D01*
X181233571Y-101071428D02*
X181162142Y-101000000D01*
X181019285Y-100928571D01*
X180805000Y-100928571D01*
X180662142Y-101000000D01*
X180590714Y-101142857D01*
X180590714Y-101928571D01*
X178733571Y-101357142D02*
X177590714Y-101357142D01*
X178162142Y-101928571D02*
X178162142Y-100785714D01*
X176162142Y-100428571D02*
X176876428Y-100428571D01*
X176947857Y-101142857D01*
X176876428Y-101071428D01*
X176733571Y-101000000D01*
X176376428Y-101000000D01*
X176233571Y-101071428D01*
X176162142Y-101142857D01*
X176090714Y-101285714D01*
X176090714Y-101642857D01*
X176162142Y-101785714D01*
X176233571Y-101857142D01*
X176376428Y-101928571D01*
X176733571Y-101928571D01*
X176876428Y-101857142D01*
X176947857Y-101785714D01*
X175662142Y-100428571D02*
X175162142Y-101928571D01*
X174662142Y-100428571D01*
X173019285Y-101928571D02*
X173019285Y-100928571D01*
X173019285Y-101071428D02*
X172947857Y-101000000D01*
X172805000Y-100928571D01*
X172590714Y-100928571D01*
X172447857Y-101000000D01*
X172376428Y-101142857D01*
X172376428Y-101928571D01*
X172376428Y-101142857D02*
X172305000Y-101000000D01*
X172162142Y-100928571D01*
X171947857Y-100928571D01*
X171805000Y-101000000D01*
X171733571Y-101142857D01*
X171733571Y-101928571D01*
X170376428Y-101928571D02*
X170376428Y-101142857D01*
X170447857Y-101000000D01*
X170590714Y-100928571D01*
X170876428Y-100928571D01*
X171019285Y-101000000D01*
X170376428Y-101857142D02*
X170519285Y-101928571D01*
X170876428Y-101928571D01*
X171019285Y-101857142D01*
X171090714Y-101714285D01*
X171090714Y-101571428D01*
X171019285Y-101428571D01*
X170876428Y-101357142D01*
X170519285Y-101357142D01*
X170376428Y-101285714D01*
X169805000Y-101928571D02*
X169019285Y-100928571D01*
X169805000Y-100928571D02*
X169019285Y-101928571D01*
X167305000Y-101357142D02*
X166162142Y-101357142D01*
X166733571Y-101928571D02*
X166733571Y-100785714D01*
X165519285Y-100571428D02*
X165447857Y-100500000D01*
X165305000Y-100428571D01*
X164947857Y-100428571D01*
X164805000Y-100500000D01*
X164733571Y-100571428D01*
X164662142Y-100714285D01*
X164662142Y-100857142D01*
X164733571Y-101071428D01*
X165590714Y-101928571D01*
X164662142Y-101928571D01*
X163376428Y-100928571D02*
X163376428Y-101928571D01*
X163733571Y-100357142D02*
X164090714Y-101428571D01*
X163162142Y-101428571D01*
X162805000Y-100428571D02*
X162305000Y-101928571D01*
X161805000Y-100428571D01*
X160162142Y-101928571D02*
X160162142Y-100928571D01*
X160162142Y-100428571D02*
X160233571Y-100500000D01*
X160162142Y-100571428D01*
X160090714Y-100500000D01*
X160162142Y-100428571D01*
X160162142Y-100571428D01*
X159447857Y-100928571D02*
X159447857Y-101928571D01*
X159447857Y-101071428D02*
X159376428Y-101000000D01*
X159233571Y-100928571D01*
X159019285Y-100928571D01*
X158876428Y-101000000D01*
X158805000Y-101142857D01*
X158805000Y-101928571D01*
X158090714Y-100928571D02*
X158090714Y-102428571D01*
X158090714Y-101000000D02*
X157947857Y-100928571D01*
X157662142Y-100928571D01*
X157519285Y-101000000D01*
X157447857Y-101071428D01*
X157376428Y-101214285D01*
X157376428Y-101642857D01*
X157447857Y-101785714D01*
X157519285Y-101857142D01*
X157662142Y-101928571D01*
X157947857Y-101928571D01*
X158090714Y-101857142D01*
X156090714Y-100928571D02*
X156090714Y-101928571D01*
X156733571Y-100928571D02*
X156733571Y-101714285D01*
X156662142Y-101857142D01*
X156519285Y-101928571D01*
X156305000Y-101928571D01*
X156162142Y-101857142D01*
X156090714Y-101785714D01*
X155590714Y-100928571D02*
X155019285Y-100928571D01*
X155376428Y-100428571D02*
X155376428Y-101714285D01*
X155305000Y-101857142D01*
X155162142Y-101928571D01*
X155019285Y-101928571D01*
X183090714Y-104478571D02*
X183590714Y-103764285D01*
X183947857Y-104478571D02*
X183947857Y-102978571D01*
X183376428Y-102978571D01*
X183233571Y-103050000D01*
X183162142Y-103121428D01*
X183090714Y-103264285D01*
X183090714Y-103478571D01*
X183162142Y-103621428D01*
X183233571Y-103692857D01*
X183376428Y-103764285D01*
X183947857Y-103764285D01*
X182519285Y-104407142D02*
X182305000Y-104478571D01*
X181947857Y-104478571D01*
X181805000Y-104407142D01*
X181733571Y-104335714D01*
X181662142Y-104192857D01*
X181662142Y-104050000D01*
X181733571Y-103907142D01*
X181805000Y-103835714D01*
X181947857Y-103764285D01*
X182233571Y-103692857D01*
X182376428Y-103621428D01*
X182447857Y-103550000D01*
X182519285Y-103407142D01*
X182519285Y-103264285D01*
X182447857Y-103121428D01*
X182376428Y-103050000D01*
X182233571Y-102978571D01*
X181876428Y-102978571D01*
X181662142Y-103050000D01*
X181019285Y-103907142D02*
X179876428Y-103907142D01*
X178519285Y-103478571D02*
X178519285Y-104478571D01*
X178876428Y-102907142D02*
X179233571Y-103978571D01*
X178305000Y-103978571D01*
X177519285Y-103621428D02*
X177662142Y-103550000D01*
X177733571Y-103478571D01*
X177805000Y-103335714D01*
X177805000Y-103264285D01*
X177733571Y-103121428D01*
X177662142Y-103050000D01*
X177519285Y-102978571D01*
X177233571Y-102978571D01*
X177090714Y-103050000D01*
X177019285Y-103121428D01*
X176947857Y-103264285D01*
X176947857Y-103335714D01*
X177019285Y-103478571D01*
X177090714Y-103550000D01*
X177233571Y-103621428D01*
X177519285Y-103621428D01*
X177662142Y-103692857D01*
X177733571Y-103764285D01*
X177805000Y-103907142D01*
X177805000Y-104192857D01*
X177733571Y-104335714D01*
X177662142Y-104407142D01*
X177519285Y-104478571D01*
X177233571Y-104478571D01*
X177090714Y-104407142D01*
X177019285Y-104335714D01*
X176947857Y-104192857D01*
X176947857Y-103907142D01*
X177019285Y-103764285D01*
X177090714Y-103692857D01*
X177233571Y-103621428D01*
X175590714Y-102978571D02*
X176305000Y-102978571D01*
X176376428Y-103692857D01*
X176305000Y-103621428D01*
X176162142Y-103550000D01*
X175805000Y-103550000D01*
X175662142Y-103621428D01*
X175590714Y-103692857D01*
X175519285Y-103835714D01*
X175519285Y-104192857D01*
X175590714Y-104335714D01*
X175662142Y-104407142D01*
X175805000Y-104478571D01*
X176162142Y-104478571D01*
X176305000Y-104407142D01*
X176376428Y-104335714D01*
X173733571Y-104478571D02*
X173733571Y-102978571D01*
X173233571Y-104050000D01*
X172733571Y-102978571D01*
X172733571Y-104478571D01*
X171805000Y-104478571D02*
X171947857Y-104407142D01*
X172019285Y-104335714D01*
X172090714Y-104192857D01*
X172090714Y-103764285D01*
X172019285Y-103621428D01*
X171947857Y-103550000D01*
X171805000Y-103478571D01*
X171590714Y-103478571D01*
X171447857Y-103550000D01*
X171376428Y-103621428D01*
X171305000Y-103764285D01*
X171305000Y-104192857D01*
X171376428Y-104335714D01*
X171447857Y-104407142D01*
X171590714Y-104478571D01*
X171805000Y-104478571D01*
X170019285Y-104478571D02*
X170019285Y-102978571D01*
X170019285Y-104407142D02*
X170162142Y-104478571D01*
X170447857Y-104478571D01*
X170590714Y-104407142D01*
X170662142Y-104335714D01*
X170733571Y-104192857D01*
X170733571Y-103764285D01*
X170662142Y-103621428D01*
X170590714Y-103550000D01*
X170447857Y-103478571D01*
X170162142Y-103478571D01*
X170019285Y-103550000D01*
X169305000Y-104478571D02*
X169305000Y-102978571D01*
X169305000Y-103550000D02*
X169162142Y-103478571D01*
X168876428Y-103478571D01*
X168733571Y-103550000D01*
X168662142Y-103621428D01*
X168590714Y-103764285D01*
X168590714Y-104192857D01*
X168662142Y-104335714D01*
X168733571Y-104407142D01*
X168876428Y-104478571D01*
X169162142Y-104478571D01*
X169305000Y-104407142D01*
X167305000Y-103478571D02*
X167305000Y-104478571D01*
X167947857Y-103478571D02*
X167947857Y-104264285D01*
X167876428Y-104407142D01*
X167733571Y-104478571D01*
X167519285Y-104478571D01*
X167376428Y-104407142D01*
X167305000Y-104335714D01*
X166662142Y-104407142D02*
X166519285Y-104478571D01*
X166233571Y-104478571D01*
X166090714Y-104407142D01*
X166019285Y-104264285D01*
X166019285Y-104192857D01*
X166090714Y-104050000D01*
X166233571Y-103978571D01*
X166447857Y-103978571D01*
X166590714Y-103907142D01*
X166662142Y-103764285D01*
X166662142Y-103692857D01*
X166590714Y-103550000D01*
X166447857Y-103478571D01*
X166233571Y-103478571D01*
X166090714Y-103550000D01*
D11*
X194452380Y-111035714D02*
X193452380Y-111035714D01*
X194452380Y-111607142D01*
X193452380Y-111607142D01*
X194452380Y-112083333D02*
X193785714Y-112083333D01*
X193452380Y-112083333D02*
X193500000Y-112035714D01*
X193547619Y-112083333D01*
X193500000Y-112130952D01*
X193452380Y-112083333D01*
X193547619Y-112083333D01*
X193785714Y-112988095D02*
X194595238Y-112988095D01*
X194690476Y-112940476D01*
X194738095Y-112892857D01*
X194785714Y-112797619D01*
X194785714Y-112654761D01*
X194738095Y-112559523D01*
X194404761Y-112988095D02*
X194452380Y-112892857D01*
X194452380Y-112702380D01*
X194404761Y-112607142D01*
X194357142Y-112559523D01*
X194261904Y-112511904D01*
X193976190Y-112511904D01*
X193880952Y-112559523D01*
X193833333Y-112607142D01*
X193785714Y-112702380D01*
X193785714Y-112892857D01*
X193833333Y-112988095D01*
X194452380Y-113464285D02*
X193452380Y-113464285D01*
X194452380Y-113892857D02*
X193928571Y-113892857D01*
X193833333Y-113845238D01*
X193785714Y-113750000D01*
X193785714Y-113607142D01*
X193833333Y-113511904D01*
X193880952Y-113464285D01*
X193785714Y-114226190D02*
X193785714Y-114607142D01*
X193452380Y-114369047D02*
X194309523Y-114369047D01*
X194404761Y-114416666D01*
X194452380Y-114511904D01*
X194452380Y-114607142D01*
X188202380Y-110011904D02*
X188202380Y-110583333D01*
X189202380Y-110297619D02*
X188202380Y-110297619D01*
X188535714Y-110821428D02*
X189202380Y-111011904D01*
X188726190Y-111202380D01*
X189202380Y-111392857D01*
X188535714Y-111583333D01*
X189202380Y-111964285D02*
X188535714Y-111964285D01*
X188202380Y-111964285D02*
X188250000Y-111916666D01*
X188297619Y-111964285D01*
X188250000Y-112011904D01*
X188202380Y-111964285D01*
X188297619Y-111964285D01*
X189202380Y-112583333D02*
X189154761Y-112488095D01*
X189059523Y-112440476D01*
X188202380Y-112440476D01*
X189202380Y-112964285D02*
X188535714Y-112964285D01*
X188202380Y-112964285D02*
X188250000Y-112916666D01*
X188297619Y-112964285D01*
X188250000Y-113011904D01*
X188202380Y-112964285D01*
X188297619Y-112964285D01*
X188535714Y-113869047D02*
X189345238Y-113869047D01*
X189440476Y-113821428D01*
X189488095Y-113773809D01*
X189535714Y-113678571D01*
X189535714Y-113535714D01*
X189488095Y-113440476D01*
X189154761Y-113869047D02*
X189202380Y-113773809D01*
X189202380Y-113583333D01*
X189154761Y-113488095D01*
X189107142Y-113440476D01*
X189011904Y-113392857D01*
X188726190Y-113392857D01*
X188630952Y-113440476D01*
X188583333Y-113488095D01*
X188535714Y-113583333D01*
X188535714Y-113773809D01*
X188583333Y-113869047D01*
X189202380Y-114345238D02*
X188202380Y-114345238D01*
X189202380Y-114773809D02*
X188678571Y-114773809D01*
X188583333Y-114726190D01*
X188535714Y-114630952D01*
X188535714Y-114488095D01*
X188583333Y-114392857D01*
X188630952Y-114345238D01*
X188535714Y-115107142D02*
X188535714Y-115488095D01*
X188202380Y-115250000D02*
X189059523Y-115250000D01*
X189154761Y-115297619D01*
X189202380Y-115392857D01*
X189202380Y-115488095D01*
X183452380Y-111654761D02*
X182452380Y-111654761D01*
X182452380Y-111892857D01*
X182500000Y-112035714D01*
X182595238Y-112130952D01*
X182690476Y-112178571D01*
X182880952Y-112226190D01*
X183023809Y-112226190D01*
X183214285Y-112178571D01*
X183309523Y-112130952D01*
X183404761Y-112035714D01*
X183452380Y-111892857D01*
X183452380Y-111654761D01*
X183452380Y-113083333D02*
X182928571Y-113083333D01*
X182833333Y-113035714D01*
X182785714Y-112940476D01*
X182785714Y-112750000D01*
X182833333Y-112654761D01*
X183404761Y-113083333D02*
X183452380Y-112988095D01*
X183452380Y-112750000D01*
X183404761Y-112654761D01*
X183309523Y-112607142D01*
X183214285Y-112607142D01*
X183119047Y-112654761D01*
X183071428Y-112750000D01*
X183071428Y-112988095D01*
X183023809Y-113083333D01*
X182785714Y-113464285D02*
X183452380Y-113702380D01*
X182785714Y-113940476D02*
X183452380Y-113702380D01*
X183690476Y-113607142D01*
X183738095Y-113559523D01*
X183785714Y-113464285D01*
X177952380Y-111916666D02*
X177952380Y-111440476D01*
X176952380Y-111440476D01*
X177904761Y-112630952D02*
X177952380Y-112535714D01*
X177952380Y-112345238D01*
X177904761Y-112250000D01*
X177809523Y-112202380D01*
X177428571Y-112202380D01*
X177333333Y-112250000D01*
X177285714Y-112345238D01*
X177285714Y-112535714D01*
X177333333Y-112630952D01*
X177428571Y-112678571D01*
X177523809Y-112678571D01*
X177619047Y-112202380D01*
X177952380Y-113535714D02*
X177428571Y-113535714D01*
X177333333Y-113488095D01*
X177285714Y-113392857D01*
X177285714Y-113202380D01*
X177333333Y-113107142D01*
X177904761Y-113535714D02*
X177952380Y-113440476D01*
X177952380Y-113202380D01*
X177904761Y-113107142D01*
X177809523Y-113059523D01*
X177714285Y-113059523D01*
X177619047Y-113107142D01*
X177571428Y-113202380D01*
X177571428Y-113440476D01*
X177523809Y-113535714D01*
X177952380Y-114011904D02*
X177285714Y-114011904D01*
X177476190Y-114011904D02*
X177380952Y-114059523D01*
X177333333Y-114107142D01*
X177285714Y-114202380D01*
X177285714Y-114297619D01*
X177285714Y-114630952D02*
X177952380Y-114630952D01*
X177380952Y-114630952D02*
X177333333Y-114678571D01*
X177285714Y-114773809D01*
X177285714Y-114916666D01*
X177333333Y-115011904D01*
X177428571Y-115059523D01*
X177952380Y-115059523D01*
D10*
X206107142Y-87857142D02*
X205821428Y-87952380D01*
X205726190Y-88047619D01*
X205630952Y-88238095D01*
X205630952Y-88523809D01*
X205726190Y-88714285D01*
X205821428Y-88809523D01*
X206011904Y-88904761D01*
X206773809Y-88904761D01*
X206773809Y-86904761D01*
X206107142Y-86904761D01*
X205916666Y-87000000D01*
X205821428Y-87095238D01*
X205726190Y-87285714D01*
X205726190Y-87476190D01*
X205821428Y-87666666D01*
X205916666Y-87761904D01*
X206107142Y-87857142D01*
X206773809Y-87857142D01*
X206726190Y-93083333D02*
X205773809Y-93083333D01*
X206916666Y-93654761D02*
X206250000Y-91654761D01*
X205583333Y-93654761D01*
X207773809Y-97000000D02*
X207964285Y-96904761D01*
X208250000Y-96904761D01*
X208535714Y-97000000D01*
X208726190Y-97190476D01*
X208821428Y-97380952D01*
X208916666Y-97761904D01*
X208916666Y-98047619D01*
X208821428Y-98428571D01*
X208726190Y-98619047D01*
X208535714Y-98809523D01*
X208250000Y-98904761D01*
X208059523Y-98904761D01*
X207773809Y-98809523D01*
X207678571Y-98714285D01*
X207678571Y-98047619D01*
X208059523Y-98047619D01*
X206821428Y-98904761D02*
X206821428Y-96904761D01*
X205678571Y-98904761D01*
X205678571Y-96904761D01*
X204726190Y-98904761D02*
X204726190Y-96904761D01*
X204250000Y-96904761D01*
X203964285Y-97000000D01*
X203773809Y-97190476D01*
X203678571Y-97380952D01*
X203583333Y-97761904D01*
X203583333Y-98047619D01*
X203678571Y-98428571D01*
X203773809Y-98619047D01*
X203964285Y-98809523D01*
X204250000Y-98904761D01*
X204726190Y-98904761D01*
X207011904Y-103142857D02*
X205488095Y-103142857D01*
X206250000Y-103904761D02*
X206250000Y-102380952D01*
D12*
%TO.C,G\u002A\u002A\u002A*%
G36*
X180076032Y-89456489D02*
G01*
X179948750Y-89458488D01*
X179845848Y-89462679D01*
X179758356Y-89469704D01*
X179677302Y-89480204D01*
X179593715Y-89494817D01*
X179538166Y-89505920D01*
X179148350Y-89607084D01*
X178777631Y-89745357D01*
X178427789Y-89919476D01*
X178100605Y-90128181D01*
X177797859Y-90370210D01*
X177521330Y-90644302D01*
X177272800Y-90949197D01*
X177072139Y-91252913D01*
X176893261Y-91593154D01*
X176754428Y-91945756D01*
X176655342Y-92311825D01*
X176595706Y-92692468D01*
X176575223Y-93088791D01*
X176575213Y-93103811D01*
X176588017Y-93451253D01*
X176627024Y-93773281D01*
X176694303Y-94079261D01*
X176791919Y-94378559D01*
X176921940Y-94680540D01*
X176924328Y-94685513D01*
X177113911Y-95032010D01*
X177335995Y-95352435D01*
X177588536Y-95645191D01*
X177869490Y-95908677D01*
X178176813Y-96141294D01*
X178508464Y-96341442D01*
X178862397Y-96507523D01*
X179236570Y-96637936D01*
X179506416Y-96706493D01*
X179643468Y-96729358D01*
X179811554Y-96746652D01*
X179999889Y-96758194D01*
X180197689Y-96763804D01*
X180394171Y-96763299D01*
X180578549Y-96756500D01*
X180740039Y-96743226D01*
X180839916Y-96728863D01*
X181235147Y-96635850D01*
X181610931Y-96505622D01*
X181965896Y-96339077D01*
X182298669Y-96137115D01*
X182607876Y-95900635D01*
X182892145Y-95630536D01*
X183150102Y-95327717D01*
X183300300Y-95117833D01*
X183458683Y-94851315D01*
X183599537Y-94555025D01*
X183718622Y-94239386D01*
X183811696Y-93914820D01*
X183838618Y-93794916D01*
X183855475Y-93708045D01*
X183867970Y-93627254D01*
X183876726Y-93543696D01*
X183882361Y-93448524D01*
X183885496Y-93332890D01*
X183886753Y-93187948D01*
X183886871Y-93107000D01*
X183886675Y-93052692D01*
X183432420Y-93052692D01*
X183417115Y-93193183D01*
X183371267Y-93306518D01*
X183296494Y-93390741D01*
X183194411Y-93443895D01*
X183093653Y-93462772D01*
X182981959Y-93459519D01*
X182891974Y-93427809D01*
X182809941Y-93362302D01*
X182795422Y-93347014D01*
X182744723Y-93277377D01*
X182712423Y-93194084D01*
X182695812Y-93087439D01*
X182692000Y-92976702D01*
X182681930Y-92780196D01*
X182653279Y-92556814D01*
X182608381Y-92316486D01*
X182549574Y-92069139D01*
X182479192Y-91824703D01*
X182399572Y-91593105D01*
X182321971Y-91403907D01*
X182248608Y-91256185D01*
X182165369Y-91114582D01*
X182076898Y-90985152D01*
X181987840Y-90873947D01*
X181902842Y-90787022D01*
X181826548Y-90730429D01*
X181793817Y-90715629D01*
X181705462Y-90706424D01*
X181623218Y-90732905D01*
X181555508Y-90788486D01*
X181510754Y-90866582D01*
X181497045Y-90947672D01*
X181502983Y-90996873D01*
X181524904Y-91045577D01*
X181568967Y-91105314D01*
X181601546Y-91143284D01*
X181743603Y-91332082D01*
X181870183Y-91557207D01*
X181980121Y-91815148D01*
X182072255Y-92102393D01*
X182145422Y-92415429D01*
X182198459Y-92750744D01*
X182225155Y-93026211D01*
X182235069Y-93150882D01*
X182245670Y-93243953D01*
X182259045Y-93316133D01*
X182277281Y-93378131D01*
X182302464Y-93440657D01*
X182308555Y-93454251D01*
X182398268Y-93605542D01*
X182516443Y-93733649D01*
X182656580Y-93834996D01*
X182812179Y-93906007D01*
X182976741Y-93943107D01*
X183143764Y-93942720D01*
X183184995Y-93936374D01*
X183253371Y-93924876D01*
X183302707Y-93918870D01*
X183320873Y-93919317D01*
X183319654Y-93944069D01*
X183304683Y-93999685D01*
X183278918Y-94078133D01*
X183245315Y-94171381D01*
X183206831Y-94271396D01*
X183166423Y-94370147D01*
X183127049Y-94459601D01*
X183104928Y-94505916D01*
X182922776Y-94826363D01*
X182709424Y-95120670D01*
X182467521Y-95386931D01*
X182199715Y-95623241D01*
X181908657Y-95827692D01*
X181596993Y-95998380D01*
X181267374Y-96133399D01*
X180922449Y-96230842D01*
X180638833Y-96280262D01*
X180565929Y-96289649D01*
X180510368Y-96296977D01*
X180485375Y-96300482D01*
X180479564Y-96281628D01*
X180474708Y-96228078D01*
X180471237Y-96147467D01*
X180469580Y-96047427D01*
X180469500Y-96018843D01*
X180469927Y-95903791D01*
X180471853Y-95824128D01*
X180476240Y-95772909D01*
X180484053Y-95743191D01*
X180496257Y-95728033D01*
X180510800Y-95721411D01*
X180561624Y-95697496D01*
X180634413Y-95653702D01*
X180718691Y-95597343D01*
X180803979Y-95535734D01*
X180879801Y-95476190D01*
X180935678Y-95426026D01*
X180939425Y-95422165D01*
X181016557Y-95322781D01*
X181062170Y-95223659D01*
X181077199Y-95130383D01*
X181062582Y-95048536D01*
X181019255Y-94983698D01*
X180948155Y-94941454D01*
X180856391Y-94927333D01*
X180798030Y-94929958D01*
X180709924Y-94937095D01*
X180604287Y-94947636D01*
X180499412Y-94959719D01*
X180379171Y-94973443D01*
X180284377Y-94980491D01*
X180198675Y-94980864D01*
X180105708Y-94974561D01*
X179989120Y-94961583D01*
X179973921Y-94959719D01*
X179799282Y-94940283D01*
X179663611Y-94929961D01*
X179564557Y-94928661D01*
X179499766Y-94936290D01*
X179486198Y-94940481D01*
X179445501Y-94975115D01*
X179411738Y-95036807D01*
X179392206Y-95110283D01*
X179390000Y-95141849D01*
X179410709Y-95248338D01*
X179471460Y-95356912D01*
X179570188Y-95465272D01*
X179704831Y-95571121D01*
X179859714Y-95664884D01*
X180003115Y-95742250D01*
X180003833Y-96297966D01*
X179903291Y-96287951D01*
X179780488Y-96271225D01*
X179634087Y-96244442D01*
X179480574Y-96211159D01*
X179336433Y-96174935D01*
X179224140Y-96141356D01*
X178896272Y-96009598D01*
X178584081Y-95841086D01*
X178291329Y-95639153D01*
X178021779Y-95407130D01*
X177779194Y-95148347D01*
X177567336Y-94866136D01*
X177389967Y-94563829D01*
X177349763Y-94481918D01*
X177308392Y-94389309D01*
X177266723Y-94287686D01*
X177227536Y-94184945D01*
X177193614Y-94088979D01*
X177167737Y-94007683D01*
X177152689Y-93948952D01*
X177151251Y-93920681D01*
X177151766Y-93920011D01*
X177176036Y-93918768D01*
X177228266Y-93925755D01*
X177273047Y-93934416D01*
X177431341Y-93947721D01*
X177594024Y-93924298D01*
X177752644Y-93867759D01*
X177898750Y-93781712D01*
X178023888Y-93669768D01*
X178089401Y-93585704D01*
X178140374Y-93500790D01*
X178178702Y-93414894D01*
X178206805Y-93318754D01*
X178227105Y-93203109D01*
X178242023Y-93058696D01*
X178247748Y-92980000D01*
X178277129Y-92689597D01*
X178325557Y-92403587D01*
X178391133Y-92127690D01*
X178471956Y-91867625D01*
X178566128Y-91629114D01*
X178671747Y-91417878D01*
X178786915Y-91239637D01*
X178852575Y-91158931D01*
X178910852Y-91090968D01*
X178945233Y-91041237D01*
X178961788Y-90998064D01*
X178966584Y-90949776D01*
X178966666Y-90939471D01*
X178948857Y-90840430D01*
X178896935Y-90765165D01*
X178813158Y-90716909D01*
X178810634Y-90716063D01*
X178737481Y-90704536D01*
X178665571Y-90722380D01*
X178587148Y-90772628D01*
X178525448Y-90827521D01*
X178397498Y-90973779D01*
X178276108Y-91157331D01*
X178163109Y-91373400D01*
X178060330Y-91617214D01*
X177969600Y-91883995D01*
X177892749Y-92168970D01*
X177831607Y-92467364D01*
X177791584Y-92742910D01*
X177779287Y-92856706D01*
X177769247Y-92966133D01*
X177762522Y-93058506D01*
X177760166Y-93119615D01*
X177741682Y-93236332D01*
X177685352Y-93335976D01*
X177590329Y-93420558D01*
X177502628Y-93457217D01*
X177397986Y-93466874D01*
X177291371Y-93450344D01*
X177197753Y-93408442D01*
X177183603Y-93398395D01*
X177125205Y-93347264D01*
X177084309Y-93292121D01*
X177058660Y-93224969D01*
X177046008Y-93137813D01*
X177044101Y-93022659D01*
X177048139Y-92917474D01*
X177087365Y-92561246D01*
X177166683Y-92214601D01*
X177284363Y-91880561D01*
X177438675Y-91562148D01*
X177627889Y-91262385D01*
X177850276Y-90984293D01*
X178104106Y-90730894D01*
X178387649Y-90505211D01*
X178455845Y-90458238D01*
X178591170Y-90369654D01*
X178706092Y-90300152D01*
X178813643Y-90242847D01*
X178926852Y-90190855D01*
X179058750Y-90137288D01*
X179075644Y-90130740D01*
X179423775Y-90018456D01*
X179778662Y-89946912D01*
X180136946Y-89915938D01*
X180495270Y-89925364D01*
X180850276Y-89975018D01*
X181198606Y-90064730D01*
X181536902Y-90194329D01*
X181680188Y-90263166D01*
X181999213Y-90449551D01*
X182290976Y-90667599D01*
X182553884Y-90915312D01*
X182786346Y-91190692D01*
X182986770Y-91491740D01*
X183153565Y-91816459D01*
X183285138Y-92162850D01*
X183337176Y-92343382D01*
X183361612Y-92454228D01*
X183385175Y-92590031D01*
X183405900Y-92736164D01*
X183421824Y-92877998D01*
X183430983Y-93000906D01*
X183432420Y-93052692D01*
X183886675Y-93052692D01*
X183886286Y-92945258D01*
X183884119Y-92816994D01*
X183879747Y-92713364D01*
X183872551Y-92625524D01*
X183861908Y-92544630D01*
X183847198Y-92461837D01*
X183838563Y-92419083D01*
X183738148Y-92034525D01*
X183600955Y-91667235D01*
X183428824Y-91319594D01*
X183223595Y-90993985D01*
X182987109Y-90692788D01*
X182721204Y-90418387D01*
X182427723Y-90173163D01*
X182108503Y-89959498D01*
X181819071Y-89804840D01*
X181510492Y-89674842D01*
X181182204Y-89568017D01*
X180924583Y-89504873D01*
X180837814Y-89487925D01*
X180757199Y-89475349D01*
X180673897Y-89466518D01*
X180579065Y-89460805D01*
X180463862Y-89457581D01*
X180319446Y-89456220D01*
X180236666Y-89456043D01*
X180076032Y-89456489D01*
G37*
X180076032Y-89456489D02*
X179948750Y-89458488D01*
X179845848Y-89462679D01*
X179758356Y-89469704D01*
X179677302Y-89480204D01*
X179593715Y-89494817D01*
X179538166Y-89505920D01*
X179148350Y-89607084D01*
X178777631Y-89745357D01*
X178427789Y-89919476D01*
X178100605Y-90128181D01*
X177797859Y-90370210D01*
X177521330Y-90644302D01*
X177272800Y-90949197D01*
X177072139Y-91252913D01*
X176893261Y-91593154D01*
X176754428Y-91945756D01*
X176655342Y-92311825D01*
X176595706Y-92692468D01*
X176575223Y-93088791D01*
X176575213Y-93103811D01*
X176588017Y-93451253D01*
X176627024Y-93773281D01*
X176694303Y-94079261D01*
X176791919Y-94378559D01*
X176921940Y-94680540D01*
X176924328Y-94685513D01*
X177113911Y-95032010D01*
X177335995Y-95352435D01*
X177588536Y-95645191D01*
X177869490Y-95908677D01*
X178176813Y-96141294D01*
X178508464Y-96341442D01*
X178862397Y-96507523D01*
X179236570Y-96637936D01*
X179506416Y-96706493D01*
X179643468Y-96729358D01*
X179811554Y-96746652D01*
X179999889Y-96758194D01*
X180197689Y-96763804D01*
X180394171Y-96763299D01*
X180578549Y-96756500D01*
X180740039Y-96743226D01*
X180839916Y-96728863D01*
X181235147Y-96635850D01*
X181610931Y-96505622D01*
X181965896Y-96339077D01*
X182298669Y-96137115D01*
X182607876Y-95900635D01*
X182892145Y-95630536D01*
X183150102Y-95327717D01*
X183300300Y-95117833D01*
X183458683Y-94851315D01*
X183599537Y-94555025D01*
X183718622Y-94239386D01*
X183811696Y-93914820D01*
X183838618Y-93794916D01*
X183855475Y-93708045D01*
X183867970Y-93627254D01*
X183876726Y-93543696D01*
X183882361Y-93448524D01*
X183885496Y-93332890D01*
X183886753Y-93187948D01*
X183886871Y-93107000D01*
X183886675Y-93052692D01*
X183432420Y-93052692D01*
X183417115Y-93193183D01*
X183371267Y-93306518D01*
X183296494Y-93390741D01*
X183194411Y-93443895D01*
X183093653Y-93462772D01*
X182981959Y-93459519D01*
X182891974Y-93427809D01*
X182809941Y-93362302D01*
X182795422Y-93347014D01*
X182744723Y-93277377D01*
X182712423Y-93194084D01*
X182695812Y-93087439D01*
X182692000Y-92976702D01*
X182681930Y-92780196D01*
X182653279Y-92556814D01*
X182608381Y-92316486D01*
X182549574Y-92069139D01*
X182479192Y-91824703D01*
X182399572Y-91593105D01*
X182321971Y-91403907D01*
X182248608Y-91256185D01*
X182165369Y-91114582D01*
X182076898Y-90985152D01*
X181987840Y-90873947D01*
X181902842Y-90787022D01*
X181826548Y-90730429D01*
X181793817Y-90715629D01*
X181705462Y-90706424D01*
X181623218Y-90732905D01*
X181555508Y-90788486D01*
X181510754Y-90866582D01*
X181497045Y-90947672D01*
X181502983Y-90996873D01*
X181524904Y-91045577D01*
X181568967Y-91105314D01*
X181601546Y-91143284D01*
X181743603Y-91332082D01*
X181870183Y-91557207D01*
X181980121Y-91815148D01*
X182072255Y-92102393D01*
X182145422Y-92415429D01*
X182198459Y-92750744D01*
X182225155Y-93026211D01*
X182235069Y-93150882D01*
X182245670Y-93243953D01*
X182259045Y-93316133D01*
X182277281Y-93378131D01*
X182302464Y-93440657D01*
X182308555Y-93454251D01*
X182398268Y-93605542D01*
X182516443Y-93733649D01*
X182656580Y-93834996D01*
X182812179Y-93906007D01*
X182976741Y-93943107D01*
X183143764Y-93942720D01*
X183184995Y-93936374D01*
X183253371Y-93924876D01*
X183302707Y-93918870D01*
X183320873Y-93919317D01*
X183319654Y-93944069D01*
X183304683Y-93999685D01*
X183278918Y-94078133D01*
X183245315Y-94171381D01*
X183206831Y-94271396D01*
X183166423Y-94370147D01*
X183127049Y-94459601D01*
X183104928Y-94505916D01*
X182922776Y-94826363D01*
X182709424Y-95120670D01*
X182467521Y-95386931D01*
X182199715Y-95623241D01*
X181908657Y-95827692D01*
X181596993Y-95998380D01*
X181267374Y-96133399D01*
X180922449Y-96230842D01*
X180638833Y-96280262D01*
X180565929Y-96289649D01*
X180510368Y-96296977D01*
X180485375Y-96300482D01*
X180479564Y-96281628D01*
X180474708Y-96228078D01*
X180471237Y-96147467D01*
X180469580Y-96047427D01*
X180469500Y-96018843D01*
X180469927Y-95903791D01*
X180471853Y-95824128D01*
X180476240Y-95772909D01*
X180484053Y-95743191D01*
X180496257Y-95728033D01*
X180510800Y-95721411D01*
X180561624Y-95697496D01*
X180634413Y-95653702D01*
X180718691Y-95597343D01*
X180803979Y-95535734D01*
X180879801Y-95476190D01*
X180935678Y-95426026D01*
X180939425Y-95422165D01*
X181016557Y-95322781D01*
X181062170Y-95223659D01*
X181077199Y-95130383D01*
X181062582Y-95048536D01*
X181019255Y-94983698D01*
X180948155Y-94941454D01*
X180856391Y-94927333D01*
X180798030Y-94929958D01*
X180709924Y-94937095D01*
X180604287Y-94947636D01*
X180499412Y-94959719D01*
X180379171Y-94973443D01*
X180284377Y-94980491D01*
X180198675Y-94980864D01*
X180105708Y-94974561D01*
X179989120Y-94961583D01*
X179973921Y-94959719D01*
X179799282Y-94940283D01*
X179663611Y-94929961D01*
X179564557Y-94928661D01*
X179499766Y-94936290D01*
X179486198Y-94940481D01*
X179445501Y-94975115D01*
X179411738Y-95036807D01*
X179392206Y-95110283D01*
X179390000Y-95141849D01*
X179410709Y-95248338D01*
X179471460Y-95356912D01*
X179570188Y-95465272D01*
X179704831Y-95571121D01*
X179859714Y-95664884D01*
X180003115Y-95742250D01*
X180003833Y-96297966D01*
X179903291Y-96287951D01*
X179780488Y-96271225D01*
X179634087Y-96244442D01*
X179480574Y-96211159D01*
X179336433Y-96174935D01*
X179224140Y-96141356D01*
X178896272Y-96009598D01*
X178584081Y-95841086D01*
X178291329Y-95639153D01*
X178021779Y-95407130D01*
X177779194Y-95148347D01*
X177567336Y-94866136D01*
X177389967Y-94563829D01*
X177349763Y-94481918D01*
X177308392Y-94389309D01*
X177266723Y-94287686D01*
X177227536Y-94184945D01*
X177193614Y-94088979D01*
X177167737Y-94007683D01*
X177152689Y-93948952D01*
X177151251Y-93920681D01*
X177151766Y-93920011D01*
X177176036Y-93918768D01*
X177228266Y-93925755D01*
X177273047Y-93934416D01*
X177431341Y-93947721D01*
X177594024Y-93924298D01*
X177752644Y-93867759D01*
X177898750Y-93781712D01*
X178023888Y-93669768D01*
X178089401Y-93585704D01*
X178140374Y-93500790D01*
X178178702Y-93414894D01*
X178206805Y-93318754D01*
X178227105Y-93203109D01*
X178242023Y-93058696D01*
X178247748Y-92980000D01*
X178277129Y-92689597D01*
X178325557Y-92403587D01*
X178391133Y-92127690D01*
X178471956Y-91867625D01*
X178566128Y-91629114D01*
X178671747Y-91417878D01*
X178786915Y-91239637D01*
X178852575Y-91158931D01*
X178910852Y-91090968D01*
X178945233Y-91041237D01*
X178961788Y-90998064D01*
X178966584Y-90949776D01*
X178966666Y-90939471D01*
X178948857Y-90840430D01*
X178896935Y-90765165D01*
X178813158Y-90716909D01*
X178810634Y-90716063D01*
X178737481Y-90704536D01*
X178665571Y-90722380D01*
X178587148Y-90772628D01*
X178525448Y-90827521D01*
X178397498Y-90973779D01*
X178276108Y-91157331D01*
X178163109Y-91373400D01*
X178060330Y-91617214D01*
X177969600Y-91883995D01*
X177892749Y-92168970D01*
X177831607Y-92467364D01*
X177791584Y-92742910D01*
X177779287Y-92856706D01*
X177769247Y-92966133D01*
X177762522Y-93058506D01*
X177760166Y-93119615D01*
X177741682Y-93236332D01*
X177685352Y-93335976D01*
X177590329Y-93420558D01*
X177502628Y-93457217D01*
X177397986Y-93466874D01*
X177291371Y-93450344D01*
X177197753Y-93408442D01*
X177183603Y-93398395D01*
X177125205Y-93347264D01*
X177084309Y-93292121D01*
X177058660Y-93224969D01*
X177046008Y-93137813D01*
X177044101Y-93022659D01*
X177048139Y-92917474D01*
X177087365Y-92561246D01*
X177166683Y-92214601D01*
X177284363Y-91880561D01*
X177438675Y-91562148D01*
X177627889Y-91262385D01*
X177850276Y-90984293D01*
X178104106Y-90730894D01*
X178387649Y-90505211D01*
X178455845Y-90458238D01*
X178591170Y-90369654D01*
X178706092Y-90300152D01*
X178813643Y-90242847D01*
X178926852Y-90190855D01*
X179058750Y-90137288D01*
X179075644Y-90130740D01*
X179423775Y-90018456D01*
X179778662Y-89946912D01*
X180136946Y-89915938D01*
X180495270Y-89925364D01*
X180850276Y-89975018D01*
X181198606Y-90064730D01*
X181536902Y-90194329D01*
X181680188Y-90263166D01*
X181999213Y-90449551D01*
X182290976Y-90667599D01*
X182553884Y-90915312D01*
X182786346Y-91190692D01*
X182986770Y-91491740D01*
X183153565Y-91816459D01*
X183285138Y-92162850D01*
X183337176Y-92343382D01*
X183361612Y-92454228D01*
X183385175Y-92590031D01*
X183405900Y-92736164D01*
X183421824Y-92877998D01*
X183430983Y-93000906D01*
X183432420Y-93052692D01*
X183886675Y-93052692D01*
X183886286Y-92945258D01*
X183884119Y-92816994D01*
X183879747Y-92713364D01*
X183872551Y-92625524D01*
X183861908Y-92544630D01*
X183847198Y-92461837D01*
X183838563Y-92419083D01*
X183738148Y-92034525D01*
X183600955Y-91667235D01*
X183428824Y-91319594D01*
X183223595Y-90993985D01*
X182987109Y-90692788D01*
X182721204Y-90418387D01*
X182427723Y-90173163D01*
X182108503Y-89959498D01*
X181819071Y-89804840D01*
X181510492Y-89674842D01*
X181182204Y-89568017D01*
X180924583Y-89504873D01*
X180837814Y-89487925D01*
X180757199Y-89475349D01*
X180673897Y-89466518D01*
X180579065Y-89460805D01*
X180463862Y-89457581D01*
X180319446Y-89456220D01*
X180236666Y-89456043D01*
X180076032Y-89456489D01*
G36*
X171666539Y-92792078D02*
G01*
X171574233Y-92826128D01*
X171489415Y-92890804D01*
X171448276Y-92933415D01*
X171375578Y-93034697D01*
X171327526Y-93153538D01*
X171301997Y-93297100D01*
X171296435Y-93445666D01*
X171304481Y-93596089D01*
X171327752Y-93718499D01*
X171369705Y-93825548D01*
X171425424Y-93917963D01*
X171512986Y-94011736D01*
X171623309Y-94080498D01*
X171747047Y-94122164D01*
X171874851Y-94134649D01*
X171997374Y-94115866D01*
X172098838Y-94068204D01*
X172172166Y-94018442D01*
X172172166Y-94546333D01*
X172489666Y-94546333D01*
X172489666Y-93174885D01*
X172172166Y-93174885D01*
X172172166Y-93476328D01*
X172171629Y-93596912D01*
X172169443Y-93682412D01*
X172164751Y-93740071D01*
X172156692Y-93777132D01*
X172144407Y-93800837D01*
X172132108Y-93814025D01*
X172053128Y-93859765D01*
X171955324Y-93879805D01*
X171854202Y-93873215D01*
X171765269Y-93839063D01*
X171760931Y-93836295D01*
X171701034Y-93775042D01*
X171660334Y-93681203D01*
X171638161Y-93552614D01*
X171633302Y-93424886D01*
X171636387Y-93312532D01*
X171645425Y-93232274D01*
X171661831Y-93174120D01*
X171671749Y-93152957D01*
X171731208Y-93082151D01*
X171812353Y-93041105D01*
X171905896Y-93030722D01*
X172002552Y-93051906D01*
X172093032Y-93105559D01*
X172099795Y-93111342D01*
X172172166Y-93174885D01*
X172489666Y-93174885D01*
X172489666Y-92808646D01*
X172358640Y-92814948D01*
X172286595Y-92819500D01*
X172245661Y-92828161D01*
X172224645Y-92846614D01*
X172212356Y-92880542D01*
X172209735Y-92890555D01*
X172191856Y-92959861D01*
X172123803Y-92908929D01*
X172018492Y-92839494D01*
X171922321Y-92799422D01*
X171820412Y-92783219D01*
X171780583Y-92782170D01*
X171666539Y-92792078D01*
G37*
X171666539Y-92792078D02*
X171574233Y-92826128D01*
X171489415Y-92890804D01*
X171448276Y-92933415D01*
X171375578Y-93034697D01*
X171327526Y-93153538D01*
X171301997Y-93297100D01*
X171296435Y-93445666D01*
X171304481Y-93596089D01*
X171327752Y-93718499D01*
X171369705Y-93825548D01*
X171425424Y-93917963D01*
X171512986Y-94011736D01*
X171623309Y-94080498D01*
X171747047Y-94122164D01*
X171874851Y-94134649D01*
X171997374Y-94115866D01*
X172098838Y-94068204D01*
X172172166Y-94018442D01*
X172172166Y-94546333D01*
X172489666Y-94546333D01*
X172489666Y-93174885D01*
X172172166Y-93174885D01*
X172172166Y-93476328D01*
X172171629Y-93596912D01*
X172169443Y-93682412D01*
X172164751Y-93740071D01*
X172156692Y-93777132D01*
X172144407Y-93800837D01*
X172132108Y-93814025D01*
X172053128Y-93859765D01*
X171955324Y-93879805D01*
X171854202Y-93873215D01*
X171765269Y-93839063D01*
X171760931Y-93836295D01*
X171701034Y-93775042D01*
X171660334Y-93681203D01*
X171638161Y-93552614D01*
X171633302Y-93424886D01*
X171636387Y-93312532D01*
X171645425Y-93232274D01*
X171661831Y-93174120D01*
X171671749Y-93152957D01*
X171731208Y-93082151D01*
X171812353Y-93041105D01*
X171905896Y-93030722D01*
X172002552Y-93051906D01*
X172093032Y-93105559D01*
X172099795Y-93111342D01*
X172172166Y-93174885D01*
X172489666Y-93174885D01*
X172489666Y-92808646D01*
X172358640Y-92814948D01*
X172286595Y-92819500D01*
X172245661Y-92828161D01*
X172224645Y-92846614D01*
X172212356Y-92880542D01*
X172209735Y-92890555D01*
X172191856Y-92959861D01*
X172123803Y-92908929D01*
X172018492Y-92839494D01*
X171922321Y-92799422D01*
X171820412Y-92783219D01*
X171780583Y-92782170D01*
X171666539Y-92792078D01*
G36*
X170227206Y-92792078D02*
G01*
X170134900Y-92826128D01*
X170050081Y-92890804D01*
X170008942Y-92933415D01*
X169936244Y-93034697D01*
X169888193Y-93153538D01*
X169862663Y-93297100D01*
X169857102Y-93445666D01*
X169865147Y-93596089D01*
X169888419Y-93718499D01*
X169930372Y-93825548D01*
X169986090Y-93917963D01*
X170073652Y-94011736D01*
X170183976Y-94080498D01*
X170307714Y-94122164D01*
X170435518Y-94134649D01*
X170558040Y-94115866D01*
X170659504Y-94068204D01*
X170732833Y-94018442D01*
X170732833Y-94546333D01*
X171050333Y-94546333D01*
X171050333Y-93174885D01*
X170732833Y-93174885D01*
X170732833Y-93476328D01*
X170732296Y-93596912D01*
X170730110Y-93682412D01*
X170725417Y-93740071D01*
X170717358Y-93777132D01*
X170705074Y-93800837D01*
X170692774Y-93814025D01*
X170613794Y-93859765D01*
X170515991Y-93879805D01*
X170414869Y-93873215D01*
X170325936Y-93839063D01*
X170321598Y-93836295D01*
X170261701Y-93775042D01*
X170221001Y-93681203D01*
X170198828Y-93552614D01*
X170193968Y-93424886D01*
X170197053Y-93312532D01*
X170206092Y-93232274D01*
X170222498Y-93174120D01*
X170232416Y-93152957D01*
X170291874Y-93082151D01*
X170373019Y-93041105D01*
X170466563Y-93030722D01*
X170563219Y-93051906D01*
X170653699Y-93105559D01*
X170660462Y-93111342D01*
X170732833Y-93174885D01*
X171050333Y-93174885D01*
X171050333Y-92808646D01*
X170919307Y-92814948D01*
X170847262Y-92819500D01*
X170806328Y-92828161D01*
X170785312Y-92846614D01*
X170773022Y-92880542D01*
X170770402Y-92890555D01*
X170752523Y-92959861D01*
X170684470Y-92908929D01*
X170579158Y-92839494D01*
X170482988Y-92799422D01*
X170381079Y-92783219D01*
X170341250Y-92782170D01*
X170227206Y-92792078D01*
G37*
X170227206Y-92792078D02*
X170134900Y-92826128D01*
X170050081Y-92890804D01*
X170008942Y-92933415D01*
X169936244Y-93034697D01*
X169888193Y-93153538D01*
X169862663Y-93297100D01*
X169857102Y-93445666D01*
X169865147Y-93596089D01*
X169888419Y-93718499D01*
X169930372Y-93825548D01*
X169986090Y-93917963D01*
X170073652Y-94011736D01*
X170183976Y-94080498D01*
X170307714Y-94122164D01*
X170435518Y-94134649D01*
X170558040Y-94115866D01*
X170659504Y-94068204D01*
X170732833Y-94018442D01*
X170732833Y-94546333D01*
X171050333Y-94546333D01*
X171050333Y-93174885D01*
X170732833Y-93174885D01*
X170732833Y-93476328D01*
X170732296Y-93596912D01*
X170730110Y-93682412D01*
X170725417Y-93740071D01*
X170717358Y-93777132D01*
X170705074Y-93800837D01*
X170692774Y-93814025D01*
X170613794Y-93859765D01*
X170515991Y-93879805D01*
X170414869Y-93873215D01*
X170325936Y-93839063D01*
X170321598Y-93836295D01*
X170261701Y-93775042D01*
X170221001Y-93681203D01*
X170198828Y-93552614D01*
X170193968Y-93424886D01*
X170197053Y-93312532D01*
X170206092Y-93232274D01*
X170222498Y-93174120D01*
X170232416Y-93152957D01*
X170291874Y-93082151D01*
X170373019Y-93041105D01*
X170466563Y-93030722D01*
X170563219Y-93051906D01*
X170653699Y-93105559D01*
X170660462Y-93111342D01*
X170732833Y-93174885D01*
X171050333Y-93174885D01*
X171050333Y-92808646D01*
X170919307Y-92814948D01*
X170847262Y-92819500D01*
X170806328Y-92828161D01*
X170785312Y-92846614D01*
X170773022Y-92880542D01*
X170770402Y-92890555D01*
X170752523Y-92959861D01*
X170684470Y-92908929D01*
X170579158Y-92839494D01*
X170482988Y-92799422D01*
X170381079Y-92783219D01*
X170341250Y-92782170D01*
X170227206Y-92792078D01*
G36*
X168526938Y-92811623D02*
G01*
X168493230Y-92818552D01*
X168489166Y-92823368D01*
X168497234Y-92846452D01*
X168520042Y-92903476D01*
X168555496Y-92989538D01*
X168601501Y-93099735D01*
X168655963Y-93229164D01*
X168716789Y-93372924D01*
X168781884Y-93526112D01*
X168849153Y-93683826D01*
X168916504Y-93841163D01*
X168981841Y-93993221D01*
X169043071Y-94135097D01*
X169098099Y-94261889D01*
X169144832Y-94368695D01*
X169181174Y-94450613D01*
X169205033Y-94502739D01*
X169213860Y-94519875D01*
X169248857Y-94535557D01*
X169319512Y-94544545D01*
X169383023Y-94546333D01*
X169464028Y-94544231D01*
X169508318Y-94537225D01*
X169521335Y-94524266D01*
X169520301Y-94519875D01*
X169507609Y-94491216D01*
X169480857Y-94432745D01*
X169443967Y-94352976D01*
X169400869Y-94260448D01*
X169291999Y-94027479D01*
X169555666Y-93419073D01*
X169819333Y-92810666D01*
X169654258Y-92810666D01*
X169554277Y-92814339D01*
X169490105Y-92825029D01*
X169467759Y-92837125D01*
X169453666Y-92864149D01*
X169426779Y-92924197D01*
X169389806Y-93010897D01*
X169345453Y-93117879D01*
X169296429Y-93238773D01*
X169286132Y-93264485D01*
X169237671Y-93383091D01*
X169194040Y-93484834D01*
X169157680Y-93564429D01*
X169131032Y-93616593D01*
X169116538Y-93636041D01*
X169114989Y-93634902D01*
X169078298Y-93534461D01*
X169035742Y-93420851D01*
X168990028Y-93300981D01*
X168943865Y-93181760D01*
X168899963Y-93070096D01*
X168861030Y-92972900D01*
X168829773Y-92897080D01*
X168808903Y-92849545D01*
X168802221Y-92837125D01*
X168774667Y-92825838D01*
X168720841Y-92817094D01*
X168653263Y-92811444D01*
X168584456Y-92809437D01*
X168526938Y-92811623D01*
G37*
X168526938Y-92811623D02*
X168493230Y-92818552D01*
X168489166Y-92823368D01*
X168497234Y-92846452D01*
X168520042Y-92903476D01*
X168555496Y-92989538D01*
X168601501Y-93099735D01*
X168655963Y-93229164D01*
X168716789Y-93372924D01*
X168781884Y-93526112D01*
X168849153Y-93683826D01*
X168916504Y-93841163D01*
X168981841Y-93993221D01*
X169043071Y-94135097D01*
X169098099Y-94261889D01*
X169144832Y-94368695D01*
X169181174Y-94450613D01*
X169205033Y-94502739D01*
X169213860Y-94519875D01*
X169248857Y-94535557D01*
X169319512Y-94544545D01*
X169383023Y-94546333D01*
X169464028Y-94544231D01*
X169508318Y-94537225D01*
X169521335Y-94524266D01*
X169520301Y-94519875D01*
X169507609Y-94491216D01*
X169480857Y-94432745D01*
X169443967Y-94352976D01*
X169400869Y-94260448D01*
X169291999Y-94027479D01*
X169555666Y-93419073D01*
X169819333Y-92810666D01*
X169654258Y-92810666D01*
X169554277Y-92814339D01*
X169490105Y-92825029D01*
X169467759Y-92837125D01*
X169453666Y-92864149D01*
X169426779Y-92924197D01*
X169389806Y-93010897D01*
X169345453Y-93117879D01*
X169296429Y-93238773D01*
X169286132Y-93264485D01*
X169237671Y-93383091D01*
X169194040Y-93484834D01*
X169157680Y-93564429D01*
X169131032Y-93616593D01*
X169116538Y-93636041D01*
X169114989Y-93634902D01*
X169078298Y-93534461D01*
X169035742Y-93420851D01*
X168990028Y-93300981D01*
X168943865Y-93181760D01*
X168899963Y-93070096D01*
X168861030Y-92972900D01*
X168829773Y-92897080D01*
X168808903Y-92849545D01*
X168802221Y-92837125D01*
X168774667Y-92825838D01*
X168720841Y-92817094D01*
X168653263Y-92811444D01*
X168584456Y-92809437D01*
X168526938Y-92811623D01*
G36*
X173632666Y-93277724D02*
G01*
X173632144Y-93441754D01*
X173630054Y-93568993D01*
X173625613Y-93664978D01*
X173618039Y-93735243D01*
X173606546Y-93785324D01*
X173590353Y-93820758D01*
X173568676Y-93847079D01*
X173549834Y-93863035D01*
X173489604Y-93886331D01*
X173407554Y-93888547D01*
X173317851Y-93870895D01*
X173237651Y-93836357D01*
X173145833Y-93782548D01*
X173145833Y-92810666D01*
X172807166Y-92810666D01*
X172807166Y-94123000D01*
X172929933Y-94123000D01*
X173020863Y-94116625D01*
X173076199Y-94095782D01*
X173100977Y-94057892D01*
X173103500Y-94034100D01*
X173111650Y-94002113D01*
X173138740Y-94002105D01*
X173188732Y-94034282D01*
X173194658Y-94038896D01*
X173293683Y-94096431D01*
X173410213Y-94132761D01*
X173530910Y-94146013D01*
X173642442Y-94134310D01*
X173706750Y-94110880D01*
X173812448Y-94037661D01*
X173890171Y-93939016D01*
X173915593Y-93890166D01*
X173929971Y-93856015D01*
X173941069Y-93819059D01*
X173949432Y-93773159D01*
X173955603Y-93712171D01*
X173960126Y-93629954D01*
X173963545Y-93520367D01*
X173966404Y-93377267D01*
X173967614Y-93302791D01*
X173975294Y-92810666D01*
X173632666Y-92810666D01*
X173632666Y-93277724D01*
G37*
X173632666Y-93277724D02*
X173632144Y-93441754D01*
X173630054Y-93568993D01*
X173625613Y-93664978D01*
X173618039Y-93735243D01*
X173606546Y-93785324D01*
X173590353Y-93820758D01*
X173568676Y-93847079D01*
X173549834Y-93863035D01*
X173489604Y-93886331D01*
X173407554Y-93888547D01*
X173317851Y-93870895D01*
X173237651Y-93836357D01*
X173145833Y-93782548D01*
X173145833Y-92810666D01*
X172807166Y-92810666D01*
X172807166Y-94123000D01*
X172929933Y-94123000D01*
X173020863Y-94116625D01*
X173076199Y-94095782D01*
X173100977Y-94057892D01*
X173103500Y-94034100D01*
X173111650Y-94002113D01*
X173138740Y-94002105D01*
X173188732Y-94034282D01*
X173194658Y-94038896D01*
X173293683Y-94096431D01*
X173410213Y-94132761D01*
X173530910Y-94146013D01*
X173642442Y-94134310D01*
X173706750Y-94110880D01*
X173812448Y-94037661D01*
X173890171Y-93939016D01*
X173915593Y-93890166D01*
X173929971Y-93856015D01*
X173941069Y-93819059D01*
X173949432Y-93773159D01*
X173955603Y-93712171D01*
X173960126Y-93629954D01*
X173963545Y-93520367D01*
X173966404Y-93377267D01*
X173967614Y-93302791D01*
X173975294Y-92810666D01*
X173632666Y-92810666D01*
X173632666Y-93277724D01*
G36*
X164970296Y-92804477D02*
G01*
X164896292Y-92823587D01*
X164828043Y-92856723D01*
X164812400Y-92866152D01*
X164700141Y-92959494D01*
X164617703Y-93079376D01*
X164568038Y-93219626D01*
X164554094Y-93374073D01*
X164555637Y-93403333D01*
X164562750Y-93498583D01*
X165425268Y-93510059D01*
X165411110Y-93598594D01*
X165374204Y-93714540D01*
X165308279Y-93803652D01*
X165218840Y-93863596D01*
X165111392Y-93892035D01*
X164991441Y-93886634D01*
X164864493Y-93845059D01*
X164848500Y-93837250D01*
X164773816Y-93801928D01*
X164723182Y-93788509D01*
X164684045Y-93797631D01*
X164643850Y-93829935D01*
X164625512Y-93848603D01*
X164588021Y-93897056D01*
X164582150Y-93938109D01*
X164610231Y-93979765D01*
X164674594Y-94030030D01*
X164679282Y-94033237D01*
X164788504Y-94087830D01*
X164922224Y-94125014D01*
X165065582Y-94142886D01*
X165203717Y-94139541D01*
X165316658Y-94114944D01*
X165463550Y-94043627D01*
X165578503Y-93945659D01*
X165662009Y-93820246D01*
X165714563Y-93666593D01*
X165736658Y-93483904D01*
X165737483Y-93436533D01*
X165734789Y-93338371D01*
X165731997Y-93318666D01*
X165422853Y-93318666D01*
X164848500Y-93318666D01*
X164848500Y-93263724D01*
X164867824Y-93176196D01*
X164920108Y-93103566D01*
X164996818Y-93052340D01*
X165089421Y-93029025D01*
X165152824Y-93031712D01*
X165253184Y-93060267D01*
X165326808Y-93113197D01*
X165380579Y-93196953D01*
X165408161Y-93271041D01*
X165422853Y-93318666D01*
X165731997Y-93318666D01*
X165724231Y-93263873D01*
X165702060Y-93194570D01*
X165676804Y-93137522D01*
X165591035Y-92999237D01*
X165481422Y-92895837D01*
X165348677Y-92827724D01*
X165193513Y-92795299D01*
X165068258Y-92794280D01*
X164970296Y-92804477D01*
G37*
X164970296Y-92804477D02*
X164896292Y-92823587D01*
X164828043Y-92856723D01*
X164812400Y-92866152D01*
X164700141Y-92959494D01*
X164617703Y-93079376D01*
X164568038Y-93219626D01*
X164554094Y-93374073D01*
X164555637Y-93403333D01*
X164562750Y-93498583D01*
X165425268Y-93510059D01*
X165411110Y-93598594D01*
X165374204Y-93714540D01*
X165308279Y-93803652D01*
X165218840Y-93863596D01*
X165111392Y-93892035D01*
X164991441Y-93886634D01*
X164864493Y-93845059D01*
X164848500Y-93837250D01*
X164773816Y-93801928D01*
X164723182Y-93788509D01*
X164684045Y-93797631D01*
X164643850Y-93829935D01*
X164625512Y-93848603D01*
X164588021Y-93897056D01*
X164582150Y-93938109D01*
X164610231Y-93979765D01*
X164674594Y-94030030D01*
X164679282Y-94033237D01*
X164788504Y-94087830D01*
X164922224Y-94125014D01*
X165065582Y-94142886D01*
X165203717Y-94139541D01*
X165316658Y-94114944D01*
X165463550Y-94043627D01*
X165578503Y-93945659D01*
X165662009Y-93820246D01*
X165714563Y-93666593D01*
X165736658Y-93483904D01*
X165737483Y-93436533D01*
X165734789Y-93338371D01*
X165731997Y-93318666D01*
X165422853Y-93318666D01*
X164848500Y-93318666D01*
X164848500Y-93263724D01*
X164867824Y-93176196D01*
X164920108Y-93103566D01*
X164996818Y-93052340D01*
X165089421Y-93029025D01*
X165152824Y-93031712D01*
X165253184Y-93060267D01*
X165326808Y-93113197D01*
X165380579Y-93196953D01*
X165408161Y-93271041D01*
X165422853Y-93318666D01*
X165731997Y-93318666D01*
X165724231Y-93263873D01*
X165702060Y-93194570D01*
X165676804Y-93137522D01*
X165591035Y-92999237D01*
X165481422Y-92895837D01*
X165348677Y-92827724D01*
X165193513Y-92795299D01*
X165068258Y-92794280D01*
X164970296Y-92804477D01*
G36*
X163599002Y-92805900D02*
G01*
X163459742Y-92853706D01*
X163365721Y-92914440D01*
X163293984Y-92974329D01*
X163352652Y-93051248D01*
X163397787Y-93102744D01*
X163439032Y-93123733D01*
X163489586Y-93116446D01*
X163557333Y-93085833D01*
X163640349Y-93056579D01*
X163730425Y-93043593D01*
X163737458Y-93043500D01*
X163850453Y-93058371D01*
X163937508Y-93103896D01*
X163999645Y-93181444D01*
X164037884Y-93292382D01*
X164053249Y-93438078D01*
X164053661Y-93466833D01*
X164051900Y-93563989D01*
X164044238Y-93632698D01*
X164028157Y-93686709D01*
X164004857Y-93733323D01*
X163938213Y-93820645D01*
X163855306Y-93871403D01*
X163748630Y-93889905D01*
X163731646Y-93890166D01*
X163637642Y-93879623D01*
X163558231Y-93843496D01*
X163548764Y-93837250D01*
X163476735Y-93796583D01*
X163421785Y-93789202D01*
X163373666Y-93816060D01*
X163337705Y-93856860D01*
X163282385Y-93929388D01*
X163371310Y-94005504D01*
X163445299Y-94057133D01*
X163530068Y-94100087D01*
X163565542Y-94112893D01*
X163669676Y-94133348D01*
X163789119Y-94140968D01*
X163905222Y-94135552D01*
X163997281Y-94117565D01*
X164077807Y-94076454D01*
X164164265Y-94007584D01*
X164245152Y-93921771D01*
X164308969Y-93829832D01*
X164315043Y-93818694D01*
X164340127Y-93767734D01*
X164356601Y-93721212D01*
X164366249Y-93668150D01*
X164370857Y-93597568D01*
X164372211Y-93498487D01*
X164372250Y-93466833D01*
X164371451Y-93358608D01*
X164367863Y-93281719D01*
X164359695Y-93225179D01*
X164345158Y-93178000D01*
X164322463Y-93129198D01*
X164314888Y-93114665D01*
X164223103Y-92982568D01*
X164105711Y-92883599D01*
X163965179Y-92819197D01*
X163803972Y-92790805D01*
X163758416Y-92789500D01*
X163599002Y-92805900D01*
G37*
X163599002Y-92805900D02*
X163459742Y-92853706D01*
X163365721Y-92914440D01*
X163293984Y-92974329D01*
X163352652Y-93051248D01*
X163397787Y-93102744D01*
X163439032Y-93123733D01*
X163489586Y-93116446D01*
X163557333Y-93085833D01*
X163640349Y-93056579D01*
X163730425Y-93043593D01*
X163737458Y-93043500D01*
X163850453Y-93058371D01*
X163937508Y-93103896D01*
X163999645Y-93181444D01*
X164037884Y-93292382D01*
X164053249Y-93438078D01*
X164053661Y-93466833D01*
X164051900Y-93563989D01*
X164044238Y-93632698D01*
X164028157Y-93686709D01*
X164004857Y-93733323D01*
X163938213Y-93820645D01*
X163855306Y-93871403D01*
X163748630Y-93889905D01*
X163731646Y-93890166D01*
X163637642Y-93879623D01*
X163558231Y-93843496D01*
X163548764Y-93837250D01*
X163476735Y-93796583D01*
X163421785Y-93789202D01*
X163373666Y-93816060D01*
X163337705Y-93856860D01*
X163282385Y-93929388D01*
X163371310Y-94005504D01*
X163445299Y-94057133D01*
X163530068Y-94100087D01*
X163565542Y-94112893D01*
X163669676Y-94133348D01*
X163789119Y-94140968D01*
X163905222Y-94135552D01*
X163997281Y-94117565D01*
X164077807Y-94076454D01*
X164164265Y-94007584D01*
X164245152Y-93921771D01*
X164308969Y-93829832D01*
X164315043Y-93818694D01*
X164340127Y-93767734D01*
X164356601Y-93721212D01*
X164366249Y-93668150D01*
X164370857Y-93597568D01*
X164372211Y-93498487D01*
X164372250Y-93466833D01*
X164371451Y-93358608D01*
X164367863Y-93281719D01*
X164359695Y-93225179D01*
X164345158Y-93178000D01*
X164322463Y-93129198D01*
X164314888Y-93114665D01*
X164223103Y-92982568D01*
X164105711Y-92883599D01*
X163965179Y-92819197D01*
X163803972Y-92790805D01*
X163758416Y-92789500D01*
X163599002Y-92805900D01*
G36*
X162689500Y-92810666D02*
G01*
X162350833Y-92810666D01*
X162350833Y-93043500D01*
X162689500Y-93043500D01*
X162689500Y-93443074D01*
X162688959Y-93587508D01*
X162687062Y-93695168D01*
X162683398Y-93771603D01*
X162677555Y-93822362D01*
X162669122Y-93852994D01*
X162657944Y-93868839D01*
X162610191Y-93884869D01*
X162541074Y-93880356D01*
X162473906Y-93859669D01*
X162444556Y-93859849D01*
X162411800Y-93889951D01*
X162383948Y-93930338D01*
X162351964Y-93984672D01*
X162332462Y-94024876D01*
X162329666Y-94035306D01*
X162347476Y-94053535D01*
X162393256Y-94080120D01*
X162434132Y-94099226D01*
X162541204Y-94131868D01*
X162654512Y-94144255D01*
X162760014Y-94136199D01*
X162843669Y-94107512D01*
X162848250Y-94104784D01*
X162903285Y-94066625D01*
X162945962Y-94024580D01*
X162977807Y-93972919D01*
X163000347Y-93905913D01*
X163015108Y-93817830D01*
X163023615Y-93702941D01*
X163027397Y-93555517D01*
X163028048Y-93429791D01*
X163028166Y-93043500D01*
X163110569Y-93043500D01*
X163169690Y-93037153D01*
X163202758Y-93012316D01*
X163216654Y-92960290D01*
X163218666Y-92906912D01*
X163216149Y-92865241D01*
X163201340Y-92842732D01*
X163163353Y-92830686D01*
X163114221Y-92823431D01*
X163009775Y-92809576D01*
X162985603Y-92688413D01*
X162968101Y-92604788D01*
X162949944Y-92524264D01*
X162941066Y-92487875D01*
X162920701Y-92408500D01*
X162689500Y-92408500D01*
X162689500Y-92810666D01*
G37*
X162689500Y-92810666D02*
X162350833Y-92810666D01*
X162350833Y-93043500D01*
X162689500Y-93043500D01*
X162689500Y-93443074D01*
X162688959Y-93587508D01*
X162687062Y-93695168D01*
X162683398Y-93771603D01*
X162677555Y-93822362D01*
X162669122Y-93852994D01*
X162657944Y-93868839D01*
X162610191Y-93884869D01*
X162541074Y-93880356D01*
X162473906Y-93859669D01*
X162444556Y-93859849D01*
X162411800Y-93889951D01*
X162383948Y-93930338D01*
X162351964Y-93984672D01*
X162332462Y-94024876D01*
X162329666Y-94035306D01*
X162347476Y-94053535D01*
X162393256Y-94080120D01*
X162434132Y-94099226D01*
X162541204Y-94131868D01*
X162654512Y-94144255D01*
X162760014Y-94136199D01*
X162843669Y-94107512D01*
X162848250Y-94104784D01*
X162903285Y-94066625D01*
X162945962Y-94024580D01*
X162977807Y-93972919D01*
X163000347Y-93905913D01*
X163015108Y-93817830D01*
X163023615Y-93702941D01*
X163027397Y-93555517D01*
X163028048Y-93429791D01*
X163028166Y-93043500D01*
X163110569Y-93043500D01*
X163169690Y-93037153D01*
X163202758Y-93012316D01*
X163216654Y-92960290D01*
X163218666Y-92906912D01*
X163216149Y-92865241D01*
X163201340Y-92842732D01*
X163163353Y-92830686D01*
X163114221Y-92823431D01*
X163009775Y-92809576D01*
X162985603Y-92688413D01*
X162968101Y-92604788D01*
X162949944Y-92524264D01*
X162941066Y-92487875D01*
X162920701Y-92408500D01*
X162689500Y-92408500D01*
X162689500Y-92810666D01*
G36*
X160409877Y-92797196D02*
G01*
X160274274Y-92829542D01*
X160154944Y-92893778D01*
X160084050Y-92952121D01*
X159984784Y-93073107D01*
X159916974Y-93217565D01*
X159882532Y-93378646D01*
X159883370Y-93549504D01*
X159895617Y-93627029D01*
X159924406Y-93739773D01*
X159963038Y-93828453D01*
X160020839Y-93911337D01*
X160068604Y-93965888D01*
X160174980Y-94051611D01*
X160306639Y-94110709D01*
X160454546Y-94141344D01*
X160609669Y-94141681D01*
X160762973Y-94109883D01*
X160768294Y-94108132D01*
X160898015Y-94043520D01*
X161006284Y-93946454D01*
X161090178Y-93822548D01*
X161146771Y-93677412D01*
X161173138Y-93516659D01*
X161171160Y-93466833D01*
X160848000Y-93466833D01*
X160839922Y-93559018D01*
X160818677Y-93656442D01*
X160788742Y-93742576D01*
X160758840Y-93795821D01*
X160710215Y-93844905D01*
X160651770Y-93873619D01*
X160571096Y-93886646D01*
X160512508Y-93888824D01*
X160441210Y-93886417D01*
X160393118Y-93872375D01*
X160349353Y-93839639D01*
X160329482Y-93820381D01*
X160264776Y-93731985D01*
X160226704Y-93620168D01*
X160213301Y-93478956D01*
X160213236Y-93466833D01*
X160224585Y-93324450D01*
X160260157Y-93211414D01*
X160322239Y-93120867D01*
X160331927Y-93110839D01*
X160372911Y-93072247D01*
X160407720Y-93051469D01*
X160451003Y-93044135D01*
X160517411Y-93045877D01*
X160544203Y-93047527D01*
X160623497Y-93054755D01*
X160674822Y-93067538D01*
X160712542Y-93091257D01*
X160742744Y-93121912D01*
X160787827Y-93194405D01*
X160823265Y-93293318D01*
X160844289Y-93403018D01*
X160848000Y-93466833D01*
X161171160Y-93466833D01*
X161166356Y-93345899D01*
X161166186Y-93344684D01*
X161124382Y-93177540D01*
X161051185Y-93038303D01*
X160948352Y-92928598D01*
X160817642Y-92850048D01*
X160660811Y-92804277D01*
X160570153Y-92794008D01*
X160409877Y-92797196D01*
G37*
X160409877Y-92797196D02*
X160274274Y-92829542D01*
X160154944Y-92893778D01*
X160084050Y-92952121D01*
X159984784Y-93073107D01*
X159916974Y-93217565D01*
X159882532Y-93378646D01*
X159883370Y-93549504D01*
X159895617Y-93627029D01*
X159924406Y-93739773D01*
X159963038Y-93828453D01*
X160020839Y-93911337D01*
X160068604Y-93965888D01*
X160174980Y-94051611D01*
X160306639Y-94110709D01*
X160454546Y-94141344D01*
X160609669Y-94141681D01*
X160762973Y-94109883D01*
X160768294Y-94108132D01*
X160898015Y-94043520D01*
X161006284Y-93946454D01*
X161090178Y-93822548D01*
X161146771Y-93677412D01*
X161173138Y-93516659D01*
X161171160Y-93466833D01*
X160848000Y-93466833D01*
X160839922Y-93559018D01*
X160818677Y-93656442D01*
X160788742Y-93742576D01*
X160758840Y-93795821D01*
X160710215Y-93844905D01*
X160651770Y-93873619D01*
X160571096Y-93886646D01*
X160512508Y-93888824D01*
X160441210Y-93886417D01*
X160393118Y-93872375D01*
X160349353Y-93839639D01*
X160329482Y-93820381D01*
X160264776Y-93731985D01*
X160226704Y-93620168D01*
X160213301Y-93478956D01*
X160213236Y-93466833D01*
X160224585Y-93324450D01*
X160260157Y-93211414D01*
X160322239Y-93120867D01*
X160331927Y-93110839D01*
X160372911Y-93072247D01*
X160407720Y-93051469D01*
X160451003Y-93044135D01*
X160517411Y-93045877D01*
X160544203Y-93047527D01*
X160623497Y-93054755D01*
X160674822Y-93067538D01*
X160712542Y-93091257D01*
X160742744Y-93121912D01*
X160787827Y-93194405D01*
X160823265Y-93293318D01*
X160844289Y-93403018D01*
X160848000Y-93466833D01*
X161171160Y-93466833D01*
X161166356Y-93345899D01*
X161166186Y-93344684D01*
X161124382Y-93177540D01*
X161051185Y-93038303D01*
X160948352Y-92928598D01*
X160817642Y-92850048D01*
X160660811Y-92804277D01*
X160570153Y-92794008D01*
X160409877Y-92797196D01*
G36*
X156804502Y-92805900D02*
G01*
X156665242Y-92853706D01*
X156571221Y-92914440D01*
X156499484Y-92974329D01*
X156558152Y-93051248D01*
X156603287Y-93102744D01*
X156644532Y-93123733D01*
X156695086Y-93116446D01*
X156762833Y-93085833D01*
X156845849Y-93056579D01*
X156935925Y-93043593D01*
X156942958Y-93043500D01*
X157055953Y-93058371D01*
X157143008Y-93103896D01*
X157205145Y-93181444D01*
X157243384Y-93292382D01*
X157258749Y-93438078D01*
X157259161Y-93466833D01*
X157257400Y-93563989D01*
X157249738Y-93632698D01*
X157233657Y-93686709D01*
X157210357Y-93733323D01*
X157143713Y-93820645D01*
X157060806Y-93871403D01*
X156954130Y-93889905D01*
X156937146Y-93890166D01*
X156843142Y-93879623D01*
X156763731Y-93843496D01*
X156754264Y-93837250D01*
X156682235Y-93796583D01*
X156627285Y-93789202D01*
X156579166Y-93816060D01*
X156543205Y-93856860D01*
X156487885Y-93929388D01*
X156576810Y-94005504D01*
X156650799Y-94057133D01*
X156735568Y-94100087D01*
X156771042Y-94112893D01*
X156875176Y-94133348D01*
X156994619Y-94140968D01*
X157110722Y-94135552D01*
X157202781Y-94117565D01*
X157283307Y-94076454D01*
X157369765Y-94007584D01*
X157450652Y-93921771D01*
X157514469Y-93829832D01*
X157520543Y-93818694D01*
X157545627Y-93767734D01*
X157562101Y-93721212D01*
X157571749Y-93668150D01*
X157576357Y-93597568D01*
X157577711Y-93498487D01*
X157577750Y-93466833D01*
X157576951Y-93358608D01*
X157573363Y-93281719D01*
X157565195Y-93225179D01*
X157550658Y-93178000D01*
X157527963Y-93129198D01*
X157520388Y-93114665D01*
X157428603Y-92982568D01*
X157311211Y-92883599D01*
X157170679Y-92819197D01*
X157009472Y-92790805D01*
X156963916Y-92789500D01*
X156804502Y-92805900D01*
G37*
X156804502Y-92805900D02*
X156665242Y-92853706D01*
X156571221Y-92914440D01*
X156499484Y-92974329D01*
X156558152Y-93051248D01*
X156603287Y-93102744D01*
X156644532Y-93123733D01*
X156695086Y-93116446D01*
X156762833Y-93085833D01*
X156845849Y-93056579D01*
X156935925Y-93043593D01*
X156942958Y-93043500D01*
X157055953Y-93058371D01*
X157143008Y-93103896D01*
X157205145Y-93181444D01*
X157243384Y-93292382D01*
X157258749Y-93438078D01*
X157259161Y-93466833D01*
X157257400Y-93563989D01*
X157249738Y-93632698D01*
X157233657Y-93686709D01*
X157210357Y-93733323D01*
X157143713Y-93820645D01*
X157060806Y-93871403D01*
X156954130Y-93889905D01*
X156937146Y-93890166D01*
X156843142Y-93879623D01*
X156763731Y-93843496D01*
X156754264Y-93837250D01*
X156682235Y-93796583D01*
X156627285Y-93789202D01*
X156579166Y-93816060D01*
X156543205Y-93856860D01*
X156487885Y-93929388D01*
X156576810Y-94005504D01*
X156650799Y-94057133D01*
X156735568Y-94100087D01*
X156771042Y-94112893D01*
X156875176Y-94133348D01*
X156994619Y-94140968D01*
X157110722Y-94135552D01*
X157202781Y-94117565D01*
X157283307Y-94076454D01*
X157369765Y-94007584D01*
X157450652Y-93921771D01*
X157514469Y-93829832D01*
X157520543Y-93818694D01*
X157545627Y-93767734D01*
X157562101Y-93721212D01*
X157571749Y-93668150D01*
X157576357Y-93597568D01*
X157577711Y-93498487D01*
X157577750Y-93466833D01*
X157576951Y-93358608D01*
X157573363Y-93281719D01*
X157565195Y-93225179D01*
X157550658Y-93178000D01*
X157527963Y-93129198D01*
X157520388Y-93114665D01*
X157428603Y-92982568D01*
X157311211Y-92883599D01*
X157170679Y-92819197D01*
X157009472Y-92790805D01*
X156963916Y-92789500D01*
X156804502Y-92805900D01*
G36*
X155768655Y-92787253D02*
G01*
X155681253Y-92809809D01*
X155614830Y-92838759D01*
X155531247Y-92882194D01*
X155482577Y-92916976D01*
X155464461Y-92950259D01*
X155472538Y-92989194D01*
X155496872Y-93032280D01*
X155526575Y-93073323D01*
X155557184Y-93095242D01*
X155598231Y-93098828D01*
X155659249Y-93084872D01*
X155749769Y-93054164D01*
X155751828Y-93053427D01*
X155855026Y-93029547D01*
X155944010Y-93033879D01*
X156012521Y-93064055D01*
X156054302Y-93117712D01*
X156064333Y-93171581D01*
X156056118Y-93210514D01*
X156027932Y-93245209D01*
X155974467Y-93279004D01*
X155890415Y-93315235D01*
X155770468Y-93357239D01*
X155767285Y-93358286D01*
X155631130Y-93416301D01*
X155529965Y-93488521D01*
X155466382Y-93572847D01*
X155450554Y-93614798D01*
X155437438Y-93738807D01*
X155462643Y-93856864D01*
X155522164Y-93962504D01*
X155611991Y-94049265D01*
X155728118Y-94110686D01*
X155765510Y-94122660D01*
X155877101Y-94140333D01*
X156006504Y-94140624D01*
X156133305Y-94124343D01*
X156204624Y-94105269D01*
X156278394Y-94076527D01*
X156344174Y-94045537D01*
X156368666Y-94031389D01*
X156424166Y-93995024D01*
X156374277Y-93916137D01*
X156335570Y-93865888D01*
X156298182Y-93834246D01*
X156287524Y-93830004D01*
X156249978Y-93834551D01*
X156188440Y-93853573D01*
X156123252Y-93879935D01*
X156012265Y-93916960D01*
X155913749Y-93925559D01*
X155833266Y-93907344D01*
X155776376Y-93863923D01*
X155748642Y-93796907D01*
X155746833Y-93770957D01*
X155752471Y-93725920D01*
X155773600Y-93689585D01*
X155816544Y-93657259D01*
X155887626Y-93624249D01*
X155993168Y-93585860D01*
X155998784Y-93583947D01*
X156123790Y-93536848D01*
X156214613Y-93490465D01*
X156278983Y-93439547D01*
X156324628Y-93378846D01*
X156337998Y-93353518D01*
X156375728Y-93237012D01*
X156372474Y-93123037D01*
X156342047Y-93032040D01*
X156271036Y-92923135D01*
X156170897Y-92844945D01*
X156041642Y-92797476D01*
X155883281Y-92780735D01*
X155871934Y-92780710D01*
X155768655Y-92787253D01*
G37*
X155768655Y-92787253D02*
X155681253Y-92809809D01*
X155614830Y-92838759D01*
X155531247Y-92882194D01*
X155482577Y-92916976D01*
X155464461Y-92950259D01*
X155472538Y-92989194D01*
X155496872Y-93032280D01*
X155526575Y-93073323D01*
X155557184Y-93095242D01*
X155598231Y-93098828D01*
X155659249Y-93084872D01*
X155749769Y-93054164D01*
X155751828Y-93053427D01*
X155855026Y-93029547D01*
X155944010Y-93033879D01*
X156012521Y-93064055D01*
X156054302Y-93117712D01*
X156064333Y-93171581D01*
X156056118Y-93210514D01*
X156027932Y-93245209D01*
X155974467Y-93279004D01*
X155890415Y-93315235D01*
X155770468Y-93357239D01*
X155767285Y-93358286D01*
X155631130Y-93416301D01*
X155529965Y-93488521D01*
X155466382Y-93572847D01*
X155450554Y-93614798D01*
X155437438Y-93738807D01*
X155462643Y-93856864D01*
X155522164Y-93962504D01*
X155611991Y-94049265D01*
X155728118Y-94110686D01*
X155765510Y-94122660D01*
X155877101Y-94140333D01*
X156006504Y-94140624D01*
X156133305Y-94124343D01*
X156204624Y-94105269D01*
X156278394Y-94076527D01*
X156344174Y-94045537D01*
X156368666Y-94031389D01*
X156424166Y-93995024D01*
X156374277Y-93916137D01*
X156335570Y-93865888D01*
X156298182Y-93834246D01*
X156287524Y-93830004D01*
X156249978Y-93834551D01*
X156188440Y-93853573D01*
X156123252Y-93879935D01*
X156012265Y-93916960D01*
X155913749Y-93925559D01*
X155833266Y-93907344D01*
X155776376Y-93863923D01*
X155748642Y-93796907D01*
X155746833Y-93770957D01*
X155752471Y-93725920D01*
X155773600Y-93689585D01*
X155816544Y-93657259D01*
X155887626Y-93624249D01*
X155993168Y-93585860D01*
X155998784Y-93583947D01*
X156123790Y-93536848D01*
X156214613Y-93490465D01*
X156278983Y-93439547D01*
X156324628Y-93378846D01*
X156337998Y-93353518D01*
X156375728Y-93237012D01*
X156372474Y-93123037D01*
X156342047Y-93032040D01*
X156271036Y-92923135D01*
X156170897Y-92844945D01*
X156041642Y-92797476D01*
X155883281Y-92780735D01*
X155871934Y-92780710D01*
X155768655Y-92787253D01*
G36*
X174958926Y-92261010D02*
G01*
X174846119Y-92263469D01*
X174759485Y-92268353D01*
X174690951Y-92276305D01*
X174632447Y-92287967D01*
X174582104Y-92302039D01*
X174434585Y-92366051D01*
X174320530Y-92455913D01*
X174240408Y-92570992D01*
X174194692Y-92710652D01*
X174183207Y-92839960D01*
X174190559Y-92975680D01*
X174215933Y-93084072D01*
X174263650Y-93177863D01*
X174323956Y-93254447D01*
X174404021Y-93332124D01*
X174489261Y-93388443D01*
X174588498Y-93426670D01*
X174710550Y-93450069D01*
X174864240Y-93461904D01*
X174886791Y-93462756D01*
X175135500Y-93471292D01*
X175135500Y-94123000D01*
X175495333Y-94123000D01*
X175495333Y-93196716D01*
X175135500Y-93196716D01*
X174938794Y-93188112D01*
X174826817Y-93180342D01*
X174746559Y-93167192D01*
X174687541Y-93146674D01*
X174669206Y-93136944D01*
X174597277Y-93072244D01*
X174549754Y-92983448D01*
X174528123Y-92881970D01*
X174533869Y-92779227D01*
X174568478Y-92686634D01*
X174604522Y-92639887D01*
X174676403Y-92587656D01*
X174771821Y-92554264D01*
X174897152Y-92537950D01*
X174982041Y-92535618D01*
X175135500Y-92535500D01*
X175135500Y-93196716D01*
X175495333Y-93196716D01*
X175495333Y-92260333D01*
X175105979Y-92260333D01*
X174958926Y-92261010D01*
G37*
X174958926Y-92261010D02*
X174846119Y-92263469D01*
X174759485Y-92268353D01*
X174690951Y-92276305D01*
X174632447Y-92287967D01*
X174582104Y-92302039D01*
X174434585Y-92366051D01*
X174320530Y-92455913D01*
X174240408Y-92570992D01*
X174194692Y-92710652D01*
X174183207Y-92839960D01*
X174190559Y-92975680D01*
X174215933Y-93084072D01*
X174263650Y-93177863D01*
X174323956Y-93254447D01*
X174404021Y-93332124D01*
X174489261Y-93388443D01*
X174588498Y-93426670D01*
X174710550Y-93450069D01*
X174864240Y-93461904D01*
X174886791Y-93462756D01*
X175135500Y-93471292D01*
X175135500Y-94123000D01*
X175495333Y-94123000D01*
X175495333Y-93196716D01*
X175135500Y-93196716D01*
X174938794Y-93188112D01*
X174826817Y-93180342D01*
X174746559Y-93167192D01*
X174687541Y-93146674D01*
X174669206Y-93136944D01*
X174597277Y-93072244D01*
X174549754Y-92983448D01*
X174528123Y-92881970D01*
X174533869Y-92779227D01*
X174568478Y-92686634D01*
X174604522Y-92639887D01*
X174676403Y-92587656D01*
X174771821Y-92554264D01*
X174897152Y-92537950D01*
X174982041Y-92535618D01*
X175135500Y-92535500D01*
X175135500Y-93196716D01*
X175495333Y-93196716D01*
X175495333Y-92260333D01*
X175105979Y-92260333D01*
X174958926Y-92261010D01*
G36*
X166626500Y-92556666D02*
G01*
X167452000Y-92556666D01*
X167452000Y-93064666D01*
X166795833Y-93064666D01*
X166795833Y-93339833D01*
X167452000Y-93339833D01*
X167452000Y-93847833D01*
X166626500Y-93847833D01*
X166626500Y-94123000D01*
X167790666Y-94123000D01*
X167790666Y-92281500D01*
X166626500Y-92281500D01*
X166626500Y-92556666D01*
G37*
X166626500Y-92556666D02*
X167452000Y-92556666D01*
X167452000Y-93064666D01*
X166795833Y-93064666D01*
X166795833Y-93339833D01*
X167452000Y-93339833D01*
X167452000Y-93847833D01*
X166626500Y-93847833D01*
X166626500Y-94123000D01*
X167790666Y-94123000D01*
X167790666Y-92281500D01*
X166626500Y-92281500D01*
X166626500Y-92556666D01*
G36*
X166012666Y-94123000D02*
G01*
X166330166Y-94123000D01*
X166330166Y-92218000D01*
X166012666Y-92218000D01*
X166012666Y-94123000D01*
G37*
X166012666Y-94123000D02*
X166330166Y-94123000D01*
X166330166Y-92218000D01*
X166012666Y-92218000D01*
X166012666Y-94123000D01*
G36*
X161338062Y-92803380D02*
G01*
X161310050Y-92814008D01*
X161297216Y-92833914D01*
X161296468Y-92874551D01*
X161302958Y-92933409D01*
X161314832Y-93020077D01*
X161327877Y-93072225D01*
X161348120Y-93097387D01*
X161381589Y-93103097D01*
X161433814Y-93096963D01*
X161553493Y-93097222D01*
X161657057Y-93136572D01*
X161735942Y-93204278D01*
X161800500Y-93277806D01*
X161800500Y-94123000D01*
X162118000Y-94123000D01*
X162118000Y-92808646D01*
X161853670Y-92821250D01*
X161835754Y-92919734D01*
X161817839Y-93018218D01*
X161740378Y-92932373D01*
X161637219Y-92844210D01*
X161524128Y-92797058D01*
X161401680Y-92791102D01*
X161338062Y-92803380D01*
G37*
X161338062Y-92803380D02*
X161310050Y-92814008D01*
X161297216Y-92833914D01*
X161296468Y-92874551D01*
X161302958Y-92933409D01*
X161314832Y-93020077D01*
X161327877Y-93072225D01*
X161348120Y-93097387D01*
X161381589Y-93103097D01*
X161433814Y-93096963D01*
X161553493Y-93097222D01*
X161657057Y-93136572D01*
X161735942Y-93204278D01*
X161800500Y-93277806D01*
X161800500Y-94123000D01*
X162118000Y-94123000D01*
X162118000Y-92808646D01*
X161853670Y-92821250D01*
X161835754Y-92919734D01*
X161817839Y-93018218D01*
X161740378Y-92932373D01*
X161637219Y-92844210D01*
X161524128Y-92797058D01*
X161401680Y-92791102D01*
X161338062Y-92803380D01*
G36*
X158769196Y-92820816D02*
G01*
X158669202Y-92881499D01*
X158587361Y-92978821D01*
X158567809Y-93011750D01*
X158509083Y-93117583D01*
X158502113Y-93620291D01*
X158495142Y-94123000D01*
X158837166Y-94123000D01*
X158837166Y-93147409D01*
X158889121Y-93095454D01*
X158960497Y-93052048D01*
X159049252Y-93039672D01*
X159145126Y-93057290D01*
X159237857Y-93103869D01*
X159276375Y-93134501D01*
X159291803Y-93149860D01*
X159303479Y-93167870D01*
X159311925Y-93194191D01*
X159317665Y-93234485D01*
X159321219Y-93294410D01*
X159323112Y-93379627D01*
X159323864Y-93495796D01*
X159324000Y-93648578D01*
X159324000Y-94123000D01*
X159641500Y-94123000D01*
X159641500Y-92808554D01*
X159519891Y-92814902D01*
X159449771Y-92820444D01*
X159408816Y-92831950D01*
X159383863Y-92855692D01*
X159366433Y-92888003D01*
X159334583Y-92954756D01*
X159263990Y-92895541D01*
X159155395Y-92830920D01*
X159023801Y-92796620D01*
X158891805Y-92793769D01*
X158769196Y-92820816D01*
G37*
X158769196Y-92820816D02*
X158669202Y-92881499D01*
X158587361Y-92978821D01*
X158567809Y-93011750D01*
X158509083Y-93117583D01*
X158502113Y-93620291D01*
X158495142Y-94123000D01*
X158837166Y-94123000D01*
X158837166Y-93147409D01*
X158889121Y-93095454D01*
X158960497Y-93052048D01*
X159049252Y-93039672D01*
X159145126Y-93057290D01*
X159237857Y-93103869D01*
X159276375Y-93134501D01*
X159291803Y-93149860D01*
X159303479Y-93167870D01*
X159311925Y-93194191D01*
X159317665Y-93234485D01*
X159321219Y-93294410D01*
X159323112Y-93379627D01*
X159323864Y-93495796D01*
X159324000Y-93648578D01*
X159324000Y-94123000D01*
X159641500Y-94123000D01*
X159641500Y-92808554D01*
X159519891Y-92814902D01*
X159449771Y-92820444D01*
X159408816Y-92831950D01*
X159383863Y-92855692D01*
X159366433Y-92888003D01*
X159334583Y-92954756D01*
X159263990Y-92895541D01*
X159155395Y-92830920D01*
X159023801Y-92796620D01*
X158891805Y-92793769D01*
X158769196Y-92820816D01*
G36*
X157863500Y-94123000D02*
G01*
X158181000Y-94123000D01*
X158181000Y-92810666D01*
X157863500Y-92810666D01*
X157863500Y-94123000D01*
G37*
X157863500Y-94123000D02*
X158181000Y-94123000D01*
X158181000Y-92810666D01*
X157863500Y-92810666D01*
X157863500Y-94123000D01*
G36*
X157938886Y-92237312D02*
G01*
X157871513Y-92288769D01*
X157829853Y-92362646D01*
X157821166Y-92419083D01*
X157840479Y-92502446D01*
X157891936Y-92569820D01*
X157965813Y-92611479D01*
X158022250Y-92620166D01*
X158092850Y-92607827D01*
X158154658Y-92564945D01*
X158161461Y-92558294D01*
X158208070Y-92496261D01*
X158223211Y-92427518D01*
X158223333Y-92419083D01*
X158204020Y-92335719D01*
X158152564Y-92268346D01*
X158078686Y-92226686D01*
X158022250Y-92218000D01*
X157938886Y-92237312D01*
G37*
X157938886Y-92237312D02*
X157871513Y-92288769D01*
X157829853Y-92362646D01*
X157821166Y-92419083D01*
X157840479Y-92502446D01*
X157891936Y-92569820D01*
X157965813Y-92611479D01*
X158022250Y-92620166D01*
X158092850Y-92607827D01*
X158154658Y-92564945D01*
X158161461Y-92558294D01*
X158208070Y-92496261D01*
X158223211Y-92427518D01*
X158223333Y-92419083D01*
X158204020Y-92335719D01*
X158152564Y-92268346D01*
X158078686Y-92226686D01*
X158022250Y-92218000D01*
X157938886Y-92237312D01*
G36*
X181336919Y-93006055D02*
G01*
X181305402Y-93019475D01*
X181193645Y-93092428D01*
X181103143Y-93196072D01*
X181034922Y-93323907D01*
X180990010Y-93469435D01*
X180969434Y-93626158D01*
X180974221Y-93787578D01*
X181005398Y-93947196D01*
X181063993Y-94098514D01*
X181119869Y-94193129D01*
X181201029Y-94281123D01*
X181299436Y-94342045D01*
X181405951Y-94373170D01*
X181511439Y-94371771D01*
X181603213Y-94337328D01*
X181689673Y-94267359D01*
X181771183Y-94171236D01*
X181835364Y-94064480D01*
X181852489Y-94024738D01*
X181873263Y-93951409D01*
X181891124Y-93855763D01*
X181902376Y-93757808D01*
X181902741Y-93752583D01*
X181904884Y-93659194D01*
X181900263Y-93563309D01*
X181890203Y-93474210D01*
X181876029Y-93401180D01*
X181859065Y-93353502D01*
X181843832Y-93339833D01*
X181824869Y-93356110D01*
X181824166Y-93361962D01*
X181805507Y-93405846D01*
X181758427Y-93447517D01*
X181696274Y-93477873D01*
X181639338Y-93488000D01*
X181546764Y-93471973D01*
X181480876Y-93423290D01*
X181444151Y-93353399D01*
X181434747Y-93265535D01*
X181463014Y-93187100D01*
X181524352Y-93125206D01*
X181614163Y-93086960D01*
X181616925Y-93086325D01*
X181686583Y-93070643D01*
X181591333Y-93025786D01*
X181498901Y-92990767D01*
X181419910Y-92984318D01*
X181336919Y-93006055D01*
G37*
X181336919Y-93006055D02*
X181305402Y-93019475D01*
X181193645Y-93092428D01*
X181103143Y-93196072D01*
X181034922Y-93323907D01*
X180990010Y-93469435D01*
X180969434Y-93626158D01*
X180974221Y-93787578D01*
X181005398Y-93947196D01*
X181063993Y-94098514D01*
X181119869Y-94193129D01*
X181201029Y-94281123D01*
X181299436Y-94342045D01*
X181405951Y-94373170D01*
X181511439Y-94371771D01*
X181603213Y-94337328D01*
X181689673Y-94267359D01*
X181771183Y-94171236D01*
X181835364Y-94064480D01*
X181852489Y-94024738D01*
X181873263Y-93951409D01*
X181891124Y-93855763D01*
X181902376Y-93757808D01*
X181902741Y-93752583D01*
X181904884Y-93659194D01*
X181900263Y-93563309D01*
X181890203Y-93474210D01*
X181876029Y-93401180D01*
X181859065Y-93353502D01*
X181843832Y-93339833D01*
X181824869Y-93356110D01*
X181824166Y-93361962D01*
X181805507Y-93405846D01*
X181758427Y-93447517D01*
X181696274Y-93477873D01*
X181639338Y-93488000D01*
X181546764Y-93471973D01*
X181480876Y-93423290D01*
X181444151Y-93353399D01*
X181434747Y-93265535D01*
X181463014Y-93187100D01*
X181524352Y-93125206D01*
X181614163Y-93086960D01*
X181616925Y-93086325D01*
X181686583Y-93070643D01*
X181591333Y-93025786D01*
X181498901Y-92990767D01*
X181419910Y-92984318D01*
X181336919Y-93006055D01*
G36*
X178924086Y-93005989D02*
G01*
X178892402Y-93019475D01*
X178781000Y-93092250D01*
X178690819Y-93195643D01*
X178622765Y-93323132D01*
X178577745Y-93468193D01*
X178556666Y-93624304D01*
X178560435Y-93784941D01*
X178589960Y-93943582D01*
X178646146Y-94093703D01*
X178725111Y-94222571D01*
X178810196Y-94303161D01*
X178914981Y-94355154D01*
X179028309Y-94375173D01*
X179139026Y-94359842D01*
X179157166Y-94353326D01*
X179247443Y-94297108D01*
X179331301Y-94206419D01*
X179403325Y-94089112D01*
X179458101Y-93953036D01*
X179474370Y-93893415D01*
X179487613Y-93802308D01*
X179491767Y-93691757D01*
X179487427Y-93576924D01*
X179475187Y-93472972D01*
X179455642Y-93395064D01*
X179454735Y-93392750D01*
X179436283Y-93351562D01*
X179423188Y-93346171D01*
X179406921Y-93371583D01*
X179351101Y-93439307D01*
X179277047Y-93478939D01*
X179196063Y-93488200D01*
X179119454Y-93464811D01*
X179082982Y-93436906D01*
X179029870Y-93360160D01*
X179015379Y-93280995D01*
X179036771Y-93206009D01*
X179091306Y-93141803D01*
X179176243Y-93094976D01*
X179231250Y-93079739D01*
X179248684Y-93071040D01*
X179234174Y-93055315D01*
X179184016Y-93028808D01*
X179178333Y-93026100D01*
X179086031Y-92990870D01*
X179007088Y-92984301D01*
X178924086Y-93005989D01*
G37*
X178924086Y-93005989D02*
X178892402Y-93019475D01*
X178781000Y-93092250D01*
X178690819Y-93195643D01*
X178622765Y-93323132D01*
X178577745Y-93468193D01*
X178556666Y-93624304D01*
X178560435Y-93784941D01*
X178589960Y-93943582D01*
X178646146Y-94093703D01*
X178725111Y-94222571D01*
X178810196Y-94303161D01*
X178914981Y-94355154D01*
X179028309Y-94375173D01*
X179139026Y-94359842D01*
X179157166Y-94353326D01*
X179247443Y-94297108D01*
X179331301Y-94206419D01*
X179403325Y-94089112D01*
X179458101Y-93953036D01*
X179474370Y-93893415D01*
X179487613Y-93802308D01*
X179491767Y-93691757D01*
X179487427Y-93576924D01*
X179475187Y-93472972D01*
X179455642Y-93395064D01*
X179454735Y-93392750D01*
X179436283Y-93351562D01*
X179423188Y-93346171D01*
X179406921Y-93371583D01*
X179351101Y-93439307D01*
X179277047Y-93478939D01*
X179196063Y-93488200D01*
X179119454Y-93464811D01*
X179082982Y-93436906D01*
X179029870Y-93360160D01*
X179015379Y-93280995D01*
X179036771Y-93206009D01*
X179091306Y-93141803D01*
X179176243Y-93094976D01*
X179231250Y-93079739D01*
X179248684Y-93071040D01*
X179234174Y-93055315D01*
X179184016Y-93028808D01*
X179178333Y-93026100D01*
X179086031Y-92990870D01*
X179007088Y-92984301D01*
X178924086Y-93005989D01*
%TD*%
M02*
