M48
; DRILL file {KiCad (5.1.5-0-10_14)} date 2022 May 02, Monday 16:57:51
; FORMAT={-:-/ absolute / inch / decimal}
; #@! TF.CreationDate,2022-05-02T16:57:51+02:00
; #@! TF.GenerationSoftware,Kicad,Pcbnew,(5.1.5-0-10_14)
; #@! TF.FileFunction,Plated,1,2,PTH
FMAT,2
INCH
T1C0.0157
T2C0.0315
T3C0.0354
T4C0.0551
T5C0.1260
%
G90
G05
T1
X5.876Y-3.4055
X6.0921Y-3.8587
X6.1811Y-3.7697
X6.2303Y-3.9173
X6.25Y-3.3366
X6.3091Y-4.0157
X6.4961Y-3.8681
X6.5157Y-4.065
X6.5256Y-4.0157
X6.5453Y-4.2323
X6.5551Y-3.937
X6.565Y-4.3307
X6.5748Y-4.1142
X6.5945Y-3.7598
X6.6142Y-4.2323
X6.6535Y-4.0551
X6.659Y-4.2323
X6.7224Y-4.5374
X6.7323Y-4.1339
X6.752Y-3.6319
X6.8209Y-3.7795
X6.8209Y-3.8287
X6.8406Y-3.878
X6.8799Y-4.2717
X6.8799Y-3.8976
X6.9488Y-3.4744
X6.9647Y-3.6357
X7.0374Y-3.7402
X7.0374Y-3.5728
X7.0768Y-3.9862
X7.0866Y-3.7303
X7.0965Y-3.3465
X7.1949Y-4.1142
X7.3228Y-4.3209
X7.5492Y-4.5472
X7.628Y-3.7106
T2
X7.4213Y-3.6122
X7.4213Y-3.7106
T3
X5.9252Y-4.0157
X5.9252Y-4.1157
X5.9232Y-3.7205
X5.9232Y-3.8205
X8.1201Y-4.298
X8.1201Y-4.398
X8.1201Y-4.498
T4
X7.9035Y-3.4591
X7.9035Y-3.6591
X7.9035Y-3.8591
X7.9035Y-4.0591
T5
X7.5295Y-3.9173
X5.6988Y-4.4685
X5.6988Y-3.3661
T0
M30
