%TF.GenerationSoftware,KiCad,Pcbnew,(5.1.10-1-10_14)*%
%TF.CreationDate,2022-03-07T11:53:48+01:00*%
%TF.ProjectId,PongoIR,506f6e67-6f49-4522-9e6b-696361645f70,rev?*%
%TF.SameCoordinates,Original*%
%TF.FileFunction,Legend,Top*%
%TF.FilePolarity,Positive*%
%FSLAX46Y46*%
G04 Gerber Fmt 4.6, Leading zero omitted, Abs format (unit mm)*
G04 Created by KiCad (PCBNEW (5.1.10-1-10_14)) date 2022-03-07 11:53:48*
%MOMM*%
%LPD*%
G01*
G04 APERTURE LIST*
%ADD10C,0.120000*%
%ADD11C,0.150000*%
%ADD12C,0.152400*%
G04 APERTURE END LIST*
D10*
%TO.C,R6*%
X193380000Y-87153641D02*
X193380000Y-86846359D01*
X192620000Y-87153641D02*
X192620000Y-86846359D01*
%TO.C,C3*%
X177580810Y-90928307D02*
X177428307Y-91080810D01*
X177071693Y-90419190D02*
X176919190Y-90571693D01*
%TO.C,R17*%
X169122659Y-103589940D02*
X169339940Y-103372659D01*
X169660060Y-104127341D02*
X169877341Y-103910060D01*
%TO.C,R16*%
X167380000Y-102596359D02*
X167380000Y-102903641D01*
X166620000Y-102596359D02*
X166620000Y-102903641D01*
D11*
%TO.C,U5*%
X161300000Y-105850000D02*
X161300000Y-103650000D01*
X164700000Y-106225000D02*
X164700000Y-103275000D01*
D10*
%TO.C,FB1*%
X157015000Y-104522936D02*
X157015000Y-104977064D01*
X158485000Y-104522936D02*
X158485000Y-104977064D01*
%TO.C,C14*%
X163607836Y-107140000D02*
X163392164Y-107140000D01*
X163607836Y-107860000D02*
X163392164Y-107860000D01*
%TO.C,C13*%
X159265000Y-104488748D02*
X159265000Y-105011252D01*
X160735000Y-104488748D02*
X160735000Y-105011252D01*
%TO.C,L1*%
X184886252Y-106210000D02*
X182113748Y-106210000D01*
X184886252Y-102790000D02*
X182113748Y-102790000D01*
%TO.C,D3*%
X189000000Y-102500000D02*
X187000000Y-102500000D01*
X187000000Y-102500000D02*
X187000000Y-106400000D01*
X189000000Y-102500000D02*
X189000000Y-106400000D01*
%TO.C,C11*%
X191120000Y-93000000D02*
G75*
G03*
X191120000Y-93000000I-2620000J0D01*
G01*
X185920000Y-93000000D02*
X191080000Y-93000000D01*
X185920000Y-92960000D02*
X191080000Y-92960000D01*
X185921000Y-92920000D02*
X191079000Y-92920000D01*
X185922000Y-92880000D02*
X191078000Y-92880000D01*
X185924000Y-92840000D02*
X191076000Y-92840000D01*
X185927000Y-92800000D02*
X191073000Y-92800000D01*
X185931000Y-92760000D02*
X187460000Y-92760000D01*
X189540000Y-92760000D02*
X191069000Y-92760000D01*
X185935000Y-92720000D02*
X187460000Y-92720000D01*
X189540000Y-92720000D02*
X191065000Y-92720000D01*
X185939000Y-92680000D02*
X187460000Y-92680000D01*
X189540000Y-92680000D02*
X191061000Y-92680000D01*
X185944000Y-92640000D02*
X187460000Y-92640000D01*
X189540000Y-92640000D02*
X191056000Y-92640000D01*
X185950000Y-92600000D02*
X187460000Y-92600000D01*
X189540000Y-92600000D02*
X191050000Y-92600000D01*
X185957000Y-92560000D02*
X187460000Y-92560000D01*
X189540000Y-92560000D02*
X191043000Y-92560000D01*
X185964000Y-92520000D02*
X187460000Y-92520000D01*
X189540000Y-92520000D02*
X191036000Y-92520000D01*
X185972000Y-92480000D02*
X187460000Y-92480000D01*
X189540000Y-92480000D02*
X191028000Y-92480000D01*
X185980000Y-92440000D02*
X187460000Y-92440000D01*
X189540000Y-92440000D02*
X191020000Y-92440000D01*
X185989000Y-92400000D02*
X187460000Y-92400000D01*
X189540000Y-92400000D02*
X191011000Y-92400000D01*
X185999000Y-92360000D02*
X187460000Y-92360000D01*
X189540000Y-92360000D02*
X191001000Y-92360000D01*
X186009000Y-92320000D02*
X187460000Y-92320000D01*
X189540000Y-92320000D02*
X190991000Y-92320000D01*
X186020000Y-92279000D02*
X187460000Y-92279000D01*
X189540000Y-92279000D02*
X190980000Y-92279000D01*
X186032000Y-92239000D02*
X187460000Y-92239000D01*
X189540000Y-92239000D02*
X190968000Y-92239000D01*
X186045000Y-92199000D02*
X187460000Y-92199000D01*
X189540000Y-92199000D02*
X190955000Y-92199000D01*
X186058000Y-92159000D02*
X187460000Y-92159000D01*
X189540000Y-92159000D02*
X190942000Y-92159000D01*
X186072000Y-92119000D02*
X187460000Y-92119000D01*
X189540000Y-92119000D02*
X190928000Y-92119000D01*
X186086000Y-92079000D02*
X187460000Y-92079000D01*
X189540000Y-92079000D02*
X190914000Y-92079000D01*
X186102000Y-92039000D02*
X187460000Y-92039000D01*
X189540000Y-92039000D02*
X190898000Y-92039000D01*
X186118000Y-91999000D02*
X187460000Y-91999000D01*
X189540000Y-91999000D02*
X190882000Y-91999000D01*
X186135000Y-91959000D02*
X187460000Y-91959000D01*
X189540000Y-91959000D02*
X190865000Y-91959000D01*
X186152000Y-91919000D02*
X187460000Y-91919000D01*
X189540000Y-91919000D02*
X190848000Y-91919000D01*
X186171000Y-91879000D02*
X187460000Y-91879000D01*
X189540000Y-91879000D02*
X190829000Y-91879000D01*
X186190000Y-91839000D02*
X187460000Y-91839000D01*
X189540000Y-91839000D02*
X190810000Y-91839000D01*
X186210000Y-91799000D02*
X187460000Y-91799000D01*
X189540000Y-91799000D02*
X190790000Y-91799000D01*
X186232000Y-91759000D02*
X187460000Y-91759000D01*
X189540000Y-91759000D02*
X190768000Y-91759000D01*
X186253000Y-91719000D02*
X187460000Y-91719000D01*
X189540000Y-91719000D02*
X190747000Y-91719000D01*
X186276000Y-91679000D02*
X187460000Y-91679000D01*
X189540000Y-91679000D02*
X190724000Y-91679000D01*
X186300000Y-91639000D02*
X187460000Y-91639000D01*
X189540000Y-91639000D02*
X190700000Y-91639000D01*
X186325000Y-91599000D02*
X187460000Y-91599000D01*
X189540000Y-91599000D02*
X190675000Y-91599000D01*
X186351000Y-91559000D02*
X187460000Y-91559000D01*
X189540000Y-91559000D02*
X190649000Y-91559000D01*
X186378000Y-91519000D02*
X187460000Y-91519000D01*
X189540000Y-91519000D02*
X190622000Y-91519000D01*
X186405000Y-91479000D02*
X187460000Y-91479000D01*
X189540000Y-91479000D02*
X190595000Y-91479000D01*
X186435000Y-91439000D02*
X187460000Y-91439000D01*
X189540000Y-91439000D02*
X190565000Y-91439000D01*
X186465000Y-91399000D02*
X187460000Y-91399000D01*
X189540000Y-91399000D02*
X190535000Y-91399000D01*
X186496000Y-91359000D02*
X187460000Y-91359000D01*
X189540000Y-91359000D02*
X190504000Y-91359000D01*
X186529000Y-91319000D02*
X187460000Y-91319000D01*
X189540000Y-91319000D02*
X190471000Y-91319000D01*
X186563000Y-91279000D02*
X187460000Y-91279000D01*
X189540000Y-91279000D02*
X190437000Y-91279000D01*
X186599000Y-91239000D02*
X187460000Y-91239000D01*
X189540000Y-91239000D02*
X190401000Y-91239000D01*
X186636000Y-91199000D02*
X187460000Y-91199000D01*
X189540000Y-91199000D02*
X190364000Y-91199000D01*
X186674000Y-91159000D02*
X187460000Y-91159000D01*
X189540000Y-91159000D02*
X190326000Y-91159000D01*
X186715000Y-91119000D02*
X187460000Y-91119000D01*
X189540000Y-91119000D02*
X190285000Y-91119000D01*
X186757000Y-91079000D02*
X187460000Y-91079000D01*
X189540000Y-91079000D02*
X190243000Y-91079000D01*
X186801000Y-91039000D02*
X187460000Y-91039000D01*
X189540000Y-91039000D02*
X190199000Y-91039000D01*
X186847000Y-90999000D02*
X187460000Y-90999000D01*
X189540000Y-90999000D02*
X190153000Y-90999000D01*
X186895000Y-90959000D02*
X187460000Y-90959000D01*
X189540000Y-90959000D02*
X190105000Y-90959000D01*
X186946000Y-90919000D02*
X187460000Y-90919000D01*
X189540000Y-90919000D02*
X190054000Y-90919000D01*
X187000000Y-90879000D02*
X187460000Y-90879000D01*
X189540000Y-90879000D02*
X190000000Y-90879000D01*
X187057000Y-90839000D02*
X187460000Y-90839000D01*
X189540000Y-90839000D02*
X189943000Y-90839000D01*
X187117000Y-90799000D02*
X187460000Y-90799000D01*
X189540000Y-90799000D02*
X189883000Y-90799000D01*
X187181000Y-90759000D02*
X187460000Y-90759000D01*
X189540000Y-90759000D02*
X189819000Y-90759000D01*
X187249000Y-90719000D02*
X187460000Y-90719000D01*
X189540000Y-90719000D02*
X189751000Y-90719000D01*
X187322000Y-90679000D02*
X189678000Y-90679000D01*
X187402000Y-90639000D02*
X189598000Y-90639000D01*
X187489000Y-90599000D02*
X189511000Y-90599000D01*
X187585000Y-90559000D02*
X189415000Y-90559000D01*
X187695000Y-90519000D02*
X189305000Y-90519000D01*
X187823000Y-90479000D02*
X189177000Y-90479000D01*
X187982000Y-90439000D02*
X189018000Y-90439000D01*
X188216000Y-90399000D02*
X188784000Y-90399000D01*
X187025000Y-95804775D02*
X187025000Y-95304775D01*
X186775000Y-95554775D02*
X187275000Y-95554775D01*
%TO.C,SW3*%
X153020000Y-115480000D02*
X153020000Y-115450000D01*
X153020000Y-109020000D02*
X153020000Y-109050000D01*
X159480000Y-109020000D02*
X159480000Y-109050000D01*
X159480000Y-115450000D02*
X159480000Y-115480000D01*
X153020000Y-113550000D02*
X153020000Y-110950000D01*
X159480000Y-115480000D02*
X153020000Y-115480000D01*
X159480000Y-113550000D02*
X159480000Y-110950000D01*
X159480000Y-109020000D02*
X153020000Y-109020000D01*
%TO.C,R5*%
X160403641Y-108130000D02*
X160096359Y-108130000D01*
X160403641Y-107370000D02*
X160096359Y-107370000D01*
%TO.C,D2*%
X149290000Y-100710000D02*
X143130000Y-100710000D01*
X149290000Y-105830000D02*
X143130000Y-105830000D01*
X149290000Y-100710000D02*
X149290000Y-105830000D01*
X149290000Y-106230000D02*
X148170000Y-106230000D01*
X148170000Y-106230000D02*
X148170000Y-105830000D01*
X148170000Y-105830000D02*
X149290000Y-105830000D01*
X149290000Y-105830000D02*
X149290000Y-106230000D01*
X149420000Y-102000000D02*
X149290000Y-102000000D01*
X149290000Y-102000000D02*
X149290000Y-102000000D01*
X149290000Y-102000000D02*
X149420000Y-102000000D01*
X149420000Y-102000000D02*
X149420000Y-102000000D01*
X149420000Y-104540000D02*
X149290000Y-104540000D01*
X149290000Y-104540000D02*
X149290000Y-104540000D01*
X149290000Y-104540000D02*
X149420000Y-104540000D01*
X149420000Y-104540000D02*
X149420000Y-104540000D01*
X143130000Y-105830000D02*
G75*
G02*
X143130000Y-100710000I0J2560000D01*
G01*
%TO.C,D1*%
X149240000Y-93210000D02*
X143080000Y-93210000D01*
X149240000Y-98330000D02*
X143080000Y-98330000D01*
X149240000Y-93210000D02*
X149240000Y-98330000D01*
X149240000Y-98730000D02*
X148120000Y-98730000D01*
X148120000Y-98730000D02*
X148120000Y-98330000D01*
X148120000Y-98330000D02*
X149240000Y-98330000D01*
X149240000Y-98330000D02*
X149240000Y-98730000D01*
X149370000Y-94500000D02*
X149240000Y-94500000D01*
X149240000Y-94500000D02*
X149240000Y-94500000D01*
X149240000Y-94500000D02*
X149370000Y-94500000D01*
X149370000Y-94500000D02*
X149370000Y-94500000D01*
X149370000Y-97040000D02*
X149240000Y-97040000D01*
X149240000Y-97040000D02*
X149240000Y-97040000D01*
X149240000Y-97040000D02*
X149370000Y-97040000D01*
X149370000Y-97040000D02*
X149370000Y-97040000D01*
X143080000Y-98330000D02*
G75*
G02*
X143080000Y-93210000I0J2560000D01*
G01*
%TO.C,Y1*%
X162228679Y-88282234D02*
X174828679Y-88282234D01*
X174828679Y-88282234D02*
X174828679Y-83182234D01*
X174828679Y-83182234D02*
X162228679Y-83182234D01*
%TO.C,U4*%
X180690000Y-98250000D02*
X180690000Y-100200000D01*
X180690000Y-98250000D02*
X180690000Y-96300000D01*
X185810000Y-98250000D02*
X185810000Y-100200000D01*
X185810000Y-98250000D02*
X185810000Y-94800000D01*
%TO.C,U1*%
X208550000Y-108550000D02*
X207350000Y-108550000D01*
X208550000Y-108550000D02*
X208550000Y-109010000D01*
X204890000Y-108630000D02*
X204890000Y-111710000D01*
X208550000Y-114210000D02*
X208550000Y-114430000D01*
X208550000Y-114210000D02*
G75*
G03*
X208550000Y-109010000I-1100000J2600000D01*
G01*
D12*
%TO.C,U3*%
X183129100Y-89628900D02*
X187370900Y-89628900D01*
X187370900Y-84371100D02*
X183129100Y-84371100D01*
D10*
%TO.C,U2*%
X173340812Y-103170996D02*
X173659010Y-103489194D01*
X173659010Y-103489194D02*
X173977208Y-103170996D01*
X168871897Y-98702081D02*
X168553699Y-98383883D01*
X168553699Y-98383883D02*
X168871897Y-98065685D01*
X178446123Y-98065685D02*
X178764321Y-98383883D01*
X178764321Y-98383883D02*
X178446123Y-98702081D01*
X173977208Y-93596770D02*
X173659010Y-93278572D01*
X173659010Y-93278572D02*
X173340812Y-93596770D01*
X173340812Y-93596770D02*
X172428644Y-92684602D01*
%TO.C,TP6*%
X175700000Y-106750000D02*
G75*
G03*
X175700000Y-106750000I-950000J0D01*
G01*
%TO.C,TP3*%
X179450000Y-88250000D02*
G75*
G03*
X179450000Y-88250000I-950000J0D01*
G01*
%TO.C,TP5*%
X179450000Y-84750000D02*
G75*
G03*
X179450000Y-84750000I-950000J0D01*
G01*
%TO.C,TP4*%
X181700000Y-91750000D02*
G75*
G03*
X181700000Y-91750000I-950000J0D01*
G01*
%TO.C,TP2*%
X162700000Y-100750000D02*
G75*
G03*
X162700000Y-100750000I-950000J0D01*
G01*
%TO.C,TP1*%
X203200000Y-112250000D02*
G75*
G03*
X203200000Y-112250000I-950000J0D01*
G01*
%TO.C,SW2*%
X171980000Y-109020000D02*
X171980000Y-109050000D01*
X171980000Y-115480000D02*
X171980000Y-115450000D01*
X165520000Y-115480000D02*
X165520000Y-115450000D01*
X165520000Y-109050000D02*
X165520000Y-109020000D01*
X171980000Y-110950000D02*
X171980000Y-113550000D01*
X165520000Y-109020000D02*
X171980000Y-109020000D01*
X165520000Y-110950000D02*
X165520000Y-113550000D01*
X165520000Y-115480000D02*
X171980000Y-115480000D01*
%TO.C,SW1*%
X159050000Y-93200000D02*
X159050000Y-93300000D01*
X163450000Y-91700000D02*
X159050000Y-91700000D01*
X159050000Y-94800000D02*
X163450000Y-94800000D01*
X163450000Y-93200000D02*
X163450000Y-93300000D01*
%TO.C,R15*%
X187903641Y-108630000D02*
X187596359Y-108630000D01*
X187903641Y-107870000D02*
X187596359Y-107870000D01*
%TO.C,R14*%
X191903641Y-112630000D02*
X191596359Y-112630000D01*
X191903641Y-111870000D02*
X191596359Y-111870000D01*
%TO.C,R13*%
X182403641Y-108130000D02*
X182096359Y-108130000D01*
X182403641Y-107370000D02*
X182096359Y-107370000D01*
%TO.C,R12*%
X178403641Y-108630000D02*
X178096359Y-108630000D01*
X178403641Y-107870000D02*
X178096359Y-107870000D01*
%TO.C,R11*%
X186870000Y-113903641D02*
X186870000Y-113596359D01*
X187630000Y-113903641D02*
X187630000Y-113596359D01*
%TO.C,R10*%
X196596359Y-115370000D02*
X196903641Y-115370000D01*
X196596359Y-116130000D02*
X196903641Y-116130000D01*
%TO.C,R9*%
X181370000Y-113903641D02*
X181370000Y-113596359D01*
X182130000Y-113903641D02*
X182130000Y-113596359D01*
%TO.C,R8*%
X179620000Y-112663641D02*
X179620000Y-112356359D01*
X180380000Y-112663641D02*
X180380000Y-112356359D01*
%TO.C,R7*%
X194096359Y-92370000D02*
X194403641Y-92370000D01*
X194096359Y-93130000D02*
X194403641Y-93130000D01*
%TO.C,R4*%
X177630000Y-104596359D02*
X177630000Y-104903641D01*
X176870000Y-104596359D02*
X176870000Y-104903641D01*
%TO.C,R3*%
X157903641Y-102130000D02*
X157596359Y-102130000D01*
X157903641Y-101370000D02*
X157596359Y-101370000D01*
%TO.C,R2*%
X153380000Y-104096359D02*
X153380000Y-104403641D01*
X152620000Y-104096359D02*
X152620000Y-104403641D01*
%TO.C,R1*%
X152870000Y-97653641D02*
X152870000Y-97346359D01*
X153630000Y-97653641D02*
X153630000Y-97346359D01*
%TO.C,Q5*%
X186920000Y-111510000D02*
X187850000Y-111510000D01*
X190080000Y-111510000D02*
X189150000Y-111510000D01*
X190080000Y-111510000D02*
X190080000Y-109350000D01*
X186920000Y-111510000D02*
X186920000Y-110050000D01*
%TO.C,Q4*%
X195920000Y-114010000D02*
X196850000Y-114010000D01*
X199080000Y-114010000D02*
X198150000Y-114010000D01*
X199080000Y-114010000D02*
X199080000Y-111850000D01*
X195920000Y-114010000D02*
X195920000Y-112550000D01*
%TO.C,Q3*%
X181420000Y-111260000D02*
X182350000Y-111260000D01*
X184580000Y-111260000D02*
X183650000Y-111260000D01*
X184580000Y-111260000D02*
X184580000Y-109100000D01*
X181420000Y-111260000D02*
X181420000Y-109800000D01*
%TO.C,Q2*%
X175920000Y-111510000D02*
X176850000Y-111510000D01*
X179080000Y-111510000D02*
X178150000Y-111510000D01*
X179080000Y-111510000D02*
X179080000Y-109350000D01*
X175920000Y-111510000D02*
X175920000Y-110050000D01*
%TO.C,Q1*%
X153740000Y-99170000D02*
X153740000Y-100100000D01*
X153740000Y-102330000D02*
X153740000Y-101400000D01*
X153740000Y-102330000D02*
X155900000Y-102330000D01*
X153740000Y-99170000D02*
X155200000Y-99170000D01*
%TO.C,J1*%
X198640000Y-106750000D02*
X210860000Y-106750000D01*
X210860000Y-106750000D02*
X210860000Y-84210000D01*
X210860000Y-84210000D02*
X198640000Y-84210000D01*
X198640000Y-84210000D02*
X198640000Y-106750000D01*
X209360000Y-106750000D02*
X207560000Y-106750000D01*
X207560000Y-106750000D02*
X207560000Y-84210000D01*
X207560000Y-84210000D02*
X209360000Y-84210000D01*
X209360000Y-84210000D02*
X209360000Y-106750000D01*
X210860000Y-104100000D02*
X210860000Y-102100000D01*
X210860000Y-102100000D02*
X209360000Y-102350000D01*
X209360000Y-102350000D02*
X209360000Y-103850000D01*
X209360000Y-103850000D02*
X210860000Y-104100000D01*
X210860000Y-99020000D02*
X210860000Y-97020000D01*
X210860000Y-97020000D02*
X209360000Y-97270000D01*
X209360000Y-97270000D02*
X209360000Y-98770000D01*
X209360000Y-98770000D02*
X210860000Y-99020000D01*
X210860000Y-93940000D02*
X210860000Y-91940000D01*
X210860000Y-91940000D02*
X209360000Y-92190000D01*
X209360000Y-92190000D02*
X209360000Y-93690000D01*
X209360000Y-93690000D02*
X210860000Y-93940000D01*
X210860000Y-88860000D02*
X210860000Y-86860000D01*
X210860000Y-86860000D02*
X209360000Y-87110000D01*
X209360000Y-87110000D02*
X209360000Y-88610000D01*
X209360000Y-88610000D02*
X210860000Y-88860000D01*
X197840000Y-102800000D02*
X198440000Y-103100000D01*
X198440000Y-103100000D02*
X197840000Y-103400000D01*
X197840000Y-103400000D02*
X197840000Y-102800000D01*
%TO.C,J2*%
X152095000Y-88770000D02*
X152095000Y-88135000D01*
X152730000Y-88770000D02*
X152095000Y-88770000D01*
%TO.C,D8*%
X189960000Y-115500000D02*
X189960000Y-112815000D01*
X189960000Y-112815000D02*
X188040000Y-112815000D01*
X188040000Y-112815000D02*
X188040000Y-115500000D01*
%TO.C,D7*%
X193540000Y-113500000D02*
X193540000Y-116185000D01*
X193540000Y-116185000D02*
X195460000Y-116185000D01*
X195460000Y-116185000D02*
X195460000Y-113500000D01*
%TO.C,D6*%
X184460000Y-115500000D02*
X184460000Y-112815000D01*
X184460000Y-112815000D02*
X182540000Y-112815000D01*
X182540000Y-112815000D02*
X182540000Y-115500000D01*
%TO.C,D5*%
X179210000Y-115500000D02*
X179210000Y-112815000D01*
X179210000Y-112815000D02*
X177290000Y-112815000D01*
X177290000Y-112815000D02*
X177290000Y-115500000D01*
%TO.C,D4*%
X195000000Y-90040000D02*
X192315000Y-90040000D01*
X192315000Y-90040000D02*
X192315000Y-91960000D01*
X192315000Y-91960000D02*
X195000000Y-91960000D01*
%TO.C,C12*%
X174515000Y-114761252D02*
X174515000Y-114238748D01*
X175985000Y-114761252D02*
X175985000Y-114238748D01*
%TO.C,C10*%
X191240000Y-109760000D02*
X192940000Y-109760000D01*
X196760000Y-109760000D02*
X195060000Y-109760000D01*
X196760000Y-105304437D02*
X196760000Y-109760000D01*
X191240000Y-105304437D02*
X191240000Y-109760000D01*
X192304437Y-104240000D02*
X192940000Y-104240000D01*
X195695563Y-104240000D02*
X195060000Y-104240000D01*
X195695563Y-104240000D02*
X196760000Y-105304437D01*
X192304437Y-104240000D02*
X191240000Y-105304437D01*
X195685000Y-103375000D02*
X195685000Y-104000000D01*
X195997500Y-103687500D02*
X195372500Y-103687500D01*
%TO.C,C8*%
X203107836Y-109360000D02*
X202892164Y-109360000D01*
X203107836Y-108640000D02*
X202892164Y-108640000D01*
%TO.C,C9*%
X190357836Y-85360000D02*
X190142164Y-85360000D01*
X190357836Y-84640000D02*
X190142164Y-84640000D01*
%TO.C,C7*%
X160887281Y-86154728D02*
X160887281Y-86370400D01*
X160167281Y-86154728D02*
X160167281Y-86370400D01*
%TO.C,C6*%
X176110000Y-86142164D02*
X176110000Y-86357836D01*
X175390000Y-86142164D02*
X175390000Y-86357836D01*
%TO.C,C5*%
X168419190Y-92571693D02*
X168571693Y-92419190D01*
X168928307Y-93080810D02*
X169080810Y-92928307D01*
%TO.C,C4*%
X168087317Y-94053073D02*
X168239820Y-94205576D01*
X167578200Y-94562190D02*
X167730703Y-94714693D01*
%TO.C,C2*%
X172919190Y-104911104D02*
X173071693Y-104758601D01*
X173428307Y-105420221D02*
X173580810Y-105267718D01*
%TO.C,C1*%
X171860000Y-90481575D02*
X171860000Y-90697247D01*
X171140000Y-90481575D02*
X171140000Y-90697247D01*
%TO.C,R6*%
D11*
X192282380Y-87166666D02*
X191806190Y-87500000D01*
X192282380Y-87738095D02*
X191282380Y-87738095D01*
X191282380Y-87357142D01*
X191330000Y-87261904D01*
X191377619Y-87214285D01*
X191472857Y-87166666D01*
X191615714Y-87166666D01*
X191710952Y-87214285D01*
X191758571Y-87261904D01*
X191806190Y-87357142D01*
X191806190Y-87738095D01*
X191282380Y-86309523D02*
X191282380Y-86500000D01*
X191330000Y-86595238D01*
X191377619Y-86642857D01*
X191520476Y-86738095D01*
X191710952Y-86785714D01*
X192091904Y-86785714D01*
X192187142Y-86738095D01*
X192234761Y-86690476D01*
X192282380Y-86595238D01*
X192282380Y-86404761D01*
X192234761Y-86309523D01*
X192187142Y-86261904D01*
X192091904Y-86214285D01*
X191853809Y-86214285D01*
X191758571Y-86261904D01*
X191710952Y-86309523D01*
X191663333Y-86404761D01*
X191663333Y-86595238D01*
X191710952Y-86690476D01*
X191758571Y-86738095D01*
X191853809Y-86785714D01*
%TO.C,C3*%
X176475678Y-90216505D02*
X176475678Y-90283848D01*
X176408334Y-90418535D01*
X176340991Y-90485879D01*
X176206303Y-90553222D01*
X176071616Y-90553222D01*
X175970601Y-90519551D01*
X175802242Y-90418535D01*
X175701227Y-90317520D01*
X175600212Y-90149161D01*
X175566540Y-90048146D01*
X175566540Y-89913459D01*
X175633884Y-89778772D01*
X175701227Y-89711428D01*
X175835914Y-89644085D01*
X175903258Y-89644085D01*
X176071616Y-89341039D02*
X176509349Y-88903306D01*
X176543021Y-89408383D01*
X176644036Y-89307367D01*
X176745052Y-89273696D01*
X176812395Y-89273696D01*
X176913410Y-89307367D01*
X177081769Y-89475726D01*
X177115441Y-89576741D01*
X177115441Y-89644085D01*
X177081769Y-89745100D01*
X176879739Y-89947131D01*
X176778723Y-89980803D01*
X176711380Y-89980803D01*
%TO.C,R17*%
X167865312Y-106524450D02*
X167292893Y-106423435D01*
X167461251Y-106928511D02*
X166754145Y-106221404D01*
X167023519Y-105952030D01*
X167124534Y-105918358D01*
X167191877Y-105918358D01*
X167292893Y-105952030D01*
X167393908Y-106053045D01*
X167427580Y-106154061D01*
X167427580Y-106221404D01*
X167393908Y-106322419D01*
X167124534Y-106591793D01*
X168538748Y-105851015D02*
X168134687Y-106255076D01*
X168336717Y-106053045D02*
X167629610Y-105345938D01*
X167663282Y-105514297D01*
X167663282Y-105648984D01*
X167629610Y-105750000D01*
X168067343Y-104908206D02*
X168538748Y-104436801D01*
X168942809Y-105446954D01*
%TO.C,R16*%
X167702380Y-100892857D02*
X167226190Y-101226190D01*
X167702380Y-101464285D02*
X166702380Y-101464285D01*
X166702380Y-101083333D01*
X166750000Y-100988095D01*
X166797619Y-100940476D01*
X166892857Y-100892857D01*
X167035714Y-100892857D01*
X167130952Y-100940476D01*
X167178571Y-100988095D01*
X167226190Y-101083333D01*
X167226190Y-101464285D01*
X167702380Y-99940476D02*
X167702380Y-100511904D01*
X167702380Y-100226190D02*
X166702380Y-100226190D01*
X166845238Y-100321428D01*
X166940476Y-100416666D01*
X166988095Y-100511904D01*
X166702380Y-99083333D02*
X166702380Y-99273809D01*
X166750000Y-99369047D01*
X166797619Y-99416666D01*
X166940476Y-99511904D01*
X167130952Y-99559523D01*
X167511904Y-99559523D01*
X167607142Y-99511904D01*
X167654761Y-99464285D01*
X167702380Y-99369047D01*
X167702380Y-99178571D01*
X167654761Y-99083333D01*
X167607142Y-99035714D01*
X167511904Y-98988095D01*
X167273809Y-98988095D01*
X167178571Y-99035714D01*
X167130952Y-99083333D01*
X167083333Y-99178571D01*
X167083333Y-99369047D01*
X167130952Y-99464285D01*
X167178571Y-99511904D01*
X167273809Y-99559523D01*
%TO.C,U5*%
X165122380Y-105511904D02*
X165931904Y-105511904D01*
X166027142Y-105464285D01*
X166074761Y-105416666D01*
X166122380Y-105321428D01*
X166122380Y-105130952D01*
X166074761Y-105035714D01*
X166027142Y-104988095D01*
X165931904Y-104940476D01*
X165122380Y-104940476D01*
X165122380Y-103988095D02*
X165122380Y-104464285D01*
X165598571Y-104511904D01*
X165550952Y-104464285D01*
X165503333Y-104369047D01*
X165503333Y-104130952D01*
X165550952Y-104035714D01*
X165598571Y-103988095D01*
X165693809Y-103940476D01*
X165931904Y-103940476D01*
X166027142Y-103988095D01*
X166074761Y-104035714D01*
X166122380Y-104130952D01*
X166122380Y-104369047D01*
X166074761Y-104464285D01*
X166027142Y-104511904D01*
%TO.C,FB1*%
X155928571Y-105583333D02*
X155928571Y-105916666D01*
X156452380Y-105916666D02*
X155452380Y-105916666D01*
X155452380Y-105440476D01*
X155928571Y-104726190D02*
X155976190Y-104583333D01*
X156023809Y-104535714D01*
X156119047Y-104488095D01*
X156261904Y-104488095D01*
X156357142Y-104535714D01*
X156404761Y-104583333D01*
X156452380Y-104678571D01*
X156452380Y-105059523D01*
X155452380Y-105059523D01*
X155452380Y-104726190D01*
X155500000Y-104630952D01*
X155547619Y-104583333D01*
X155642857Y-104535714D01*
X155738095Y-104535714D01*
X155833333Y-104583333D01*
X155880952Y-104630952D01*
X155928571Y-104726190D01*
X155928571Y-105059523D01*
X156452380Y-103535714D02*
X156452380Y-104107142D01*
X156452380Y-103821428D02*
X155452380Y-103821428D01*
X155595238Y-103916666D01*
X155690476Y-104011904D01*
X155738095Y-104107142D01*
%TO.C,C14*%
X165357142Y-107857142D02*
X165309523Y-107904761D01*
X165166666Y-107952380D01*
X165071428Y-107952380D01*
X164928571Y-107904761D01*
X164833333Y-107809523D01*
X164785714Y-107714285D01*
X164738095Y-107523809D01*
X164738095Y-107380952D01*
X164785714Y-107190476D01*
X164833333Y-107095238D01*
X164928571Y-107000000D01*
X165071428Y-106952380D01*
X165166666Y-106952380D01*
X165309523Y-107000000D01*
X165357142Y-107047619D01*
X166309523Y-107952380D02*
X165738095Y-107952380D01*
X166023809Y-107952380D02*
X166023809Y-106952380D01*
X165928571Y-107095238D01*
X165833333Y-107190476D01*
X165738095Y-107238095D01*
X167166666Y-107285714D02*
X167166666Y-107952380D01*
X166928571Y-106904761D02*
X166690476Y-107619047D01*
X167309523Y-107619047D01*
%TO.C,C13*%
X160107142Y-102392857D02*
X160154761Y-102440476D01*
X160202380Y-102583333D01*
X160202380Y-102678571D01*
X160154761Y-102821428D01*
X160059523Y-102916666D01*
X159964285Y-102964285D01*
X159773809Y-103011904D01*
X159630952Y-103011904D01*
X159440476Y-102964285D01*
X159345238Y-102916666D01*
X159250000Y-102821428D01*
X159202380Y-102678571D01*
X159202380Y-102583333D01*
X159250000Y-102440476D01*
X159297619Y-102392857D01*
X160202380Y-101440476D02*
X160202380Y-102011904D01*
X160202380Y-101726190D02*
X159202380Y-101726190D01*
X159345238Y-101821428D01*
X159440476Y-101916666D01*
X159488095Y-102011904D01*
X159202380Y-101107142D02*
X159202380Y-100488095D01*
X159583333Y-100821428D01*
X159583333Y-100678571D01*
X159630952Y-100583333D01*
X159678571Y-100535714D01*
X159773809Y-100488095D01*
X160011904Y-100488095D01*
X160107142Y-100535714D01*
X160154761Y-100583333D01*
X160202380Y-100678571D01*
X160202380Y-100964285D01*
X160154761Y-101059523D01*
X160107142Y-101107142D01*
%TO.C,L1*%
X179583333Y-103452380D02*
X179107142Y-103452380D01*
X179107142Y-102452380D01*
X180440476Y-103452380D02*
X179869047Y-103452380D01*
X180154761Y-103452380D02*
X180154761Y-102452380D01*
X180059523Y-102595238D01*
X179964285Y-102690476D01*
X179869047Y-102738095D01*
%TO.C,D3*%
X190452380Y-105488095D02*
X189452380Y-105488095D01*
X189452380Y-105250000D01*
X189500000Y-105107142D01*
X189595238Y-105011904D01*
X189690476Y-104964285D01*
X189880952Y-104916666D01*
X190023809Y-104916666D01*
X190214285Y-104964285D01*
X190309523Y-105011904D01*
X190404761Y-105107142D01*
X190452380Y-105250000D01*
X190452380Y-105488095D01*
X189452380Y-104583333D02*
X189452380Y-103964285D01*
X189833333Y-104297619D01*
X189833333Y-104154761D01*
X189880952Y-104059523D01*
X189928571Y-104011904D01*
X190023809Y-103964285D01*
X190261904Y-103964285D01*
X190357142Y-104011904D01*
X190404761Y-104059523D01*
X190452380Y-104154761D01*
X190452380Y-104440476D01*
X190404761Y-104535714D01*
X190357142Y-104583333D01*
%TO.C,C11*%
X185107142Y-93642857D02*
X185154761Y-93690476D01*
X185202380Y-93833333D01*
X185202380Y-93928571D01*
X185154761Y-94071428D01*
X185059523Y-94166666D01*
X184964285Y-94214285D01*
X184773809Y-94261904D01*
X184630952Y-94261904D01*
X184440476Y-94214285D01*
X184345238Y-94166666D01*
X184250000Y-94071428D01*
X184202380Y-93928571D01*
X184202380Y-93833333D01*
X184250000Y-93690476D01*
X184297619Y-93642857D01*
X185202380Y-92690476D02*
X185202380Y-93261904D01*
X185202380Y-92976190D02*
X184202380Y-92976190D01*
X184345238Y-93071428D01*
X184440476Y-93166666D01*
X184488095Y-93261904D01*
X185202380Y-91738095D02*
X185202380Y-92309523D01*
X185202380Y-92023809D02*
X184202380Y-92023809D01*
X184345238Y-92119047D01*
X184440476Y-92214285D01*
X184488095Y-92309523D01*
%TO.C,SW3*%
X150404761Y-114202380D02*
X150452380Y-114059523D01*
X150452380Y-113821428D01*
X150404761Y-113726190D01*
X150357142Y-113678571D01*
X150261904Y-113630952D01*
X150166666Y-113630952D01*
X150071428Y-113678571D01*
X150023809Y-113726190D01*
X149976190Y-113821428D01*
X149928571Y-114011904D01*
X149880952Y-114107142D01*
X149833333Y-114154761D01*
X149738095Y-114202380D01*
X149642857Y-114202380D01*
X149547619Y-114154761D01*
X149500000Y-114107142D01*
X149452380Y-114011904D01*
X149452380Y-113773809D01*
X149500000Y-113630952D01*
X150452380Y-113202380D02*
X149452380Y-113202380D01*
X150452380Y-112773809D02*
X149928571Y-112773809D01*
X149833333Y-112821428D01*
X149785714Y-112916666D01*
X149785714Y-113059523D01*
X149833333Y-113154761D01*
X149880952Y-113202380D01*
X149785714Y-111869047D02*
X150452380Y-111869047D01*
X149785714Y-112297619D02*
X150309523Y-112297619D01*
X150404761Y-112250000D01*
X150452380Y-112154761D01*
X150452380Y-112011904D01*
X150404761Y-111916666D01*
X150357142Y-111869047D01*
X149785714Y-111535714D02*
X149785714Y-111154761D01*
X150452380Y-111392857D02*
X149595238Y-111392857D01*
X149500000Y-111345238D01*
X149452380Y-111250000D01*
X149452380Y-111154761D01*
X149785714Y-110964285D02*
X149785714Y-110583333D01*
X150452380Y-110821428D02*
X149595238Y-110821428D01*
X149500000Y-110773809D01*
X149452380Y-110678571D01*
X149452380Y-110583333D01*
X150452380Y-110107142D02*
X150404761Y-110202380D01*
X150309523Y-110250000D01*
X149452380Y-110250000D01*
X150404761Y-109345238D02*
X150452380Y-109440476D01*
X150452380Y-109630952D01*
X150404761Y-109726190D01*
X150309523Y-109773809D01*
X149928571Y-109773809D01*
X149833333Y-109726190D01*
X149785714Y-109630952D01*
X149785714Y-109440476D01*
X149833333Y-109345238D01*
X149928571Y-109297619D01*
X150023809Y-109297619D01*
X150119047Y-109773809D01*
%TO.C,R5*%
X158083333Y-108202380D02*
X157750000Y-107726190D01*
X157511904Y-108202380D02*
X157511904Y-107202380D01*
X157892857Y-107202380D01*
X157988095Y-107250000D01*
X158035714Y-107297619D01*
X158083333Y-107392857D01*
X158083333Y-107535714D01*
X158035714Y-107630952D01*
X157988095Y-107678571D01*
X157892857Y-107726190D01*
X157511904Y-107726190D01*
X158988095Y-107202380D02*
X158511904Y-107202380D01*
X158464285Y-107678571D01*
X158511904Y-107630952D01*
X158607142Y-107583333D01*
X158845238Y-107583333D01*
X158940476Y-107630952D01*
X158988095Y-107678571D01*
X159035714Y-107773809D01*
X159035714Y-108011904D01*
X158988095Y-108107142D01*
X158940476Y-108154761D01*
X158845238Y-108202380D01*
X158607142Y-108202380D01*
X158511904Y-108154761D01*
X158464285Y-108107142D01*
%TO.C,D2*%
X145011904Y-107952380D02*
X145011904Y-106952380D01*
X145250000Y-106952380D01*
X145392857Y-107000000D01*
X145488095Y-107095238D01*
X145535714Y-107190476D01*
X145583333Y-107380952D01*
X145583333Y-107523809D01*
X145535714Y-107714285D01*
X145488095Y-107809523D01*
X145392857Y-107904761D01*
X145250000Y-107952380D01*
X145011904Y-107952380D01*
X145964285Y-107047619D02*
X146011904Y-107000000D01*
X146107142Y-106952380D01*
X146345238Y-106952380D01*
X146440476Y-107000000D01*
X146488095Y-107047619D01*
X146535714Y-107142857D01*
X146535714Y-107238095D01*
X146488095Y-107380952D01*
X145916666Y-107952380D01*
X146535714Y-107952380D01*
%TO.C,D1*%
X145011904Y-92202380D02*
X145011904Y-91202380D01*
X145250000Y-91202380D01*
X145392857Y-91250000D01*
X145488095Y-91345238D01*
X145535714Y-91440476D01*
X145583333Y-91630952D01*
X145583333Y-91773809D01*
X145535714Y-91964285D01*
X145488095Y-92059523D01*
X145392857Y-92154761D01*
X145250000Y-92202380D01*
X145011904Y-92202380D01*
X146535714Y-92202380D02*
X145964285Y-92202380D01*
X146250000Y-92202380D02*
X146250000Y-91202380D01*
X146154761Y-91345238D01*
X146059523Y-91440476D01*
X145964285Y-91488095D01*
%TO.C,Y1*%
X167773809Y-89476190D02*
X167773809Y-89952380D01*
X167440476Y-88952380D02*
X167773809Y-89476190D01*
X168107142Y-88952380D01*
X168964285Y-89952380D02*
X168392857Y-89952380D01*
X168678571Y-89952380D02*
X168678571Y-88952380D01*
X168583333Y-89095238D01*
X168488095Y-89190476D01*
X168392857Y-89238095D01*
%TO.C,U4*%
X179202380Y-99261904D02*
X180011904Y-99261904D01*
X180107142Y-99214285D01*
X180154761Y-99166666D01*
X180202380Y-99071428D01*
X180202380Y-98880952D01*
X180154761Y-98785714D01*
X180107142Y-98738095D01*
X180011904Y-98690476D01*
X179202380Y-98690476D01*
X179535714Y-97785714D02*
X180202380Y-97785714D01*
X179154761Y-98023809D02*
X179869047Y-98261904D01*
X179869047Y-97642857D01*
%TO.C,U1*%
X209702380Y-109011904D02*
X210511904Y-109011904D01*
X210607142Y-108964285D01*
X210654761Y-108916666D01*
X210702380Y-108821428D01*
X210702380Y-108630952D01*
X210654761Y-108535714D01*
X210607142Y-108488095D01*
X210511904Y-108440476D01*
X209702380Y-108440476D01*
X210702380Y-107440476D02*
X210702380Y-108011904D01*
X210702380Y-107726190D02*
X209702380Y-107726190D01*
X209845238Y-107821428D01*
X209940476Y-107916666D01*
X209988095Y-108011904D01*
%TO.C,U3*%
X184488095Y-86452380D02*
X184488095Y-87261904D01*
X184535714Y-87357142D01*
X184583333Y-87404761D01*
X184678571Y-87452380D01*
X184869047Y-87452380D01*
X184964285Y-87404761D01*
X185011904Y-87357142D01*
X185059523Y-87261904D01*
X185059523Y-86452380D01*
X185440476Y-86452380D02*
X186059523Y-86452380D01*
X185726190Y-86833333D01*
X185869047Y-86833333D01*
X185964285Y-86880952D01*
X186011904Y-86928571D01*
X186059523Y-87023809D01*
X186059523Y-87261904D01*
X186011904Y-87357142D01*
X185964285Y-87404761D01*
X185869047Y-87452380D01*
X185583333Y-87452380D01*
X185488095Y-87404761D01*
X185440476Y-87357142D01*
X182271850Y-82870980D02*
X182271850Y-83109076D01*
X182033754Y-83013838D02*
X182271850Y-83109076D01*
X182509945Y-83013838D01*
X182128992Y-83299552D02*
X182271850Y-83109076D01*
X182414707Y-83299552D01*
X182271850Y-82870980D02*
X182271850Y-83109076D01*
X182033754Y-83013838D02*
X182271850Y-83109076D01*
X182509945Y-83013838D01*
X182128992Y-83299552D02*
X182271850Y-83109076D01*
X182414707Y-83299552D01*
%TO.C,U2*%
X166488095Y-97452380D02*
X166488095Y-98261904D01*
X166535714Y-98357142D01*
X166583333Y-98404761D01*
X166678571Y-98452380D01*
X166869047Y-98452380D01*
X166964285Y-98404761D01*
X167011904Y-98357142D01*
X167059523Y-98261904D01*
X167059523Y-97452380D01*
X167488095Y-97547619D02*
X167535714Y-97500000D01*
X167630952Y-97452380D01*
X167869047Y-97452380D01*
X167964285Y-97500000D01*
X168011904Y-97547619D01*
X168059523Y-97642857D01*
X168059523Y-97738095D01*
X168011904Y-97880952D01*
X167440476Y-98452380D01*
X168059523Y-98452380D01*
%TO.C,TP6*%
X170273809Y-106702380D02*
X170892857Y-106702380D01*
X170559523Y-107083333D01*
X170702380Y-107083333D01*
X170797619Y-107130952D01*
X170845238Y-107178571D01*
X170892857Y-107273809D01*
X170892857Y-107511904D01*
X170845238Y-107607142D01*
X170797619Y-107654761D01*
X170702380Y-107702380D01*
X170416666Y-107702380D01*
X170321428Y-107654761D01*
X170273809Y-107607142D01*
X171321428Y-107607142D02*
X171369047Y-107654761D01*
X171321428Y-107702380D01*
X171273809Y-107654761D01*
X171321428Y-107607142D01*
X171321428Y-107702380D01*
X171702380Y-106702380D02*
X172321428Y-106702380D01*
X171988095Y-107083333D01*
X172130952Y-107083333D01*
X172226190Y-107130952D01*
X172273809Y-107178571D01*
X172321428Y-107273809D01*
X172321428Y-107511904D01*
X172273809Y-107607142D01*
X172226190Y-107654761D01*
X172130952Y-107702380D01*
X171845238Y-107702380D01*
X171750000Y-107654761D01*
X171702380Y-107607142D01*
X172607142Y-106702380D02*
X172940476Y-107702380D01*
X173273809Y-106702380D01*
%TO.C,TP3*%
X175535714Y-88952380D02*
X175535714Y-87952380D01*
X175773809Y-87952380D01*
X175916666Y-88000000D01*
X176011904Y-88095238D01*
X176059523Y-88190476D01*
X176107142Y-88380952D01*
X176107142Y-88523809D01*
X176059523Y-88714285D01*
X176011904Y-88809523D01*
X175916666Y-88904761D01*
X175773809Y-88952380D01*
X175535714Y-88952380D01*
X176535714Y-88428571D02*
X176869047Y-88428571D01*
X177011904Y-88952380D02*
X176535714Y-88952380D01*
X176535714Y-87952380D01*
X177011904Y-87952380D01*
%TO.C,TP5*%
X177154761Y-86952380D02*
X176821428Y-86476190D01*
X176583333Y-86952380D02*
X176583333Y-85952380D01*
X176964285Y-85952380D01*
X177059523Y-86000000D01*
X177107142Y-86047619D01*
X177154761Y-86142857D01*
X177154761Y-86285714D01*
X177107142Y-86380952D01*
X177059523Y-86428571D01*
X176964285Y-86476190D01*
X176583333Y-86476190D01*
X177488095Y-86952380D02*
X178011904Y-86285714D01*
X177488095Y-86285714D02*
X178011904Y-86952380D01*
%TO.C,TP4*%
X182309523Y-91202380D02*
X182880952Y-91202380D01*
X182595238Y-92202380D02*
X182595238Y-91202380D01*
X183119047Y-92202380D02*
X183642857Y-91535714D01*
X183119047Y-91535714D02*
X183642857Y-92202380D01*
%TO.C,TP2*%
X161357142Y-98952380D02*
X161357142Y-97952380D01*
X162404761Y-98952380D02*
X162071428Y-98476190D01*
X161833333Y-98952380D02*
X161833333Y-97952380D01*
X162214285Y-97952380D01*
X162309523Y-98000000D01*
X162357142Y-98047619D01*
X162404761Y-98142857D01*
X162404761Y-98285714D01*
X162357142Y-98380952D01*
X162309523Y-98428571D01*
X162214285Y-98476190D01*
X161833333Y-98476190D01*
X163785714Y-97952380D02*
X163976190Y-97952380D01*
X164071428Y-98000000D01*
X164166666Y-98095238D01*
X164214285Y-98285714D01*
X164214285Y-98619047D01*
X164166666Y-98809523D01*
X164071428Y-98904761D01*
X163976190Y-98952380D01*
X163785714Y-98952380D01*
X163690476Y-98904761D01*
X163595238Y-98809523D01*
X163547619Y-98619047D01*
X163547619Y-98285714D01*
X163595238Y-98095238D01*
X163690476Y-98000000D01*
X163785714Y-97952380D01*
X165071428Y-98285714D02*
X165071428Y-98952380D01*
X164642857Y-98285714D02*
X164642857Y-98809523D01*
X164690476Y-98904761D01*
X164785714Y-98952380D01*
X164928571Y-98952380D01*
X165023809Y-98904761D01*
X165071428Y-98857142D01*
X165404761Y-98285714D02*
X165785714Y-98285714D01*
X165547619Y-97952380D02*
X165547619Y-98809523D01*
X165595238Y-98904761D01*
X165690476Y-98952380D01*
X165785714Y-98952380D01*
%TO.C,TP1*%
X197928571Y-111202380D02*
X197928571Y-110202380D01*
X198976190Y-111202380D02*
X198642857Y-110726190D01*
X198404761Y-111202380D02*
X198404761Y-110202380D01*
X198785714Y-110202380D01*
X198880952Y-110250000D01*
X198928571Y-110297619D01*
X198976190Y-110392857D01*
X198976190Y-110535714D01*
X198928571Y-110630952D01*
X198880952Y-110678571D01*
X198785714Y-110726190D01*
X198404761Y-110726190D01*
X200166666Y-111202380D02*
X200166666Y-110202380D01*
X200642857Y-110535714D02*
X200642857Y-111202380D01*
X200642857Y-110630952D02*
X200690476Y-110583333D01*
X200785714Y-110535714D01*
X200928571Y-110535714D01*
X201023809Y-110583333D01*
X201071428Y-110678571D01*
X201071428Y-111202380D01*
%TO.C,SW2*%
X162952380Y-113333333D02*
X162952380Y-113809523D01*
X161952380Y-113809523D01*
X162904761Y-112619047D02*
X162952380Y-112714285D01*
X162952380Y-112904761D01*
X162904761Y-113000000D01*
X162809523Y-113047619D01*
X162428571Y-113047619D01*
X162333333Y-113000000D01*
X162285714Y-112904761D01*
X162285714Y-112714285D01*
X162333333Y-112619047D01*
X162428571Y-112571428D01*
X162523809Y-112571428D01*
X162619047Y-113047619D01*
X162952380Y-111714285D02*
X162428571Y-111714285D01*
X162333333Y-111761904D01*
X162285714Y-111857142D01*
X162285714Y-112047619D01*
X162333333Y-112142857D01*
X162904761Y-111714285D02*
X162952380Y-111809523D01*
X162952380Y-112047619D01*
X162904761Y-112142857D01*
X162809523Y-112190476D01*
X162714285Y-112190476D01*
X162619047Y-112142857D01*
X162571428Y-112047619D01*
X162571428Y-111809523D01*
X162523809Y-111714285D01*
X162952380Y-111238095D02*
X162285714Y-111238095D01*
X162476190Y-111238095D02*
X162380952Y-111190476D01*
X162333333Y-111142857D01*
X162285714Y-111047619D01*
X162285714Y-110952380D01*
X162285714Y-110619047D02*
X162952380Y-110619047D01*
X162380952Y-110619047D02*
X162333333Y-110571428D01*
X162285714Y-110476190D01*
X162285714Y-110333333D01*
X162333333Y-110238095D01*
X162428571Y-110190476D01*
X162952380Y-110190476D01*
%TO.C,SW1*%
X160261904Y-90952380D02*
X159928571Y-90476190D01*
X159690476Y-90952380D02*
X159690476Y-89952380D01*
X160071428Y-89952380D01*
X160166666Y-90000000D01*
X160214285Y-90047619D01*
X160261904Y-90142857D01*
X160261904Y-90285714D01*
X160214285Y-90380952D01*
X160166666Y-90428571D01*
X160071428Y-90476190D01*
X159690476Y-90476190D01*
X161071428Y-90904761D02*
X160976190Y-90952380D01*
X160785714Y-90952380D01*
X160690476Y-90904761D01*
X160642857Y-90809523D01*
X160642857Y-90428571D01*
X160690476Y-90333333D01*
X160785714Y-90285714D01*
X160976190Y-90285714D01*
X161071428Y-90333333D01*
X161119047Y-90428571D01*
X161119047Y-90523809D01*
X160642857Y-90619047D01*
X161500000Y-90904761D02*
X161595238Y-90952380D01*
X161785714Y-90952380D01*
X161880952Y-90904761D01*
X161928571Y-90809523D01*
X161928571Y-90761904D01*
X161880952Y-90666666D01*
X161785714Y-90619047D01*
X161642857Y-90619047D01*
X161547619Y-90571428D01*
X161500000Y-90476190D01*
X161500000Y-90428571D01*
X161547619Y-90333333D01*
X161642857Y-90285714D01*
X161785714Y-90285714D01*
X161880952Y-90333333D01*
X162738095Y-90904761D02*
X162642857Y-90952380D01*
X162452380Y-90952380D01*
X162357142Y-90904761D01*
X162309523Y-90809523D01*
X162309523Y-90428571D01*
X162357142Y-90333333D01*
X162452380Y-90285714D01*
X162642857Y-90285714D01*
X162738095Y-90333333D01*
X162785714Y-90428571D01*
X162785714Y-90523809D01*
X162309523Y-90619047D01*
X163071428Y-90285714D02*
X163452380Y-90285714D01*
X163214285Y-89952380D02*
X163214285Y-90809523D01*
X163261904Y-90904761D01*
X163357142Y-90952380D01*
X163452380Y-90952380D01*
%TO.C,R15*%
X184857142Y-108452380D02*
X184523809Y-107976190D01*
X184285714Y-108452380D02*
X184285714Y-107452380D01*
X184666666Y-107452380D01*
X184761904Y-107500000D01*
X184809523Y-107547619D01*
X184857142Y-107642857D01*
X184857142Y-107785714D01*
X184809523Y-107880952D01*
X184761904Y-107928571D01*
X184666666Y-107976190D01*
X184285714Y-107976190D01*
X185809523Y-108452380D02*
X185238095Y-108452380D01*
X185523809Y-108452380D02*
X185523809Y-107452380D01*
X185428571Y-107595238D01*
X185333333Y-107690476D01*
X185238095Y-107738095D01*
X186714285Y-107452380D02*
X186238095Y-107452380D01*
X186190476Y-107928571D01*
X186238095Y-107880952D01*
X186333333Y-107833333D01*
X186571428Y-107833333D01*
X186666666Y-107880952D01*
X186714285Y-107928571D01*
X186761904Y-108023809D01*
X186761904Y-108261904D01*
X186714285Y-108357142D01*
X186666666Y-108404761D01*
X186571428Y-108452380D01*
X186333333Y-108452380D01*
X186238095Y-108404761D01*
X186190476Y-108357142D01*
%TO.C,R14*%
X191357142Y-113952380D02*
X191023809Y-113476190D01*
X190785714Y-113952380D02*
X190785714Y-112952380D01*
X191166666Y-112952380D01*
X191261904Y-113000000D01*
X191309523Y-113047619D01*
X191357142Y-113142857D01*
X191357142Y-113285714D01*
X191309523Y-113380952D01*
X191261904Y-113428571D01*
X191166666Y-113476190D01*
X190785714Y-113476190D01*
X192309523Y-113952380D02*
X191738095Y-113952380D01*
X192023809Y-113952380D02*
X192023809Y-112952380D01*
X191928571Y-113095238D01*
X191833333Y-113190476D01*
X191738095Y-113238095D01*
X193166666Y-113285714D02*
X193166666Y-113952380D01*
X192928571Y-112904761D02*
X192690476Y-113619047D01*
X193309523Y-113619047D01*
%TO.C,R13*%
X180952380Y-108642857D02*
X180476190Y-108976190D01*
X180952380Y-109214285D02*
X179952380Y-109214285D01*
X179952380Y-108833333D01*
X180000000Y-108738095D01*
X180047619Y-108690476D01*
X180142857Y-108642857D01*
X180285714Y-108642857D01*
X180380952Y-108690476D01*
X180428571Y-108738095D01*
X180476190Y-108833333D01*
X180476190Y-109214285D01*
X180952380Y-107690476D02*
X180952380Y-108261904D01*
X180952380Y-107976190D02*
X179952380Y-107976190D01*
X180095238Y-108071428D01*
X180190476Y-108166666D01*
X180238095Y-108261904D01*
X179952380Y-107357142D02*
X179952380Y-106738095D01*
X180333333Y-107071428D01*
X180333333Y-106928571D01*
X180380952Y-106833333D01*
X180428571Y-106785714D01*
X180523809Y-106738095D01*
X180761904Y-106738095D01*
X180857142Y-106785714D01*
X180904761Y-106833333D01*
X180952380Y-106928571D01*
X180952380Y-107214285D01*
X180904761Y-107309523D01*
X180857142Y-107357142D01*
%TO.C,R12*%
X177857142Y-107452380D02*
X177523809Y-106976190D01*
X177285714Y-107452380D02*
X177285714Y-106452380D01*
X177666666Y-106452380D01*
X177761904Y-106500000D01*
X177809523Y-106547619D01*
X177857142Y-106642857D01*
X177857142Y-106785714D01*
X177809523Y-106880952D01*
X177761904Y-106928571D01*
X177666666Y-106976190D01*
X177285714Y-106976190D01*
X178809523Y-107452380D02*
X178238095Y-107452380D01*
X178523809Y-107452380D02*
X178523809Y-106452380D01*
X178428571Y-106595238D01*
X178333333Y-106690476D01*
X178238095Y-106738095D01*
X179190476Y-106547619D02*
X179238095Y-106500000D01*
X179333333Y-106452380D01*
X179571428Y-106452380D01*
X179666666Y-106500000D01*
X179714285Y-106547619D01*
X179761904Y-106642857D01*
X179761904Y-106738095D01*
X179714285Y-106880952D01*
X179142857Y-107452380D01*
X179761904Y-107452380D01*
%TO.C,R11*%
X186452380Y-114392857D02*
X185976190Y-114726190D01*
X186452380Y-114964285D02*
X185452380Y-114964285D01*
X185452380Y-114583333D01*
X185500000Y-114488095D01*
X185547619Y-114440476D01*
X185642857Y-114392857D01*
X185785714Y-114392857D01*
X185880952Y-114440476D01*
X185928571Y-114488095D01*
X185976190Y-114583333D01*
X185976190Y-114964285D01*
X186452380Y-113440476D02*
X186452380Y-114011904D01*
X186452380Y-113726190D02*
X185452380Y-113726190D01*
X185595238Y-113821428D01*
X185690476Y-113916666D01*
X185738095Y-114011904D01*
X186452380Y-112488095D02*
X186452380Y-113059523D01*
X186452380Y-112773809D02*
X185452380Y-112773809D01*
X185595238Y-112869047D01*
X185690476Y-112964285D01*
X185738095Y-113059523D01*
%TO.C,R10*%
X198097142Y-116202380D02*
X197763809Y-115726190D01*
X197525714Y-116202380D02*
X197525714Y-115202380D01*
X197906666Y-115202380D01*
X198001904Y-115250000D01*
X198049523Y-115297619D01*
X198097142Y-115392857D01*
X198097142Y-115535714D01*
X198049523Y-115630952D01*
X198001904Y-115678571D01*
X197906666Y-115726190D01*
X197525714Y-115726190D01*
X199049523Y-116202380D02*
X198478095Y-116202380D01*
X198763809Y-116202380D02*
X198763809Y-115202380D01*
X198668571Y-115345238D01*
X198573333Y-115440476D01*
X198478095Y-115488095D01*
X199668571Y-115202380D02*
X199763809Y-115202380D01*
X199859047Y-115250000D01*
X199906666Y-115297619D01*
X199954285Y-115392857D01*
X200001904Y-115583333D01*
X200001904Y-115821428D01*
X199954285Y-116011904D01*
X199906666Y-116107142D01*
X199859047Y-116154761D01*
X199763809Y-116202380D01*
X199668571Y-116202380D01*
X199573333Y-116154761D01*
X199525714Y-116107142D01*
X199478095Y-116011904D01*
X199430476Y-115821428D01*
X199430476Y-115583333D01*
X199478095Y-115392857D01*
X199525714Y-115297619D01*
X199573333Y-115250000D01*
X199668571Y-115202380D01*
%TO.C,R9*%
X182202380Y-115916666D02*
X181726190Y-116250000D01*
X182202380Y-116488095D02*
X181202380Y-116488095D01*
X181202380Y-116107142D01*
X181250000Y-116011904D01*
X181297619Y-115964285D01*
X181392857Y-115916666D01*
X181535714Y-115916666D01*
X181630952Y-115964285D01*
X181678571Y-116011904D01*
X181726190Y-116107142D01*
X181726190Y-116488095D01*
X182202380Y-115440476D02*
X182202380Y-115250000D01*
X182154761Y-115154761D01*
X182107142Y-115107142D01*
X181964285Y-115011904D01*
X181773809Y-114964285D01*
X181392857Y-114964285D01*
X181297619Y-115011904D01*
X181250000Y-115059523D01*
X181202380Y-115154761D01*
X181202380Y-115345238D01*
X181250000Y-115440476D01*
X181297619Y-115488095D01*
X181392857Y-115535714D01*
X181630952Y-115535714D01*
X181726190Y-115488095D01*
X181773809Y-115440476D01*
X181821428Y-115345238D01*
X181821428Y-115154761D01*
X181773809Y-115059523D01*
X181726190Y-115011904D01*
X181630952Y-114964285D01*
%TO.C,R8*%
X180452380Y-114666666D02*
X179976190Y-115000000D01*
X180452380Y-115238095D02*
X179452380Y-115238095D01*
X179452380Y-114857142D01*
X179500000Y-114761904D01*
X179547619Y-114714285D01*
X179642857Y-114666666D01*
X179785714Y-114666666D01*
X179880952Y-114714285D01*
X179928571Y-114761904D01*
X179976190Y-114857142D01*
X179976190Y-115238095D01*
X179880952Y-114095238D02*
X179833333Y-114190476D01*
X179785714Y-114238095D01*
X179690476Y-114285714D01*
X179642857Y-114285714D01*
X179547619Y-114238095D01*
X179500000Y-114190476D01*
X179452380Y-114095238D01*
X179452380Y-113904761D01*
X179500000Y-113809523D01*
X179547619Y-113761904D01*
X179642857Y-113714285D01*
X179690476Y-113714285D01*
X179785714Y-113761904D01*
X179833333Y-113809523D01*
X179880952Y-113904761D01*
X179880952Y-114095238D01*
X179928571Y-114190476D01*
X179976190Y-114238095D01*
X180071428Y-114285714D01*
X180261904Y-114285714D01*
X180357142Y-114238095D01*
X180404761Y-114190476D01*
X180452380Y-114095238D01*
X180452380Y-113904761D01*
X180404761Y-113809523D01*
X180357142Y-113761904D01*
X180261904Y-113714285D01*
X180071428Y-113714285D01*
X179976190Y-113761904D01*
X179928571Y-113809523D01*
X179880952Y-113904761D01*
%TO.C,R7*%
X192073333Y-93202380D02*
X191740000Y-92726190D01*
X191501904Y-93202380D02*
X191501904Y-92202380D01*
X191882857Y-92202380D01*
X191978095Y-92250000D01*
X192025714Y-92297619D01*
X192073333Y-92392857D01*
X192073333Y-92535714D01*
X192025714Y-92630952D01*
X191978095Y-92678571D01*
X191882857Y-92726190D01*
X191501904Y-92726190D01*
X192406666Y-92202380D02*
X193073333Y-92202380D01*
X192644761Y-93202380D01*
%TO.C,R4*%
X178872380Y-104916666D02*
X178396190Y-105250000D01*
X178872380Y-105488095D02*
X177872380Y-105488095D01*
X177872380Y-105107142D01*
X177920000Y-105011904D01*
X177967619Y-104964285D01*
X178062857Y-104916666D01*
X178205714Y-104916666D01*
X178300952Y-104964285D01*
X178348571Y-105011904D01*
X178396190Y-105107142D01*
X178396190Y-105488095D01*
X178205714Y-104059523D02*
X178872380Y-104059523D01*
X177824761Y-104297619D02*
X178539047Y-104535714D01*
X178539047Y-103916666D01*
%TO.C,R3*%
X157583333Y-100952380D02*
X157250000Y-100476190D01*
X157011904Y-100952380D02*
X157011904Y-99952380D01*
X157392857Y-99952380D01*
X157488095Y-100000000D01*
X157535714Y-100047619D01*
X157583333Y-100142857D01*
X157583333Y-100285714D01*
X157535714Y-100380952D01*
X157488095Y-100428571D01*
X157392857Y-100476190D01*
X157011904Y-100476190D01*
X157916666Y-99952380D02*
X158535714Y-99952380D01*
X158202380Y-100333333D01*
X158345238Y-100333333D01*
X158440476Y-100380952D01*
X158488095Y-100428571D01*
X158535714Y-100523809D01*
X158535714Y-100761904D01*
X158488095Y-100857142D01*
X158440476Y-100904761D01*
X158345238Y-100952380D01*
X158059523Y-100952380D01*
X157964285Y-100904761D01*
X157916666Y-100857142D01*
%TO.C,R2*%
X154622380Y-104416666D02*
X154146190Y-104750000D01*
X154622380Y-104988095D02*
X153622380Y-104988095D01*
X153622380Y-104607142D01*
X153670000Y-104511904D01*
X153717619Y-104464285D01*
X153812857Y-104416666D01*
X153955714Y-104416666D01*
X154050952Y-104464285D01*
X154098571Y-104511904D01*
X154146190Y-104607142D01*
X154146190Y-104988095D01*
X153717619Y-104035714D02*
X153670000Y-103988095D01*
X153622380Y-103892857D01*
X153622380Y-103654761D01*
X153670000Y-103559523D01*
X153717619Y-103511904D01*
X153812857Y-103464285D01*
X153908095Y-103464285D01*
X154050952Y-103511904D01*
X154622380Y-104083333D01*
X154622380Y-103464285D01*
%TO.C,R1*%
X154952380Y-97666666D02*
X154476190Y-98000000D01*
X154952380Y-98238095D02*
X153952380Y-98238095D01*
X153952380Y-97857142D01*
X154000000Y-97761904D01*
X154047619Y-97714285D01*
X154142857Y-97666666D01*
X154285714Y-97666666D01*
X154380952Y-97714285D01*
X154428571Y-97761904D01*
X154476190Y-97857142D01*
X154476190Y-98238095D01*
X154952380Y-96714285D02*
X154952380Y-97285714D01*
X154952380Y-97000000D02*
X153952380Y-97000000D01*
X154095238Y-97095238D01*
X154190476Y-97190476D01*
X154238095Y-97285714D01*
%TO.C,Q5*%
X191547619Y-110845238D02*
X191500000Y-110940476D01*
X191404761Y-111035714D01*
X191261904Y-111178571D01*
X191214285Y-111273809D01*
X191214285Y-111369047D01*
X191452380Y-111321428D02*
X191404761Y-111416666D01*
X191309523Y-111511904D01*
X191119047Y-111559523D01*
X190785714Y-111559523D01*
X190595238Y-111511904D01*
X190500000Y-111416666D01*
X190452380Y-111321428D01*
X190452380Y-111130952D01*
X190500000Y-111035714D01*
X190595238Y-110940476D01*
X190785714Y-110892857D01*
X191119047Y-110892857D01*
X191309523Y-110940476D01*
X191404761Y-111035714D01*
X191452380Y-111130952D01*
X191452380Y-111321428D01*
X190452380Y-109988095D02*
X190452380Y-110464285D01*
X190928571Y-110511904D01*
X190880952Y-110464285D01*
X190833333Y-110369047D01*
X190833333Y-110130952D01*
X190880952Y-110035714D01*
X190928571Y-109988095D01*
X191023809Y-109940476D01*
X191261904Y-109940476D01*
X191357142Y-109988095D01*
X191404761Y-110035714D01*
X191452380Y-110130952D01*
X191452380Y-110369047D01*
X191404761Y-110464285D01*
X191357142Y-110511904D01*
%TO.C,Q4*%
X197654761Y-111297619D02*
X197559523Y-111250000D01*
X197464285Y-111154761D01*
X197321428Y-111011904D01*
X197226190Y-110964285D01*
X197130952Y-110964285D01*
X197178571Y-111202380D02*
X197083333Y-111154761D01*
X196988095Y-111059523D01*
X196940476Y-110869047D01*
X196940476Y-110535714D01*
X196988095Y-110345238D01*
X197083333Y-110250000D01*
X197178571Y-110202380D01*
X197369047Y-110202380D01*
X197464285Y-110250000D01*
X197559523Y-110345238D01*
X197607142Y-110535714D01*
X197607142Y-110869047D01*
X197559523Y-111059523D01*
X197464285Y-111154761D01*
X197369047Y-111202380D01*
X197178571Y-111202380D01*
X198464285Y-110535714D02*
X198464285Y-111202380D01*
X198226190Y-110154761D02*
X197988095Y-110869047D01*
X198607142Y-110869047D01*
%TO.C,Q3*%
X186047619Y-110595238D02*
X186000000Y-110690476D01*
X185904761Y-110785714D01*
X185761904Y-110928571D01*
X185714285Y-111023809D01*
X185714285Y-111119047D01*
X185952380Y-111071428D02*
X185904761Y-111166666D01*
X185809523Y-111261904D01*
X185619047Y-111309523D01*
X185285714Y-111309523D01*
X185095238Y-111261904D01*
X185000000Y-111166666D01*
X184952380Y-111071428D01*
X184952380Y-110880952D01*
X185000000Y-110785714D01*
X185095238Y-110690476D01*
X185285714Y-110642857D01*
X185619047Y-110642857D01*
X185809523Y-110690476D01*
X185904761Y-110785714D01*
X185952380Y-110880952D01*
X185952380Y-111071428D01*
X184952380Y-110309523D02*
X184952380Y-109690476D01*
X185333333Y-110023809D01*
X185333333Y-109880952D01*
X185380952Y-109785714D01*
X185428571Y-109738095D01*
X185523809Y-109690476D01*
X185761904Y-109690476D01*
X185857142Y-109738095D01*
X185904761Y-109785714D01*
X185952380Y-109880952D01*
X185952380Y-110166666D01*
X185904761Y-110261904D01*
X185857142Y-110309523D01*
%TO.C,Q2*%
X180547619Y-110845238D02*
X180500000Y-110940476D01*
X180404761Y-111035714D01*
X180261904Y-111178571D01*
X180214285Y-111273809D01*
X180214285Y-111369047D01*
X180452380Y-111321428D02*
X180404761Y-111416666D01*
X180309523Y-111511904D01*
X180119047Y-111559523D01*
X179785714Y-111559523D01*
X179595238Y-111511904D01*
X179500000Y-111416666D01*
X179452380Y-111321428D01*
X179452380Y-111130952D01*
X179500000Y-111035714D01*
X179595238Y-110940476D01*
X179785714Y-110892857D01*
X180119047Y-110892857D01*
X180309523Y-110940476D01*
X180404761Y-111035714D01*
X180452380Y-111130952D01*
X180452380Y-111321428D01*
X179547619Y-110511904D02*
X179500000Y-110464285D01*
X179452380Y-110369047D01*
X179452380Y-110130952D01*
X179500000Y-110035714D01*
X179547619Y-109988095D01*
X179642857Y-109940476D01*
X179738095Y-109940476D01*
X179880952Y-109988095D01*
X180452380Y-110559523D01*
X180452380Y-109940476D01*
%TO.C,Q1*%
X157404761Y-99297619D02*
X157309523Y-99250000D01*
X157214285Y-99154761D01*
X157071428Y-99011904D01*
X156976190Y-98964285D01*
X156880952Y-98964285D01*
X156928571Y-99202380D02*
X156833333Y-99154761D01*
X156738095Y-99059523D01*
X156690476Y-98869047D01*
X156690476Y-98535714D01*
X156738095Y-98345238D01*
X156833333Y-98250000D01*
X156928571Y-98202380D01*
X157119047Y-98202380D01*
X157214285Y-98250000D01*
X157309523Y-98345238D01*
X157357142Y-98535714D01*
X157357142Y-98869047D01*
X157309523Y-99059523D01*
X157214285Y-99154761D01*
X157119047Y-99202380D01*
X156928571Y-99202380D01*
X158309523Y-99202380D02*
X157738095Y-99202380D01*
X158023809Y-99202380D02*
X158023809Y-98202380D01*
X157928571Y-98345238D01*
X157833333Y-98440476D01*
X157738095Y-98488095D01*
%TO.C,J1*%
X197002380Y-95813333D02*
X197716666Y-95813333D01*
X197859523Y-95860952D01*
X197954761Y-95956190D01*
X198002380Y-96099047D01*
X198002380Y-96194285D01*
X198002380Y-94813333D02*
X198002380Y-95384761D01*
X198002380Y-95099047D02*
X197002380Y-95099047D01*
X197145238Y-95194285D01*
X197240476Y-95289523D01*
X197288095Y-95384761D01*
%TO.C,D8*%
X191102380Y-115988095D02*
X190102380Y-115988095D01*
X190102380Y-115750000D01*
X190150000Y-115607142D01*
X190245238Y-115511904D01*
X190340476Y-115464285D01*
X190530952Y-115416666D01*
X190673809Y-115416666D01*
X190864285Y-115464285D01*
X190959523Y-115511904D01*
X191054761Y-115607142D01*
X191102380Y-115750000D01*
X191102380Y-115988095D01*
X190530952Y-114845238D02*
X190483333Y-114940476D01*
X190435714Y-114988095D01*
X190340476Y-115035714D01*
X190292857Y-115035714D01*
X190197619Y-114988095D01*
X190150000Y-114940476D01*
X190102380Y-114845238D01*
X190102380Y-114654761D01*
X190150000Y-114559523D01*
X190197619Y-114511904D01*
X190292857Y-114464285D01*
X190340476Y-114464285D01*
X190435714Y-114511904D01*
X190483333Y-114559523D01*
X190530952Y-114654761D01*
X190530952Y-114845238D01*
X190578571Y-114940476D01*
X190626190Y-114988095D01*
X190721428Y-115035714D01*
X190911904Y-115035714D01*
X191007142Y-114988095D01*
X191054761Y-114940476D01*
X191102380Y-114845238D01*
X191102380Y-114654761D01*
X191054761Y-114559523D01*
X191007142Y-114511904D01*
X190911904Y-114464285D01*
X190721428Y-114464285D01*
X190626190Y-114511904D01*
X190578571Y-114559523D01*
X190530952Y-114654761D01*
%TO.C,D7*%
X193452380Y-115988095D02*
X192452380Y-115988095D01*
X192452380Y-115750000D01*
X192500000Y-115607142D01*
X192595238Y-115511904D01*
X192690476Y-115464285D01*
X192880952Y-115416666D01*
X193023809Y-115416666D01*
X193214285Y-115464285D01*
X193309523Y-115511904D01*
X193404761Y-115607142D01*
X193452380Y-115750000D01*
X193452380Y-115988095D01*
X192452380Y-115083333D02*
X192452380Y-114416666D01*
X193452380Y-114845238D01*
%TO.C,D6*%
X184761904Y-116702380D02*
X184761904Y-115702380D01*
X185000000Y-115702380D01*
X185142857Y-115750000D01*
X185238095Y-115845238D01*
X185285714Y-115940476D01*
X185333333Y-116130952D01*
X185333333Y-116273809D01*
X185285714Y-116464285D01*
X185238095Y-116559523D01*
X185142857Y-116654761D01*
X185000000Y-116702380D01*
X184761904Y-116702380D01*
X186190476Y-115702380D02*
X186000000Y-115702380D01*
X185904761Y-115750000D01*
X185857142Y-115797619D01*
X185761904Y-115940476D01*
X185714285Y-116130952D01*
X185714285Y-116511904D01*
X185761904Y-116607142D01*
X185809523Y-116654761D01*
X185904761Y-116702380D01*
X186095238Y-116702380D01*
X186190476Y-116654761D01*
X186238095Y-116607142D01*
X186285714Y-116511904D01*
X186285714Y-116273809D01*
X186238095Y-116178571D01*
X186190476Y-116130952D01*
X186095238Y-116083333D01*
X185904761Y-116083333D01*
X185809523Y-116130952D01*
X185761904Y-116178571D01*
X185714285Y-116273809D01*
%TO.C,D5*%
X176952380Y-114488095D02*
X175952380Y-114488095D01*
X175952380Y-114250000D01*
X176000000Y-114107142D01*
X176095238Y-114011904D01*
X176190476Y-113964285D01*
X176380952Y-113916666D01*
X176523809Y-113916666D01*
X176714285Y-113964285D01*
X176809523Y-114011904D01*
X176904761Y-114107142D01*
X176952380Y-114250000D01*
X176952380Y-114488095D01*
X175952380Y-113011904D02*
X175952380Y-113488095D01*
X176428571Y-113535714D01*
X176380952Y-113488095D01*
X176333333Y-113392857D01*
X176333333Y-113154761D01*
X176380952Y-113059523D01*
X176428571Y-113011904D01*
X176523809Y-112964285D01*
X176761904Y-112964285D01*
X176857142Y-113011904D01*
X176904761Y-113059523D01*
X176952380Y-113154761D01*
X176952380Y-113392857D01*
X176904761Y-113488095D01*
X176857142Y-113535714D01*
%TO.C,D4*%
X196952380Y-91488095D02*
X195952380Y-91488095D01*
X195952380Y-91250000D01*
X196000000Y-91107142D01*
X196095238Y-91011904D01*
X196190476Y-90964285D01*
X196380952Y-90916666D01*
X196523809Y-90916666D01*
X196714285Y-90964285D01*
X196809523Y-91011904D01*
X196904761Y-91107142D01*
X196952380Y-91250000D01*
X196952380Y-91488095D01*
X196285714Y-90059523D02*
X196952380Y-90059523D01*
X195904761Y-90297619D02*
X196619047Y-90535714D01*
X196619047Y-89916666D01*
%TO.C,C12*%
X175107142Y-111642857D02*
X175154761Y-111690476D01*
X175202380Y-111833333D01*
X175202380Y-111928571D01*
X175154761Y-112071428D01*
X175059523Y-112166666D01*
X174964285Y-112214285D01*
X174773809Y-112261904D01*
X174630952Y-112261904D01*
X174440476Y-112214285D01*
X174345238Y-112166666D01*
X174250000Y-112071428D01*
X174202380Y-111928571D01*
X174202380Y-111833333D01*
X174250000Y-111690476D01*
X174297619Y-111642857D01*
X175202380Y-110690476D02*
X175202380Y-111261904D01*
X175202380Y-110976190D02*
X174202380Y-110976190D01*
X174345238Y-111071428D01*
X174440476Y-111166666D01*
X174488095Y-111261904D01*
X174297619Y-110309523D02*
X174250000Y-110261904D01*
X174202380Y-110166666D01*
X174202380Y-109928571D01*
X174250000Y-109833333D01*
X174297619Y-109785714D01*
X174392857Y-109738095D01*
X174488095Y-109738095D01*
X174630952Y-109785714D01*
X175202380Y-110357142D01*
X175202380Y-109738095D01*
%TO.C,C10*%
X195107142Y-102357142D02*
X195059523Y-102404761D01*
X194916666Y-102452380D01*
X194821428Y-102452380D01*
X194678571Y-102404761D01*
X194583333Y-102309523D01*
X194535714Y-102214285D01*
X194488095Y-102023809D01*
X194488095Y-101880952D01*
X194535714Y-101690476D01*
X194583333Y-101595238D01*
X194678571Y-101500000D01*
X194821428Y-101452380D01*
X194916666Y-101452380D01*
X195059523Y-101500000D01*
X195107142Y-101547619D01*
X196059523Y-102452380D02*
X195488095Y-102452380D01*
X195773809Y-102452380D02*
X195773809Y-101452380D01*
X195678571Y-101595238D01*
X195583333Y-101690476D01*
X195488095Y-101738095D01*
X196678571Y-101452380D02*
X196773809Y-101452380D01*
X196869047Y-101500000D01*
X196916666Y-101547619D01*
X196964285Y-101642857D01*
X197011904Y-101833333D01*
X197011904Y-102071428D01*
X196964285Y-102261904D01*
X196916666Y-102357142D01*
X196869047Y-102404761D01*
X196773809Y-102452380D01*
X196678571Y-102452380D01*
X196583333Y-102404761D01*
X196535714Y-102357142D01*
X196488095Y-102261904D01*
X196440476Y-102071428D01*
X196440476Y-101833333D01*
X196488095Y-101642857D01*
X196535714Y-101547619D01*
X196583333Y-101500000D01*
X196678571Y-101452380D01*
%TO.C,C8*%
X200833333Y-109107142D02*
X200785714Y-109154761D01*
X200642857Y-109202380D01*
X200547619Y-109202380D01*
X200404761Y-109154761D01*
X200309523Y-109059523D01*
X200261904Y-108964285D01*
X200214285Y-108773809D01*
X200214285Y-108630952D01*
X200261904Y-108440476D01*
X200309523Y-108345238D01*
X200404761Y-108250000D01*
X200547619Y-108202380D01*
X200642857Y-108202380D01*
X200785714Y-108250000D01*
X200833333Y-108297619D01*
X201404761Y-108630952D02*
X201309523Y-108583333D01*
X201261904Y-108535714D01*
X201214285Y-108440476D01*
X201214285Y-108392857D01*
X201261904Y-108297619D01*
X201309523Y-108250000D01*
X201404761Y-108202380D01*
X201595238Y-108202380D01*
X201690476Y-108250000D01*
X201738095Y-108297619D01*
X201785714Y-108392857D01*
X201785714Y-108440476D01*
X201738095Y-108535714D01*
X201690476Y-108583333D01*
X201595238Y-108630952D01*
X201404761Y-108630952D01*
X201309523Y-108678571D01*
X201261904Y-108726190D01*
X201214285Y-108821428D01*
X201214285Y-109011904D01*
X201261904Y-109107142D01*
X201309523Y-109154761D01*
X201404761Y-109202380D01*
X201595238Y-109202380D01*
X201690476Y-109154761D01*
X201738095Y-109107142D01*
X201785714Y-109011904D01*
X201785714Y-108821428D01*
X201738095Y-108726190D01*
X201690476Y-108678571D01*
X201595238Y-108630952D01*
%TO.C,C9*%
X192083333Y-84607142D02*
X192035714Y-84654761D01*
X191892857Y-84702380D01*
X191797619Y-84702380D01*
X191654761Y-84654761D01*
X191559523Y-84559523D01*
X191511904Y-84464285D01*
X191464285Y-84273809D01*
X191464285Y-84130952D01*
X191511904Y-83940476D01*
X191559523Y-83845238D01*
X191654761Y-83750000D01*
X191797619Y-83702380D01*
X191892857Y-83702380D01*
X192035714Y-83750000D01*
X192083333Y-83797619D01*
X192559523Y-84702380D02*
X192750000Y-84702380D01*
X192845238Y-84654761D01*
X192892857Y-84607142D01*
X192988095Y-84464285D01*
X193035714Y-84273809D01*
X193035714Y-83892857D01*
X192988095Y-83797619D01*
X192940476Y-83750000D01*
X192845238Y-83702380D01*
X192654761Y-83702380D01*
X192559523Y-83750000D01*
X192511904Y-83797619D01*
X192464285Y-83892857D01*
X192464285Y-84130952D01*
X192511904Y-84226190D01*
X192559523Y-84273809D01*
X192654761Y-84321428D01*
X192845238Y-84321428D01*
X192940476Y-84273809D01*
X192988095Y-84226190D01*
X193035714Y-84130952D01*
%TO.C,C7*%
X160857142Y-84416666D02*
X160904761Y-84464285D01*
X160952380Y-84607142D01*
X160952380Y-84702380D01*
X160904761Y-84845238D01*
X160809523Y-84940476D01*
X160714285Y-84988095D01*
X160523809Y-85035714D01*
X160380952Y-85035714D01*
X160190476Y-84988095D01*
X160095238Y-84940476D01*
X160000000Y-84845238D01*
X159952380Y-84702380D01*
X159952380Y-84607142D01*
X160000000Y-84464285D01*
X160047619Y-84416666D01*
X159952380Y-84083333D02*
X159952380Y-83416666D01*
X160952380Y-83845238D01*
%TO.C,C6*%
X176357142Y-84166666D02*
X176404761Y-84214285D01*
X176452380Y-84357142D01*
X176452380Y-84452380D01*
X176404761Y-84595238D01*
X176309523Y-84690476D01*
X176214285Y-84738095D01*
X176023809Y-84785714D01*
X175880952Y-84785714D01*
X175690476Y-84738095D01*
X175595238Y-84690476D01*
X175500000Y-84595238D01*
X175452380Y-84452380D01*
X175452380Y-84357142D01*
X175500000Y-84214285D01*
X175547619Y-84166666D01*
X175452380Y-83309523D02*
X175452380Y-83500000D01*
X175500000Y-83595238D01*
X175547619Y-83642857D01*
X175690476Y-83738095D01*
X175880952Y-83785714D01*
X176261904Y-83785714D01*
X176357142Y-83738095D01*
X176404761Y-83690476D01*
X176452380Y-83595238D01*
X176452380Y-83404761D01*
X176404761Y-83309523D01*
X176357142Y-83261904D01*
X176261904Y-83214285D01*
X176023809Y-83214285D01*
X175928571Y-83261904D01*
X175880952Y-83309523D01*
X175833333Y-83404761D01*
X175833333Y-83595238D01*
X175880952Y-83690476D01*
X175928571Y-83738095D01*
X176023809Y-83785714D01*
%TO.C,C5*%
X170384687Y-91620389D02*
X170384687Y-91687732D01*
X170317343Y-91822419D01*
X170250000Y-91889763D01*
X170115312Y-91957106D01*
X169980625Y-91957106D01*
X169879610Y-91923435D01*
X169711251Y-91822419D01*
X169610236Y-91721404D01*
X169509221Y-91553045D01*
X169475549Y-91452030D01*
X169475549Y-91317343D01*
X169542893Y-91182656D01*
X169610236Y-91115312D01*
X169744923Y-91047969D01*
X169812267Y-91047969D01*
X170384687Y-90340862D02*
X170047969Y-90677580D01*
X170351015Y-91047969D01*
X170351015Y-90980625D01*
X170384687Y-90879610D01*
X170553045Y-90711251D01*
X170654061Y-90677580D01*
X170721404Y-90677580D01*
X170822419Y-90711251D01*
X170990778Y-90879610D01*
X171024450Y-90980625D01*
X171024450Y-91047969D01*
X170990778Y-91148984D01*
X170822419Y-91317343D01*
X170721404Y-91351015D01*
X170654061Y-91351015D01*
%TO.C,C4*%
X165879610Y-93134687D02*
X165812267Y-93134687D01*
X165677580Y-93067343D01*
X165610236Y-93000000D01*
X165542893Y-92865312D01*
X165542893Y-92730625D01*
X165576564Y-92629610D01*
X165677580Y-92461251D01*
X165778595Y-92360236D01*
X165946954Y-92259221D01*
X166047969Y-92225549D01*
X166182656Y-92225549D01*
X166317343Y-92292893D01*
X166384687Y-92360236D01*
X166452030Y-92494923D01*
X166452030Y-92562267D01*
X166889763Y-93336717D02*
X166418358Y-93808122D01*
X166990778Y-92898984D02*
X166317343Y-93235702D01*
X166755076Y-93673435D01*
%TO.C,C2*%
X171634688Y-105620389D02*
X171634688Y-105687732D01*
X171567344Y-105822419D01*
X171500001Y-105889763D01*
X171365313Y-105957106D01*
X171230626Y-105957106D01*
X171129611Y-105923435D01*
X170961252Y-105822419D01*
X170860237Y-105721404D01*
X170759222Y-105553045D01*
X170725550Y-105452030D01*
X170725550Y-105317343D01*
X170792894Y-105182656D01*
X170860237Y-105115312D01*
X170994924Y-105047969D01*
X171062268Y-105047969D01*
X171331642Y-104778595D02*
X171331642Y-104711251D01*
X171365313Y-104610236D01*
X171533672Y-104441877D01*
X171634688Y-104408206D01*
X171702031Y-104408206D01*
X171803046Y-104441877D01*
X171870390Y-104509221D01*
X171937733Y-104643908D01*
X171937733Y-105452030D01*
X172375466Y-105014297D01*
%TO.C,C1*%
X173017142Y-90756077D02*
X173064761Y-90803696D01*
X173112380Y-90946553D01*
X173112380Y-91041791D01*
X173064761Y-91184649D01*
X172969523Y-91279887D01*
X172874285Y-91327506D01*
X172683809Y-91375125D01*
X172540952Y-91375125D01*
X172350476Y-91327506D01*
X172255238Y-91279887D01*
X172160000Y-91184649D01*
X172112380Y-91041791D01*
X172112380Y-90946553D01*
X172160000Y-90803696D01*
X172207619Y-90756077D01*
X173112380Y-89803696D02*
X173112380Y-90375125D01*
X173112380Y-90089411D02*
X172112380Y-90089411D01*
X172255238Y-90184649D01*
X172350476Y-90279887D01*
X172398095Y-90375125D01*
%TD*%
M02*
